G04 #@! TF.GenerationSoftware,KiCad,Pcbnew,(5.1.10-1-10_14)*
G04 #@! TF.CreationDate,2021-10-14T13:31:25-04:00*
G04 #@! TF.ProjectId,TR108 Mainboard,54523130-3820-44d6-9169-6e626f617264,1*
G04 #@! TF.SameCoordinates,Original*
G04 #@! TF.FileFunction,Soldermask,Top*
G04 #@! TF.FilePolarity,Negative*
%FSLAX46Y46*%
G04 Gerber Fmt 4.6, Leading zero omitted, Abs format (unit mm)*
G04 Created by KiCad (PCBNEW (5.1.10-1-10_14)) date 2021-10-14 13:31:25*
%MOMM*%
%LPD*%
G01*
G04 APERTURE LIST*
%ADD10O,1.801600X1.801600*%
%ADD11C,0.100000*%
G04 APERTURE END LIST*
D10*
X130454238Y-49200000D03*
X132994238Y-49200000D03*
X135534238Y-49200000D03*
G36*
G01*
X137224238Y-48299200D02*
X138924238Y-48299200D01*
G75*
G02*
X138975038Y-48350000I0J-50800D01*
G01*
X138975038Y-50050000D01*
G75*
G02*
X138924238Y-50100800I-50800J0D01*
G01*
X137224238Y-50100800D01*
G75*
G02*
X137173438Y-50050000I0J50800D01*
G01*
X137173438Y-48350000D01*
G75*
G02*
X137224238Y-48299200I50800J0D01*
G01*
G37*
X104190800Y-129146300D03*
X104190800Y-126606300D03*
X104190800Y-124066300D03*
G36*
G01*
X103290000Y-122376300D02*
X103290000Y-120676300D01*
G75*
G02*
X103340800Y-120625500I50800J0D01*
G01*
X105040800Y-120625500D01*
G75*
G02*
X105091600Y-120676300I0J-50800D01*
G01*
X105091600Y-122376300D01*
G75*
G02*
X105040800Y-122427100I-50800J0D01*
G01*
X103340800Y-122427100D01*
G75*
G02*
X103290000Y-122376300I0J50800D01*
G01*
G37*
D11*
G36*
X139256113Y-67474802D02*
G01*
X139274534Y-67474802D01*
X139279514Y-67475047D01*
X139328345Y-67479857D01*
X139333275Y-67480588D01*
X139381400Y-67490160D01*
X139386237Y-67491372D01*
X139433192Y-67505616D01*
X139437885Y-67507295D01*
X139483218Y-67526072D01*
X139487726Y-67528204D01*
X139530999Y-67551335D01*
X139535273Y-67553897D01*
X139576072Y-67581157D01*
X139580077Y-67584127D01*
X139618006Y-67615255D01*
X139621700Y-67618603D01*
X139656397Y-67653300D01*
X139659745Y-67656994D01*
X139690873Y-67694923D01*
X139693843Y-67698928D01*
X139721103Y-67739727D01*
X139723665Y-67744001D01*
X139746796Y-67787274D01*
X139748928Y-67791782D01*
X139767705Y-67837115D01*
X139769384Y-67841808D01*
X139783628Y-67888763D01*
X139784840Y-67893600D01*
X139794412Y-67941725D01*
X139795143Y-67946655D01*
X139799953Y-67995486D01*
X139800198Y-68000466D01*
X139800198Y-68018887D01*
X139800800Y-68025000D01*
X139800800Y-68525000D01*
X139800198Y-68531113D01*
X139800198Y-68549534D01*
X139799953Y-68554514D01*
X139795143Y-68603345D01*
X139794412Y-68608275D01*
X139784840Y-68656400D01*
X139783628Y-68661237D01*
X139769384Y-68708192D01*
X139767705Y-68712885D01*
X139748928Y-68758218D01*
X139746796Y-68762726D01*
X139723665Y-68805999D01*
X139721103Y-68810273D01*
X139693843Y-68851072D01*
X139690873Y-68855077D01*
X139659745Y-68893006D01*
X139656397Y-68896700D01*
X139621700Y-68931397D01*
X139618006Y-68934745D01*
X139580077Y-68965873D01*
X139576072Y-68968843D01*
X139535273Y-68996103D01*
X139530999Y-68998665D01*
X139487726Y-69021796D01*
X139483218Y-69023928D01*
X139437885Y-69042705D01*
X139433192Y-69044384D01*
X139386237Y-69058628D01*
X139381400Y-69059840D01*
X139333275Y-69069412D01*
X139328345Y-69070143D01*
X139279514Y-69074953D01*
X139274534Y-69075198D01*
X139256113Y-69075198D01*
X139250000Y-69075800D01*
X138750000Y-69075800D01*
X138740089Y-69074824D01*
X138730560Y-69071933D01*
X138721777Y-69067239D01*
X138714079Y-69060921D01*
X138707761Y-69053223D01*
X138703067Y-69044440D01*
X138700176Y-69034911D01*
X138699200Y-69025000D01*
X138699200Y-67525000D01*
X138700176Y-67515089D01*
X138703067Y-67505560D01*
X138707761Y-67496777D01*
X138714079Y-67489079D01*
X138721777Y-67482761D01*
X138730560Y-67478067D01*
X138740089Y-67475176D01*
X138750000Y-67474200D01*
X139250000Y-67474200D01*
X139256113Y-67474802D01*
G37*
G36*
X138459911Y-67475176D02*
G01*
X138469440Y-67478067D01*
X138478223Y-67482761D01*
X138485921Y-67489079D01*
X138492239Y-67496777D01*
X138496933Y-67505560D01*
X138499824Y-67515089D01*
X138500800Y-67525000D01*
X138500800Y-69025000D01*
X138499824Y-69034911D01*
X138496933Y-69044440D01*
X138492239Y-69053223D01*
X138485921Y-69060921D01*
X138478223Y-69067239D01*
X138469440Y-69071933D01*
X138459911Y-69074824D01*
X138450000Y-69075800D01*
X137950000Y-69075800D01*
X137943887Y-69075198D01*
X137925466Y-69075198D01*
X137920486Y-69074953D01*
X137871655Y-69070143D01*
X137866725Y-69069412D01*
X137818600Y-69059840D01*
X137813763Y-69058628D01*
X137766808Y-69044384D01*
X137762115Y-69042705D01*
X137716782Y-69023928D01*
X137712274Y-69021796D01*
X137669001Y-68998665D01*
X137664727Y-68996103D01*
X137623928Y-68968843D01*
X137619923Y-68965873D01*
X137581994Y-68934745D01*
X137578300Y-68931397D01*
X137543603Y-68896700D01*
X137540255Y-68893006D01*
X137509127Y-68855077D01*
X137506157Y-68851072D01*
X137478897Y-68810273D01*
X137476335Y-68805999D01*
X137453204Y-68762726D01*
X137451072Y-68758218D01*
X137432295Y-68712885D01*
X137430616Y-68708192D01*
X137416372Y-68661237D01*
X137415160Y-68656400D01*
X137405588Y-68608275D01*
X137404857Y-68603345D01*
X137400047Y-68554514D01*
X137399802Y-68549534D01*
X137399802Y-68531113D01*
X137399200Y-68525000D01*
X137399200Y-68025000D01*
X137399802Y-68018887D01*
X137399802Y-68000466D01*
X137400047Y-67995486D01*
X137404857Y-67946655D01*
X137405588Y-67941725D01*
X137415160Y-67893600D01*
X137416372Y-67888763D01*
X137430616Y-67841808D01*
X137432295Y-67837115D01*
X137451072Y-67791782D01*
X137453204Y-67787274D01*
X137476335Y-67744001D01*
X137478897Y-67739727D01*
X137506157Y-67698928D01*
X137509127Y-67694923D01*
X137540255Y-67656994D01*
X137543603Y-67653300D01*
X137578300Y-67618603D01*
X137581994Y-67615255D01*
X137619923Y-67584127D01*
X137623928Y-67581157D01*
X137664727Y-67553897D01*
X137669001Y-67551335D01*
X137712274Y-67528204D01*
X137716782Y-67526072D01*
X137762115Y-67507295D01*
X137766808Y-67505616D01*
X137813763Y-67491372D01*
X137818600Y-67490160D01*
X137866725Y-67480588D01*
X137871655Y-67479857D01*
X137920486Y-67475047D01*
X137925466Y-67474802D01*
X137943887Y-67474802D01*
X137950000Y-67474200D01*
X138450000Y-67474200D01*
X138459911Y-67475176D01*
G37*
G36*
X141468887Y-67675198D02*
G01*
X141450466Y-67675198D01*
X141445486Y-67674953D01*
X141396655Y-67670143D01*
X141391725Y-67669412D01*
X141343600Y-67659840D01*
X141338763Y-67658628D01*
X141291808Y-67644384D01*
X141287115Y-67642705D01*
X141241782Y-67623928D01*
X141237274Y-67621796D01*
X141194001Y-67598665D01*
X141189727Y-67596103D01*
X141148928Y-67568843D01*
X141144923Y-67565873D01*
X141106994Y-67534745D01*
X141103300Y-67531397D01*
X141068603Y-67496700D01*
X141065255Y-67493006D01*
X141034127Y-67455077D01*
X141031157Y-67451072D01*
X141003897Y-67410273D01*
X141001335Y-67405999D01*
X140978204Y-67362726D01*
X140976072Y-67358218D01*
X140957295Y-67312885D01*
X140955616Y-67308192D01*
X140941372Y-67261237D01*
X140940160Y-67256400D01*
X140930588Y-67208275D01*
X140929857Y-67203345D01*
X140925047Y-67154514D01*
X140924802Y-67149534D01*
X140924802Y-67131113D01*
X140924200Y-67125000D01*
X140924200Y-66625000D01*
X140924802Y-66618887D01*
X140924802Y-66600466D01*
X140925047Y-66595486D01*
X140929857Y-66546655D01*
X140930588Y-66541725D01*
X140940160Y-66493600D01*
X140941372Y-66488763D01*
X140955616Y-66441808D01*
X140957295Y-66437115D01*
X140976072Y-66391782D01*
X140978204Y-66387274D01*
X141001335Y-66344001D01*
X141003897Y-66339727D01*
X141031157Y-66298928D01*
X141034127Y-66294923D01*
X141065255Y-66256994D01*
X141068603Y-66253300D01*
X141103300Y-66218603D01*
X141106994Y-66215255D01*
X141144923Y-66184127D01*
X141148928Y-66181157D01*
X141189727Y-66153897D01*
X141194001Y-66151335D01*
X141237274Y-66128204D01*
X141241782Y-66126072D01*
X141287115Y-66107295D01*
X141291808Y-66105616D01*
X141338763Y-66091372D01*
X141343600Y-66090160D01*
X141391725Y-66080588D01*
X141396655Y-66079857D01*
X141445486Y-66075047D01*
X141450466Y-66074802D01*
X141468887Y-66074802D01*
X141475000Y-66074200D01*
X141975000Y-66074200D01*
X141984911Y-66075176D01*
X141994440Y-66078067D01*
X142003223Y-66082761D01*
X142010921Y-66089079D01*
X142017239Y-66096777D01*
X142021933Y-66105560D01*
X142024824Y-66115089D01*
X142025800Y-66125000D01*
X142025800Y-67625000D01*
X142024824Y-67634911D01*
X142021933Y-67644440D01*
X142017239Y-67653223D01*
X142010921Y-67660921D01*
X142003223Y-67667239D01*
X141994440Y-67671933D01*
X141984911Y-67674824D01*
X141975000Y-67675800D01*
X141475000Y-67675800D01*
X141468887Y-67675198D01*
G37*
G36*
X142265089Y-67674824D02*
G01*
X142255560Y-67671933D01*
X142246777Y-67667239D01*
X142239079Y-67660921D01*
X142232761Y-67653223D01*
X142228067Y-67644440D01*
X142225176Y-67634911D01*
X142224200Y-67625000D01*
X142224200Y-66125000D01*
X142225176Y-66115089D01*
X142228067Y-66105560D01*
X142232761Y-66096777D01*
X142239079Y-66089079D01*
X142246777Y-66082761D01*
X142255560Y-66078067D01*
X142265089Y-66075176D01*
X142275000Y-66074200D01*
X142775000Y-66074200D01*
X142781113Y-66074802D01*
X142799534Y-66074802D01*
X142804514Y-66075047D01*
X142853345Y-66079857D01*
X142858275Y-66080588D01*
X142906400Y-66090160D01*
X142911237Y-66091372D01*
X142958192Y-66105616D01*
X142962885Y-66107295D01*
X143008218Y-66126072D01*
X143012726Y-66128204D01*
X143055999Y-66151335D01*
X143060273Y-66153897D01*
X143101072Y-66181157D01*
X143105077Y-66184127D01*
X143143006Y-66215255D01*
X143146700Y-66218603D01*
X143181397Y-66253300D01*
X143184745Y-66256994D01*
X143215873Y-66294923D01*
X143218843Y-66298928D01*
X143246103Y-66339727D01*
X143248665Y-66344001D01*
X143271796Y-66387274D01*
X143273928Y-66391782D01*
X143292705Y-66437115D01*
X143294384Y-66441808D01*
X143308628Y-66488763D01*
X143309840Y-66493600D01*
X143319412Y-66541725D01*
X143320143Y-66546655D01*
X143324953Y-66595486D01*
X143325198Y-66600466D01*
X143325198Y-66618887D01*
X143325800Y-66625000D01*
X143325800Y-67125000D01*
X143325198Y-67131113D01*
X143325198Y-67149534D01*
X143324953Y-67154514D01*
X143320143Y-67203345D01*
X143319412Y-67208275D01*
X143309840Y-67256400D01*
X143308628Y-67261237D01*
X143294384Y-67308192D01*
X143292705Y-67312885D01*
X143273928Y-67358218D01*
X143271796Y-67362726D01*
X143248665Y-67405999D01*
X143246103Y-67410273D01*
X143218843Y-67451072D01*
X143215873Y-67455077D01*
X143184745Y-67493006D01*
X143181397Y-67496700D01*
X143146700Y-67531397D01*
X143143006Y-67534745D01*
X143105077Y-67565873D01*
X143101072Y-67568843D01*
X143060273Y-67596103D01*
X143055999Y-67598665D01*
X143012726Y-67621796D01*
X143008218Y-67623928D01*
X142962885Y-67642705D01*
X142958192Y-67644384D01*
X142911237Y-67658628D01*
X142906400Y-67659840D01*
X142858275Y-67669412D01*
X142853345Y-67670143D01*
X142804514Y-67674953D01*
X142799534Y-67675198D01*
X142781113Y-67675198D01*
X142775000Y-67675800D01*
X142275000Y-67675800D01*
X142265089Y-67674824D01*
G37*
G36*
X165569802Y-67468887D02*
G01*
X165569802Y-67450466D01*
X165570047Y-67445486D01*
X165574857Y-67396655D01*
X165575588Y-67391725D01*
X165585160Y-67343600D01*
X165586372Y-67338763D01*
X165600616Y-67291808D01*
X165602295Y-67287115D01*
X165621072Y-67241782D01*
X165623204Y-67237274D01*
X165646335Y-67194001D01*
X165648897Y-67189727D01*
X165676157Y-67148928D01*
X165679127Y-67144923D01*
X165710255Y-67106994D01*
X165713603Y-67103300D01*
X165748300Y-67068603D01*
X165751994Y-67065255D01*
X165789923Y-67034127D01*
X165793928Y-67031157D01*
X165834727Y-67003897D01*
X165839001Y-67001335D01*
X165882274Y-66978204D01*
X165886782Y-66976072D01*
X165932115Y-66957295D01*
X165936808Y-66955616D01*
X165983763Y-66941372D01*
X165988600Y-66940160D01*
X166036725Y-66930588D01*
X166041655Y-66929857D01*
X166090486Y-66925047D01*
X166095466Y-66924802D01*
X166113887Y-66924802D01*
X166120000Y-66924200D01*
X166620000Y-66924200D01*
X166626113Y-66924802D01*
X166644534Y-66924802D01*
X166649514Y-66925047D01*
X166698345Y-66929857D01*
X166703275Y-66930588D01*
X166751400Y-66940160D01*
X166756237Y-66941372D01*
X166803192Y-66955616D01*
X166807885Y-66957295D01*
X166853218Y-66976072D01*
X166857726Y-66978204D01*
X166900999Y-67001335D01*
X166905273Y-67003897D01*
X166946072Y-67031157D01*
X166950077Y-67034127D01*
X166988006Y-67065255D01*
X166991700Y-67068603D01*
X167026397Y-67103300D01*
X167029745Y-67106994D01*
X167060873Y-67144923D01*
X167063843Y-67148928D01*
X167091103Y-67189727D01*
X167093665Y-67194001D01*
X167116796Y-67237274D01*
X167118928Y-67241782D01*
X167137705Y-67287115D01*
X167139384Y-67291808D01*
X167153628Y-67338763D01*
X167154840Y-67343600D01*
X167164412Y-67391725D01*
X167165143Y-67396655D01*
X167169953Y-67445486D01*
X167170198Y-67450466D01*
X167170198Y-67468887D01*
X167170800Y-67475000D01*
X167170800Y-67975000D01*
X167169824Y-67984911D01*
X167166933Y-67994440D01*
X167162239Y-68003223D01*
X167155921Y-68010921D01*
X167148223Y-68017239D01*
X167139440Y-68021933D01*
X167129911Y-68024824D01*
X167120000Y-68025800D01*
X165620000Y-68025800D01*
X165610089Y-68024824D01*
X165600560Y-68021933D01*
X165591777Y-68017239D01*
X165584079Y-68010921D01*
X165577761Y-68003223D01*
X165573067Y-67994440D01*
X165570176Y-67984911D01*
X165569200Y-67975000D01*
X165569200Y-67475000D01*
X165569802Y-67468887D01*
G37*
G36*
X165570176Y-68265089D02*
G01*
X165573067Y-68255560D01*
X165577761Y-68246777D01*
X165584079Y-68239079D01*
X165591777Y-68232761D01*
X165600560Y-68228067D01*
X165610089Y-68225176D01*
X165620000Y-68224200D01*
X167120000Y-68224200D01*
X167129911Y-68225176D01*
X167139440Y-68228067D01*
X167148223Y-68232761D01*
X167155921Y-68239079D01*
X167162239Y-68246777D01*
X167166933Y-68255560D01*
X167169824Y-68265089D01*
X167170800Y-68275000D01*
X167170800Y-68775000D01*
X167170198Y-68781113D01*
X167170198Y-68799534D01*
X167169953Y-68804514D01*
X167165143Y-68853345D01*
X167164412Y-68858275D01*
X167154840Y-68906400D01*
X167153628Y-68911237D01*
X167139384Y-68958192D01*
X167137705Y-68962885D01*
X167118928Y-69008218D01*
X167116796Y-69012726D01*
X167093665Y-69055999D01*
X167091103Y-69060273D01*
X167063843Y-69101072D01*
X167060873Y-69105077D01*
X167029745Y-69143006D01*
X167026397Y-69146700D01*
X166991700Y-69181397D01*
X166988006Y-69184745D01*
X166950077Y-69215873D01*
X166946072Y-69218843D01*
X166905273Y-69246103D01*
X166900999Y-69248665D01*
X166857726Y-69271796D01*
X166853218Y-69273928D01*
X166807885Y-69292705D01*
X166803192Y-69294384D01*
X166756237Y-69308628D01*
X166751400Y-69309840D01*
X166703275Y-69319412D01*
X166698345Y-69320143D01*
X166649514Y-69324953D01*
X166644534Y-69325198D01*
X166626113Y-69325198D01*
X166620000Y-69325800D01*
X166120000Y-69325800D01*
X166113887Y-69325198D01*
X166095466Y-69325198D01*
X166090486Y-69324953D01*
X166041655Y-69320143D01*
X166036725Y-69319412D01*
X165988600Y-69309840D01*
X165983763Y-69308628D01*
X165936808Y-69294384D01*
X165932115Y-69292705D01*
X165886782Y-69273928D01*
X165882274Y-69271796D01*
X165839001Y-69248665D01*
X165834727Y-69246103D01*
X165793928Y-69218843D01*
X165789923Y-69215873D01*
X165751994Y-69184745D01*
X165748300Y-69181397D01*
X165713603Y-69146700D01*
X165710255Y-69143006D01*
X165679127Y-69105077D01*
X165676157Y-69101072D01*
X165648897Y-69060273D01*
X165646335Y-69055999D01*
X165623204Y-69012726D01*
X165621072Y-69008218D01*
X165602295Y-68962885D01*
X165600616Y-68958192D01*
X165586372Y-68911237D01*
X165585160Y-68906400D01*
X165575588Y-68858275D01*
X165574857Y-68853345D01*
X165570047Y-68804514D01*
X165569802Y-68799534D01*
X165569802Y-68781113D01*
X165569200Y-68775000D01*
X165569200Y-68275000D01*
X165570176Y-68265089D01*
G37*
G36*
X148843887Y-66825198D02*
G01*
X148825466Y-66825198D01*
X148820486Y-66824953D01*
X148771655Y-66820143D01*
X148766725Y-66819412D01*
X148718600Y-66809840D01*
X148713763Y-66808628D01*
X148666808Y-66794384D01*
X148662115Y-66792705D01*
X148616782Y-66773928D01*
X148612274Y-66771796D01*
X148569001Y-66748665D01*
X148564727Y-66746103D01*
X148523928Y-66718843D01*
X148519923Y-66715873D01*
X148481994Y-66684745D01*
X148478300Y-66681397D01*
X148443603Y-66646700D01*
X148440255Y-66643006D01*
X148409127Y-66605077D01*
X148406157Y-66601072D01*
X148378897Y-66560273D01*
X148376335Y-66555999D01*
X148353204Y-66512726D01*
X148351072Y-66508218D01*
X148332295Y-66462885D01*
X148330616Y-66458192D01*
X148316372Y-66411237D01*
X148315160Y-66406400D01*
X148305588Y-66358275D01*
X148304857Y-66353345D01*
X148300047Y-66304514D01*
X148299802Y-66299534D01*
X148299802Y-66281113D01*
X148299200Y-66275000D01*
X148299200Y-65775000D01*
X148299802Y-65768887D01*
X148299802Y-65750466D01*
X148300047Y-65745486D01*
X148304857Y-65696655D01*
X148305588Y-65691725D01*
X148315160Y-65643600D01*
X148316372Y-65638763D01*
X148330616Y-65591808D01*
X148332295Y-65587115D01*
X148351072Y-65541782D01*
X148353204Y-65537274D01*
X148376335Y-65494001D01*
X148378897Y-65489727D01*
X148406157Y-65448928D01*
X148409127Y-65444923D01*
X148440255Y-65406994D01*
X148443603Y-65403300D01*
X148478300Y-65368603D01*
X148481994Y-65365255D01*
X148519923Y-65334127D01*
X148523928Y-65331157D01*
X148564727Y-65303897D01*
X148569001Y-65301335D01*
X148612274Y-65278204D01*
X148616782Y-65276072D01*
X148662115Y-65257295D01*
X148666808Y-65255616D01*
X148713763Y-65241372D01*
X148718600Y-65240160D01*
X148766725Y-65230588D01*
X148771655Y-65229857D01*
X148820486Y-65225047D01*
X148825466Y-65224802D01*
X148843887Y-65224802D01*
X148850000Y-65224200D01*
X149350000Y-65224200D01*
X149359911Y-65225176D01*
X149369440Y-65228067D01*
X149378223Y-65232761D01*
X149385921Y-65239079D01*
X149392239Y-65246777D01*
X149396933Y-65255560D01*
X149399824Y-65265089D01*
X149400800Y-65275000D01*
X149400800Y-66775000D01*
X149399824Y-66784911D01*
X149396933Y-66794440D01*
X149392239Y-66803223D01*
X149385921Y-66810921D01*
X149378223Y-66817239D01*
X149369440Y-66821933D01*
X149359911Y-66824824D01*
X149350000Y-66825800D01*
X148850000Y-66825800D01*
X148843887Y-66825198D01*
G37*
G36*
X149640089Y-66824824D02*
G01*
X149630560Y-66821933D01*
X149621777Y-66817239D01*
X149614079Y-66810921D01*
X149607761Y-66803223D01*
X149603067Y-66794440D01*
X149600176Y-66784911D01*
X149599200Y-66775000D01*
X149599200Y-65275000D01*
X149600176Y-65265089D01*
X149603067Y-65255560D01*
X149607761Y-65246777D01*
X149614079Y-65239079D01*
X149621777Y-65232761D01*
X149630560Y-65228067D01*
X149640089Y-65225176D01*
X149650000Y-65224200D01*
X150150000Y-65224200D01*
X150156113Y-65224802D01*
X150174534Y-65224802D01*
X150179514Y-65225047D01*
X150228345Y-65229857D01*
X150233275Y-65230588D01*
X150281400Y-65240160D01*
X150286237Y-65241372D01*
X150333192Y-65255616D01*
X150337885Y-65257295D01*
X150383218Y-65276072D01*
X150387726Y-65278204D01*
X150430999Y-65301335D01*
X150435273Y-65303897D01*
X150476072Y-65331157D01*
X150480077Y-65334127D01*
X150518006Y-65365255D01*
X150521700Y-65368603D01*
X150556397Y-65403300D01*
X150559745Y-65406994D01*
X150590873Y-65444923D01*
X150593843Y-65448928D01*
X150621103Y-65489727D01*
X150623665Y-65494001D01*
X150646796Y-65537274D01*
X150648928Y-65541782D01*
X150667705Y-65587115D01*
X150669384Y-65591808D01*
X150683628Y-65638763D01*
X150684840Y-65643600D01*
X150694412Y-65691725D01*
X150695143Y-65696655D01*
X150699953Y-65745486D01*
X150700198Y-65750466D01*
X150700198Y-65768887D01*
X150700800Y-65775000D01*
X150700800Y-66275000D01*
X150700198Y-66281113D01*
X150700198Y-66299534D01*
X150699953Y-66304514D01*
X150695143Y-66353345D01*
X150694412Y-66358275D01*
X150684840Y-66406400D01*
X150683628Y-66411237D01*
X150669384Y-66458192D01*
X150667705Y-66462885D01*
X150648928Y-66508218D01*
X150646796Y-66512726D01*
X150623665Y-66555999D01*
X150621103Y-66560273D01*
X150593843Y-66601072D01*
X150590873Y-66605077D01*
X150559745Y-66643006D01*
X150556397Y-66646700D01*
X150521700Y-66681397D01*
X150518006Y-66684745D01*
X150480077Y-66715873D01*
X150476072Y-66718843D01*
X150435273Y-66746103D01*
X150430999Y-66748665D01*
X150387726Y-66771796D01*
X150383218Y-66773928D01*
X150337885Y-66792705D01*
X150333192Y-66794384D01*
X150286237Y-66808628D01*
X150281400Y-66809840D01*
X150233275Y-66819412D01*
X150228345Y-66820143D01*
X150179514Y-66824953D01*
X150174534Y-66825198D01*
X150156113Y-66825198D01*
X150150000Y-66825800D01*
X149650000Y-66825800D01*
X149640089Y-66824824D01*
G37*
G36*
X119602047Y-69599638D02*
G01*
X119583626Y-69599638D01*
X119578646Y-69599393D01*
X119529815Y-69594583D01*
X119524885Y-69593852D01*
X119476760Y-69584280D01*
X119471923Y-69583068D01*
X119424968Y-69568824D01*
X119420275Y-69567145D01*
X119374942Y-69548368D01*
X119370434Y-69546236D01*
X119327161Y-69523105D01*
X119322887Y-69520543D01*
X119282088Y-69493283D01*
X119278083Y-69490313D01*
X119240154Y-69459185D01*
X119236460Y-69455837D01*
X119201763Y-69421140D01*
X119198415Y-69417446D01*
X119167287Y-69379517D01*
X119164317Y-69375512D01*
X119137057Y-69334713D01*
X119134495Y-69330439D01*
X119111364Y-69287166D01*
X119109232Y-69282658D01*
X119090455Y-69237325D01*
X119088776Y-69232632D01*
X119074532Y-69185677D01*
X119073320Y-69180840D01*
X119063748Y-69132715D01*
X119063017Y-69127785D01*
X119058207Y-69078954D01*
X119057962Y-69073974D01*
X119057962Y-69055553D01*
X119057360Y-69049440D01*
X119057360Y-68549440D01*
X119057962Y-68543327D01*
X119057962Y-68524906D01*
X119058207Y-68519926D01*
X119063017Y-68471095D01*
X119063748Y-68466165D01*
X119073320Y-68418040D01*
X119074532Y-68413203D01*
X119088776Y-68366248D01*
X119090455Y-68361555D01*
X119109232Y-68316222D01*
X119111364Y-68311714D01*
X119134495Y-68268441D01*
X119137057Y-68264167D01*
X119164317Y-68223368D01*
X119167287Y-68219363D01*
X119198415Y-68181434D01*
X119201763Y-68177740D01*
X119236460Y-68143043D01*
X119240154Y-68139695D01*
X119278083Y-68108567D01*
X119282088Y-68105597D01*
X119322887Y-68078337D01*
X119327161Y-68075775D01*
X119370434Y-68052644D01*
X119374942Y-68050512D01*
X119420275Y-68031735D01*
X119424968Y-68030056D01*
X119471923Y-68015812D01*
X119476760Y-68014600D01*
X119524885Y-68005028D01*
X119529815Y-68004297D01*
X119578646Y-67999487D01*
X119583626Y-67999242D01*
X119602047Y-67999242D01*
X119608160Y-67998640D01*
X120108160Y-67998640D01*
X120118071Y-67999616D01*
X120127600Y-68002507D01*
X120136383Y-68007201D01*
X120144081Y-68013519D01*
X120150399Y-68021217D01*
X120155093Y-68030000D01*
X120157984Y-68039529D01*
X120158960Y-68049440D01*
X120158960Y-69549440D01*
X120157984Y-69559351D01*
X120155093Y-69568880D01*
X120150399Y-69577663D01*
X120144081Y-69585361D01*
X120136383Y-69591679D01*
X120127600Y-69596373D01*
X120118071Y-69599264D01*
X120108160Y-69600240D01*
X119608160Y-69600240D01*
X119602047Y-69599638D01*
G37*
G36*
X120398249Y-69599264D02*
G01*
X120388720Y-69596373D01*
X120379937Y-69591679D01*
X120372239Y-69585361D01*
X120365921Y-69577663D01*
X120361227Y-69568880D01*
X120358336Y-69559351D01*
X120357360Y-69549440D01*
X120357360Y-68049440D01*
X120358336Y-68039529D01*
X120361227Y-68030000D01*
X120365921Y-68021217D01*
X120372239Y-68013519D01*
X120379937Y-68007201D01*
X120388720Y-68002507D01*
X120398249Y-67999616D01*
X120408160Y-67998640D01*
X120908160Y-67998640D01*
X120914273Y-67999242D01*
X120932694Y-67999242D01*
X120937674Y-67999487D01*
X120986505Y-68004297D01*
X120991435Y-68005028D01*
X121039560Y-68014600D01*
X121044397Y-68015812D01*
X121091352Y-68030056D01*
X121096045Y-68031735D01*
X121141378Y-68050512D01*
X121145886Y-68052644D01*
X121189159Y-68075775D01*
X121193433Y-68078337D01*
X121234232Y-68105597D01*
X121238237Y-68108567D01*
X121276166Y-68139695D01*
X121279860Y-68143043D01*
X121314557Y-68177740D01*
X121317905Y-68181434D01*
X121349033Y-68219363D01*
X121352003Y-68223368D01*
X121379263Y-68264167D01*
X121381825Y-68268441D01*
X121404956Y-68311714D01*
X121407088Y-68316222D01*
X121425865Y-68361555D01*
X121427544Y-68366248D01*
X121441788Y-68413203D01*
X121443000Y-68418040D01*
X121452572Y-68466165D01*
X121453303Y-68471095D01*
X121458113Y-68519926D01*
X121458358Y-68524906D01*
X121458358Y-68543327D01*
X121458960Y-68549440D01*
X121458960Y-69049440D01*
X121458358Y-69055553D01*
X121458358Y-69073974D01*
X121458113Y-69078954D01*
X121453303Y-69127785D01*
X121452572Y-69132715D01*
X121443000Y-69180840D01*
X121441788Y-69185677D01*
X121427544Y-69232632D01*
X121425865Y-69237325D01*
X121407088Y-69282658D01*
X121404956Y-69287166D01*
X121381825Y-69330439D01*
X121379263Y-69334713D01*
X121352003Y-69375512D01*
X121349033Y-69379517D01*
X121317905Y-69417446D01*
X121314557Y-69421140D01*
X121279860Y-69455837D01*
X121276166Y-69459185D01*
X121238237Y-69490313D01*
X121234232Y-69493283D01*
X121193433Y-69520543D01*
X121189159Y-69523105D01*
X121145886Y-69546236D01*
X121141378Y-69548368D01*
X121096045Y-69567145D01*
X121091352Y-69568824D01*
X121044397Y-69583068D01*
X121039560Y-69584280D01*
X120991435Y-69593852D01*
X120986505Y-69594583D01*
X120937674Y-69599393D01*
X120932694Y-69599638D01*
X120914273Y-69599638D01*
X120908160Y-69600240D01*
X120408160Y-69600240D01*
X120398249Y-69599264D01*
G37*
G36*
X119597647Y-72047198D02*
G01*
X119579226Y-72047198D01*
X119574246Y-72046953D01*
X119525415Y-72042143D01*
X119520485Y-72041412D01*
X119472360Y-72031840D01*
X119467523Y-72030628D01*
X119420568Y-72016384D01*
X119415875Y-72014705D01*
X119370542Y-71995928D01*
X119366034Y-71993796D01*
X119322761Y-71970665D01*
X119318487Y-71968103D01*
X119277688Y-71940843D01*
X119273683Y-71937873D01*
X119235754Y-71906745D01*
X119232060Y-71903397D01*
X119197363Y-71868700D01*
X119194015Y-71865006D01*
X119162887Y-71827077D01*
X119159917Y-71823072D01*
X119132657Y-71782273D01*
X119130095Y-71777999D01*
X119106964Y-71734726D01*
X119104832Y-71730218D01*
X119086055Y-71684885D01*
X119084376Y-71680192D01*
X119070132Y-71633237D01*
X119068920Y-71628400D01*
X119059348Y-71580275D01*
X119058617Y-71575345D01*
X119053807Y-71526514D01*
X119053562Y-71521534D01*
X119053562Y-71503113D01*
X119052960Y-71497000D01*
X119052960Y-70997000D01*
X119053562Y-70990887D01*
X119053562Y-70972466D01*
X119053807Y-70967486D01*
X119058617Y-70918655D01*
X119059348Y-70913725D01*
X119068920Y-70865600D01*
X119070132Y-70860763D01*
X119084376Y-70813808D01*
X119086055Y-70809115D01*
X119104832Y-70763782D01*
X119106964Y-70759274D01*
X119130095Y-70716001D01*
X119132657Y-70711727D01*
X119159917Y-70670928D01*
X119162887Y-70666923D01*
X119194015Y-70628994D01*
X119197363Y-70625300D01*
X119232060Y-70590603D01*
X119235754Y-70587255D01*
X119273683Y-70556127D01*
X119277688Y-70553157D01*
X119318487Y-70525897D01*
X119322761Y-70523335D01*
X119366034Y-70500204D01*
X119370542Y-70498072D01*
X119415875Y-70479295D01*
X119420568Y-70477616D01*
X119467523Y-70463372D01*
X119472360Y-70462160D01*
X119520485Y-70452588D01*
X119525415Y-70451857D01*
X119574246Y-70447047D01*
X119579226Y-70446802D01*
X119597647Y-70446802D01*
X119603760Y-70446200D01*
X120103760Y-70446200D01*
X120113671Y-70447176D01*
X120123200Y-70450067D01*
X120131983Y-70454761D01*
X120139681Y-70461079D01*
X120145999Y-70468777D01*
X120150693Y-70477560D01*
X120153584Y-70487089D01*
X120154560Y-70497000D01*
X120154560Y-71997000D01*
X120153584Y-72006911D01*
X120150693Y-72016440D01*
X120145999Y-72025223D01*
X120139681Y-72032921D01*
X120131983Y-72039239D01*
X120123200Y-72043933D01*
X120113671Y-72046824D01*
X120103760Y-72047800D01*
X119603760Y-72047800D01*
X119597647Y-72047198D01*
G37*
G36*
X120393849Y-72046824D02*
G01*
X120384320Y-72043933D01*
X120375537Y-72039239D01*
X120367839Y-72032921D01*
X120361521Y-72025223D01*
X120356827Y-72016440D01*
X120353936Y-72006911D01*
X120352960Y-71997000D01*
X120352960Y-70497000D01*
X120353936Y-70487089D01*
X120356827Y-70477560D01*
X120361521Y-70468777D01*
X120367839Y-70461079D01*
X120375537Y-70454761D01*
X120384320Y-70450067D01*
X120393849Y-70447176D01*
X120403760Y-70446200D01*
X120903760Y-70446200D01*
X120909873Y-70446802D01*
X120928294Y-70446802D01*
X120933274Y-70447047D01*
X120982105Y-70451857D01*
X120987035Y-70452588D01*
X121035160Y-70462160D01*
X121039997Y-70463372D01*
X121086952Y-70477616D01*
X121091645Y-70479295D01*
X121136978Y-70498072D01*
X121141486Y-70500204D01*
X121184759Y-70523335D01*
X121189033Y-70525897D01*
X121229832Y-70553157D01*
X121233837Y-70556127D01*
X121271766Y-70587255D01*
X121275460Y-70590603D01*
X121310157Y-70625300D01*
X121313505Y-70628994D01*
X121344633Y-70666923D01*
X121347603Y-70670928D01*
X121374863Y-70711727D01*
X121377425Y-70716001D01*
X121400556Y-70759274D01*
X121402688Y-70763782D01*
X121421465Y-70809115D01*
X121423144Y-70813808D01*
X121437388Y-70860763D01*
X121438600Y-70865600D01*
X121448172Y-70913725D01*
X121448903Y-70918655D01*
X121453713Y-70967486D01*
X121453958Y-70972466D01*
X121453958Y-70990887D01*
X121454560Y-70997000D01*
X121454560Y-71497000D01*
X121453958Y-71503113D01*
X121453958Y-71521534D01*
X121453713Y-71526514D01*
X121448903Y-71575345D01*
X121448172Y-71580275D01*
X121438600Y-71628400D01*
X121437388Y-71633237D01*
X121423144Y-71680192D01*
X121421465Y-71684885D01*
X121402688Y-71730218D01*
X121400556Y-71734726D01*
X121377425Y-71777999D01*
X121374863Y-71782273D01*
X121347603Y-71823072D01*
X121344633Y-71827077D01*
X121313505Y-71865006D01*
X121310157Y-71868700D01*
X121275460Y-71903397D01*
X121271766Y-71906745D01*
X121233837Y-71937873D01*
X121229832Y-71940843D01*
X121189033Y-71968103D01*
X121184759Y-71970665D01*
X121141486Y-71993796D01*
X121136978Y-71995928D01*
X121091645Y-72014705D01*
X121086952Y-72016384D01*
X121039997Y-72030628D01*
X121035160Y-72031840D01*
X120987035Y-72041412D01*
X120982105Y-72042143D01*
X120933274Y-72046953D01*
X120928294Y-72047198D01*
X120909873Y-72047198D01*
X120903760Y-72047800D01*
X120403760Y-72047800D01*
X120393849Y-72046824D01*
G37*
G36*
X119602047Y-67152078D02*
G01*
X119583626Y-67152078D01*
X119578646Y-67151833D01*
X119529815Y-67147023D01*
X119524885Y-67146292D01*
X119476760Y-67136720D01*
X119471923Y-67135508D01*
X119424968Y-67121264D01*
X119420275Y-67119585D01*
X119374942Y-67100808D01*
X119370434Y-67098676D01*
X119327161Y-67075545D01*
X119322887Y-67072983D01*
X119282088Y-67045723D01*
X119278083Y-67042753D01*
X119240154Y-67011625D01*
X119236460Y-67008277D01*
X119201763Y-66973580D01*
X119198415Y-66969886D01*
X119167287Y-66931957D01*
X119164317Y-66927952D01*
X119137057Y-66887153D01*
X119134495Y-66882879D01*
X119111364Y-66839606D01*
X119109232Y-66835098D01*
X119090455Y-66789765D01*
X119088776Y-66785072D01*
X119074532Y-66738117D01*
X119073320Y-66733280D01*
X119063748Y-66685155D01*
X119063017Y-66680225D01*
X119058207Y-66631394D01*
X119057962Y-66626414D01*
X119057962Y-66607993D01*
X119057360Y-66601880D01*
X119057360Y-66101880D01*
X119057962Y-66095767D01*
X119057962Y-66077346D01*
X119058207Y-66072366D01*
X119063017Y-66023535D01*
X119063748Y-66018605D01*
X119073320Y-65970480D01*
X119074532Y-65965643D01*
X119088776Y-65918688D01*
X119090455Y-65913995D01*
X119109232Y-65868662D01*
X119111364Y-65864154D01*
X119134495Y-65820881D01*
X119137057Y-65816607D01*
X119164317Y-65775808D01*
X119167287Y-65771803D01*
X119198415Y-65733874D01*
X119201763Y-65730180D01*
X119236460Y-65695483D01*
X119240154Y-65692135D01*
X119278083Y-65661007D01*
X119282088Y-65658037D01*
X119322887Y-65630777D01*
X119327161Y-65628215D01*
X119370434Y-65605084D01*
X119374942Y-65602952D01*
X119420275Y-65584175D01*
X119424968Y-65582496D01*
X119471923Y-65568252D01*
X119476760Y-65567040D01*
X119524885Y-65557468D01*
X119529815Y-65556737D01*
X119578646Y-65551927D01*
X119583626Y-65551682D01*
X119602047Y-65551682D01*
X119608160Y-65551080D01*
X120108160Y-65551080D01*
X120118071Y-65552056D01*
X120127600Y-65554947D01*
X120136383Y-65559641D01*
X120144081Y-65565959D01*
X120150399Y-65573657D01*
X120155093Y-65582440D01*
X120157984Y-65591969D01*
X120158960Y-65601880D01*
X120158960Y-67101880D01*
X120157984Y-67111791D01*
X120155093Y-67121320D01*
X120150399Y-67130103D01*
X120144081Y-67137801D01*
X120136383Y-67144119D01*
X120127600Y-67148813D01*
X120118071Y-67151704D01*
X120108160Y-67152680D01*
X119608160Y-67152680D01*
X119602047Y-67152078D01*
G37*
G36*
X120398249Y-67151704D02*
G01*
X120388720Y-67148813D01*
X120379937Y-67144119D01*
X120372239Y-67137801D01*
X120365921Y-67130103D01*
X120361227Y-67121320D01*
X120358336Y-67111791D01*
X120357360Y-67101880D01*
X120357360Y-65601880D01*
X120358336Y-65591969D01*
X120361227Y-65582440D01*
X120365921Y-65573657D01*
X120372239Y-65565959D01*
X120379937Y-65559641D01*
X120388720Y-65554947D01*
X120398249Y-65552056D01*
X120408160Y-65551080D01*
X120908160Y-65551080D01*
X120914273Y-65551682D01*
X120932694Y-65551682D01*
X120937674Y-65551927D01*
X120986505Y-65556737D01*
X120991435Y-65557468D01*
X121039560Y-65567040D01*
X121044397Y-65568252D01*
X121091352Y-65582496D01*
X121096045Y-65584175D01*
X121141378Y-65602952D01*
X121145886Y-65605084D01*
X121189159Y-65628215D01*
X121193433Y-65630777D01*
X121234232Y-65658037D01*
X121238237Y-65661007D01*
X121276166Y-65692135D01*
X121279860Y-65695483D01*
X121314557Y-65730180D01*
X121317905Y-65733874D01*
X121349033Y-65771803D01*
X121352003Y-65775808D01*
X121379263Y-65816607D01*
X121381825Y-65820881D01*
X121404956Y-65864154D01*
X121407088Y-65868662D01*
X121425865Y-65913995D01*
X121427544Y-65918688D01*
X121441788Y-65965643D01*
X121443000Y-65970480D01*
X121452572Y-66018605D01*
X121453303Y-66023535D01*
X121458113Y-66072366D01*
X121458358Y-66077346D01*
X121458358Y-66095767D01*
X121458960Y-66101880D01*
X121458960Y-66601880D01*
X121458358Y-66607993D01*
X121458358Y-66626414D01*
X121458113Y-66631394D01*
X121453303Y-66680225D01*
X121452572Y-66685155D01*
X121443000Y-66733280D01*
X121441788Y-66738117D01*
X121427544Y-66785072D01*
X121425865Y-66789765D01*
X121407088Y-66835098D01*
X121404956Y-66839606D01*
X121381825Y-66882879D01*
X121379263Y-66887153D01*
X121352003Y-66927952D01*
X121349033Y-66931957D01*
X121317905Y-66969886D01*
X121314557Y-66973580D01*
X121279860Y-67008277D01*
X121276166Y-67011625D01*
X121238237Y-67042753D01*
X121234232Y-67045723D01*
X121193433Y-67072983D01*
X121189159Y-67075545D01*
X121145886Y-67098676D01*
X121141378Y-67100808D01*
X121096045Y-67119585D01*
X121091352Y-67121264D01*
X121044397Y-67135508D01*
X121039560Y-67136720D01*
X120991435Y-67146292D01*
X120986505Y-67147023D01*
X120937674Y-67151833D01*
X120932694Y-67152078D01*
X120914273Y-67152078D01*
X120908160Y-67152680D01*
X120408160Y-67152680D01*
X120398249Y-67151704D01*
G37*
D10*
X104200000Y-77980000D03*
X104200000Y-75440000D03*
X104200000Y-72900000D03*
X104200000Y-70360000D03*
X104200000Y-67820000D03*
X104200000Y-65280000D03*
X104200000Y-62740000D03*
G36*
G01*
X103299200Y-61050000D02*
X103299200Y-59350000D01*
G75*
G02*
X103350000Y-59299200I50800J0D01*
G01*
X105050000Y-59299200D01*
G75*
G02*
X105100800Y-59350000I0J-50800D01*
G01*
X105100800Y-61050000D01*
G75*
G02*
X105050000Y-61100800I-50800J0D01*
G01*
X103350000Y-61100800D01*
G75*
G02*
X103299200Y-61050000I0J50800D01*
G01*
G37*
G36*
G01*
X130498400Y-94242900D02*
X130498400Y-93717100D01*
G75*
G02*
X130761300Y-93454200I262900J0D01*
G01*
X131312100Y-93454200D01*
G75*
G02*
X131575000Y-93717100I0J-262900D01*
G01*
X131575000Y-94242900D01*
G75*
G02*
X131312100Y-94505800I-262900J0D01*
G01*
X130761300Y-94505800D01*
G75*
G02*
X130498400Y-94242900I0J262900D01*
G01*
G37*
G36*
G01*
X128673400Y-94242900D02*
X128673400Y-93717100D01*
G75*
G02*
X128936300Y-93454200I262900J0D01*
G01*
X129487100Y-93454200D01*
G75*
G02*
X129750000Y-93717100I0J-262900D01*
G01*
X129750000Y-94242900D01*
G75*
G02*
X129487100Y-94505800I-262900J0D01*
G01*
X128936300Y-94505800D01*
G75*
G02*
X128673400Y-94242900I0J262900D01*
G01*
G37*
G36*
G01*
X129811600Y-101324400D02*
X129811600Y-101850200D01*
G75*
G02*
X129548700Y-102113100I-262900J0D01*
G01*
X128997900Y-102113100D01*
G75*
G02*
X128735000Y-101850200I0J262900D01*
G01*
X128735000Y-101324400D01*
G75*
G02*
X128997900Y-101061500I262900J0D01*
G01*
X129548700Y-101061500D01*
G75*
G02*
X129811600Y-101324400I0J-262900D01*
G01*
G37*
G36*
G01*
X131636600Y-101324400D02*
X131636600Y-101850200D01*
G75*
G02*
X131373700Y-102113100I-262900J0D01*
G01*
X130822900Y-102113100D01*
G75*
G02*
X130560000Y-101850200I0J262900D01*
G01*
X130560000Y-101324400D01*
G75*
G02*
X130822900Y-101061500I262900J0D01*
G01*
X131373700Y-101061500D01*
G75*
G02*
X131636600Y-101324400I0J-262900D01*
G01*
G37*
G36*
G01*
X129788100Y-98822500D02*
X129788100Y-99348300D01*
G75*
G02*
X129525200Y-99611200I-262900J0D01*
G01*
X128974400Y-99611200D01*
G75*
G02*
X128711500Y-99348300I0J262900D01*
G01*
X128711500Y-98822500D01*
G75*
G02*
X128974400Y-98559600I262900J0D01*
G01*
X129525200Y-98559600D01*
G75*
G02*
X129788100Y-98822500I0J-262900D01*
G01*
G37*
G36*
G01*
X131613100Y-98822500D02*
X131613100Y-99348300D01*
G75*
G02*
X131350200Y-99611200I-262900J0D01*
G01*
X130799400Y-99611200D01*
G75*
G02*
X130536500Y-99348300I0J262900D01*
G01*
X130536500Y-98822500D01*
G75*
G02*
X130799400Y-98559600I262900J0D01*
G01*
X131350200Y-98559600D01*
G75*
G02*
X131613100Y-98822500I0J-262900D01*
G01*
G37*
X154940000Y-132080000D03*
G36*
G01*
X155840800Y-133770000D02*
X155840800Y-135470000D01*
G75*
G02*
X155790000Y-135520800I-50800J0D01*
G01*
X154090000Y-135520800D01*
G75*
G02*
X154039200Y-135470000I0J50800D01*
G01*
X154039200Y-133770000D01*
G75*
G02*
X154090000Y-133719200I50800J0D01*
G01*
X155790000Y-133719200D01*
G75*
G02*
X155840800Y-133770000I0J-50800D01*
G01*
G37*
X104200000Y-102695000D03*
X104200000Y-100155000D03*
X104200000Y-97615000D03*
X104200000Y-95075000D03*
X104200000Y-92535000D03*
X104200000Y-89995000D03*
X104200000Y-87455000D03*
X104200000Y-84915000D03*
G36*
G01*
X103299200Y-83225000D02*
X103299200Y-81525000D01*
G75*
G02*
X103350000Y-81474200I50800J0D01*
G01*
X105050000Y-81474200D01*
G75*
G02*
X105100800Y-81525000I0J-50800D01*
G01*
X105100800Y-83225000D01*
G75*
G02*
X105050000Y-83275800I-50800J0D01*
G01*
X103350000Y-83275800D01*
G75*
G02*
X103299200Y-83225000I0J50800D01*
G01*
G37*
X104200000Y-115620000D03*
X104200000Y-113080000D03*
X104200000Y-110540000D03*
G36*
G01*
X103299200Y-108850000D02*
X103299200Y-107150000D01*
G75*
G02*
X103350000Y-107099200I50800J0D01*
G01*
X105050000Y-107099200D01*
G75*
G02*
X105100800Y-107150000I0J-50800D01*
G01*
X105100800Y-108850000D01*
G75*
G02*
X105050000Y-108900800I-50800J0D01*
G01*
X103350000Y-108900800D01*
G75*
G02*
X103299200Y-108850000I0J50800D01*
G01*
G37*
X114300000Y-63500000D03*
X114300000Y-60960000D03*
X116840000Y-63500000D03*
X116840000Y-60960000D03*
X119380000Y-63500000D03*
X119380000Y-60960000D03*
X121920000Y-63500000D03*
X121920000Y-60960000D03*
X124460000Y-63500000D03*
X124460000Y-60960000D03*
X127000000Y-63500000D03*
X127000000Y-60960000D03*
X129540000Y-63500000D03*
X129540000Y-60960000D03*
X132080000Y-63500000D03*
X132080000Y-60960000D03*
X134620000Y-63500000D03*
X134620000Y-60960000D03*
X137160000Y-63500000D03*
X137160000Y-60960000D03*
X139700000Y-63500000D03*
X139700000Y-60960000D03*
X142240000Y-63500000D03*
X142240000Y-60960000D03*
X144780000Y-63500000D03*
X144780000Y-60960000D03*
X147320000Y-63500000D03*
X147320000Y-60960000D03*
X149860000Y-63500000D03*
X149860000Y-60960000D03*
X152400000Y-63500000D03*
X152400000Y-60960000D03*
X154940000Y-63500000D03*
X154940000Y-60960000D03*
X157480000Y-63500000D03*
X157480000Y-60960000D03*
X160020000Y-63500000D03*
X160020000Y-60960000D03*
X162560000Y-63500000D03*
G36*
G01*
X161710000Y-60059200D02*
X163410000Y-60059200D01*
G75*
G02*
X163460800Y-60110000I0J-50800D01*
G01*
X163460800Y-61810000D01*
G75*
G02*
X163410000Y-61860800I-50800J0D01*
G01*
X161710000Y-61860800D01*
G75*
G02*
X161659200Y-61810000I0J50800D01*
G01*
X161659200Y-60110000D01*
G75*
G02*
X161710000Y-60059200I50800J0D01*
G01*
G37*
X162560000Y-134620000D03*
X160020000Y-134620000D03*
X162560000Y-132080000D03*
X160020000Y-132080000D03*
X162560000Y-129540000D03*
X160020000Y-129540000D03*
X162560000Y-127000000D03*
X160020000Y-127000000D03*
X162560000Y-124460000D03*
X160020000Y-124460000D03*
X162560000Y-121920000D03*
X160020000Y-121920000D03*
X162560000Y-119380000D03*
X160020000Y-119380000D03*
X162560000Y-116840000D03*
X160020000Y-116840000D03*
X162560000Y-114300000D03*
X160020000Y-114300000D03*
X162560000Y-111760000D03*
X160020000Y-111760000D03*
X162560000Y-109220000D03*
X160020000Y-109220000D03*
X162560000Y-106680000D03*
X160020000Y-106680000D03*
X162560000Y-104140000D03*
X160020000Y-104140000D03*
X162560000Y-101600000D03*
X160020000Y-101600000D03*
X162560000Y-99060000D03*
X160020000Y-99060000D03*
X162560000Y-96520000D03*
X160020000Y-96520000D03*
X162560000Y-93980000D03*
X160020000Y-93980000D03*
X162560000Y-91440000D03*
X160020000Y-91440000D03*
X162560000Y-88900000D03*
X160020000Y-88900000D03*
X162560000Y-86360000D03*
G36*
G01*
X159119200Y-87210000D02*
X159119200Y-85510000D01*
G75*
G02*
X159170000Y-85459200I50800J0D01*
G01*
X160870000Y-85459200D01*
G75*
G02*
X160920800Y-85510000I0J-50800D01*
G01*
X160920800Y-87210000D01*
G75*
G02*
X160870000Y-87260800I-50800J0D01*
G01*
X159170000Y-87260800D01*
G75*
G02*
X159119200Y-87210000I0J50800D01*
G01*
G37*
M02*
