G04 #@! TF.GenerationSoftware,KiCad,Pcbnew,(5.1.10-1-10_14)*
G04 #@! TF.CreationDate,2021-10-14T13:31:25-04:00*
G04 #@! TF.ProjectId,TR108 Mainboard,54523130-3820-44d6-9169-6e626f617264,1*
G04 #@! TF.SameCoordinates,Original*
G04 #@! TF.FileFunction,Soldermask,Bot*
G04 #@! TF.FilePolarity,Negative*
%FSLAX46Y46*%
G04 Gerber Fmt 4.6, Leading zero omitted, Abs format (unit mm)*
G04 Created by KiCad (PCBNEW (5.1.10-1-10_14)) date 2021-10-14 13:31:25*
%MOMM*%
%LPD*%
G01*
G04 APERTURE LIST*
%ADD10O,1.801600X1.801600*%
G04 APERTURE END LIST*
D10*
X130454238Y-49200000D03*
X132994238Y-49200000D03*
X135534238Y-49200000D03*
G36*
G01*
X137224238Y-48299200D02*
X138924238Y-48299200D01*
G75*
G02*
X138975038Y-48350000I0J-50800D01*
G01*
X138975038Y-50050000D01*
G75*
G02*
X138924238Y-50100800I-50800J0D01*
G01*
X137224238Y-50100800D01*
G75*
G02*
X137173438Y-50050000I0J50800D01*
G01*
X137173438Y-48350000D01*
G75*
G02*
X137224238Y-48299200I50800J0D01*
G01*
G37*
X104190800Y-129146300D03*
X104190800Y-126606300D03*
X104190800Y-124066300D03*
G36*
G01*
X103290000Y-122376300D02*
X103290000Y-120676300D01*
G75*
G02*
X103340800Y-120625500I50800J0D01*
G01*
X105040800Y-120625500D01*
G75*
G02*
X105091600Y-120676300I0J-50800D01*
G01*
X105091600Y-122376300D01*
G75*
G02*
X105040800Y-122427100I-50800J0D01*
G01*
X103340800Y-122427100D01*
G75*
G02*
X103290000Y-122376300I0J50800D01*
G01*
G37*
X104200000Y-77980000D03*
X104200000Y-75440000D03*
X104200000Y-72900000D03*
X104200000Y-70360000D03*
X104200000Y-67820000D03*
X104200000Y-65280000D03*
X104200000Y-62740000D03*
G36*
G01*
X103299200Y-61050000D02*
X103299200Y-59350000D01*
G75*
G02*
X103350000Y-59299200I50800J0D01*
G01*
X105050000Y-59299200D01*
G75*
G02*
X105100800Y-59350000I0J-50800D01*
G01*
X105100800Y-61050000D01*
G75*
G02*
X105050000Y-61100800I-50800J0D01*
G01*
X103350000Y-61100800D01*
G75*
G02*
X103299200Y-61050000I0J50800D01*
G01*
G37*
X154940000Y-132080000D03*
G36*
G01*
X155840800Y-133770000D02*
X155840800Y-135470000D01*
G75*
G02*
X155790000Y-135520800I-50800J0D01*
G01*
X154090000Y-135520800D01*
G75*
G02*
X154039200Y-135470000I0J50800D01*
G01*
X154039200Y-133770000D01*
G75*
G02*
X154090000Y-133719200I50800J0D01*
G01*
X155790000Y-133719200D01*
G75*
G02*
X155840800Y-133770000I0J-50800D01*
G01*
G37*
X104200000Y-102695000D03*
X104200000Y-100155000D03*
X104200000Y-97615000D03*
X104200000Y-95075000D03*
X104200000Y-92535000D03*
X104200000Y-89995000D03*
X104200000Y-87455000D03*
X104200000Y-84915000D03*
G36*
G01*
X103299200Y-83225000D02*
X103299200Y-81525000D01*
G75*
G02*
X103350000Y-81474200I50800J0D01*
G01*
X105050000Y-81474200D01*
G75*
G02*
X105100800Y-81525000I0J-50800D01*
G01*
X105100800Y-83225000D01*
G75*
G02*
X105050000Y-83275800I-50800J0D01*
G01*
X103350000Y-83275800D01*
G75*
G02*
X103299200Y-83225000I0J50800D01*
G01*
G37*
X104200000Y-115620000D03*
X104200000Y-113080000D03*
X104200000Y-110540000D03*
G36*
G01*
X103299200Y-108850000D02*
X103299200Y-107150000D01*
G75*
G02*
X103350000Y-107099200I50800J0D01*
G01*
X105050000Y-107099200D01*
G75*
G02*
X105100800Y-107150000I0J-50800D01*
G01*
X105100800Y-108850000D01*
G75*
G02*
X105050000Y-108900800I-50800J0D01*
G01*
X103350000Y-108900800D01*
G75*
G02*
X103299200Y-108850000I0J50800D01*
G01*
G37*
X114300000Y-63500000D03*
X114300000Y-60960000D03*
X116840000Y-63500000D03*
X116840000Y-60960000D03*
X119380000Y-63500000D03*
X119380000Y-60960000D03*
X121920000Y-63500000D03*
X121920000Y-60960000D03*
X124460000Y-63500000D03*
X124460000Y-60960000D03*
X127000000Y-63500000D03*
X127000000Y-60960000D03*
X129540000Y-63500000D03*
X129540000Y-60960000D03*
X132080000Y-63500000D03*
X132080000Y-60960000D03*
X134620000Y-63500000D03*
X134620000Y-60960000D03*
X137160000Y-63500000D03*
X137160000Y-60960000D03*
X139700000Y-63500000D03*
X139700000Y-60960000D03*
X142240000Y-63500000D03*
X142240000Y-60960000D03*
X144780000Y-63500000D03*
X144780000Y-60960000D03*
X147320000Y-63500000D03*
X147320000Y-60960000D03*
X149860000Y-63500000D03*
X149860000Y-60960000D03*
X152400000Y-63500000D03*
X152400000Y-60960000D03*
X154940000Y-63500000D03*
X154940000Y-60960000D03*
X157480000Y-63500000D03*
X157480000Y-60960000D03*
X160020000Y-63500000D03*
X160020000Y-60960000D03*
X162560000Y-63500000D03*
G36*
G01*
X161710000Y-60059200D02*
X163410000Y-60059200D01*
G75*
G02*
X163460800Y-60110000I0J-50800D01*
G01*
X163460800Y-61810000D01*
G75*
G02*
X163410000Y-61860800I-50800J0D01*
G01*
X161710000Y-61860800D01*
G75*
G02*
X161659200Y-61810000I0J50800D01*
G01*
X161659200Y-60110000D01*
G75*
G02*
X161710000Y-60059200I50800J0D01*
G01*
G37*
X162560000Y-134620000D03*
X160020000Y-134620000D03*
X162560000Y-132080000D03*
X160020000Y-132080000D03*
X162560000Y-129540000D03*
X160020000Y-129540000D03*
X162560000Y-127000000D03*
X160020000Y-127000000D03*
X162560000Y-124460000D03*
X160020000Y-124460000D03*
X162560000Y-121920000D03*
X160020000Y-121920000D03*
X162560000Y-119380000D03*
X160020000Y-119380000D03*
X162560000Y-116840000D03*
X160020000Y-116840000D03*
X162560000Y-114300000D03*
X160020000Y-114300000D03*
X162560000Y-111760000D03*
X160020000Y-111760000D03*
X162560000Y-109220000D03*
X160020000Y-109220000D03*
X162560000Y-106680000D03*
X160020000Y-106680000D03*
X162560000Y-104140000D03*
X160020000Y-104140000D03*
X162560000Y-101600000D03*
X160020000Y-101600000D03*
X162560000Y-99060000D03*
X160020000Y-99060000D03*
X162560000Y-96520000D03*
X160020000Y-96520000D03*
X162560000Y-93980000D03*
X160020000Y-93980000D03*
X162560000Y-91440000D03*
X160020000Y-91440000D03*
X162560000Y-88900000D03*
X160020000Y-88900000D03*
X162560000Y-86360000D03*
G36*
G01*
X159119200Y-87210000D02*
X159119200Y-85510000D01*
G75*
G02*
X159170000Y-85459200I50800J0D01*
G01*
X160870000Y-85459200D01*
G75*
G02*
X160920800Y-85510000I0J-50800D01*
G01*
X160920800Y-87210000D01*
G75*
G02*
X160870000Y-87260800I-50800J0D01*
G01*
X159170000Y-87260800D01*
G75*
G02*
X159119200Y-87210000I0J50800D01*
G01*
G37*
M02*
