G04 #@! TF.GenerationSoftware,KiCad,Pcbnew,(5.1.10-1-10_14)*
G04 #@! TF.CreationDate,2021-10-14T13:31:25-04:00*
G04 #@! TF.ProjectId,TR108 Mainboard,54523130-3820-44d6-9169-6e626f617264,1*
G04 #@! TF.SameCoordinates,Original*
G04 #@! TF.FileFunction,Profile,NP*
%FSLAX46Y46*%
G04 Gerber Fmt 4.6, Leading zero omitted, Abs format (unit mm)*
G04 Created by KiCad (PCBNEW (5.1.10-1-10_14)) date 2021-10-14 13:31:25*
%MOMM*%
%LPD*%
G01*
G04 APERTURE LIST*
G04 #@! TA.AperFunction,Profile*
%ADD10C,0.200000*%
G04 #@! TD*
G04 APERTURE END LIST*
D10*
X99774238Y-47855833D02*
X99774238Y-139855833D01*
X99774238Y-47855833D02*
G75*
G02*
X102774238Y-44855833I3000000J0D01*
G01*
X165774238Y-44855833D02*
X102774238Y-44855833D01*
X165774238Y-44855833D02*
G75*
G02*
X168774238Y-47855833I0J-3000000D01*
G01*
X168774238Y-139855833D02*
X168774238Y-47855833D01*
X168774238Y-139855833D02*
G75*
G02*
X165774238Y-142855833I-3000000J0D01*
G01*
X102774238Y-142855833D02*
X165774238Y-142855833D01*
X102774238Y-142855833D02*
G75*
G02*
X99774238Y-139855833I0J3000000D01*
G01*
X165236132Y-137542758D02*
X164912608Y-137500165D01*
X163830076Y-49748943D02*
X164028725Y-50007827D01*
X164287608Y-50206475D02*
X164589084Y-50331350D01*
X164589084Y-50331350D02*
X164912608Y-50373943D01*
X164589084Y-47916536D02*
X164287608Y-48041411D01*
X163705201Y-49447467D02*
X163830076Y-49748943D01*
X164028725Y-48240060D02*
X163830076Y-48498943D01*
X163830076Y-48498943D02*
X163705201Y-48800419D01*
X163662608Y-49123943D02*
X163705201Y-49447467D01*
X163705201Y-48800419D02*
X163662608Y-49123943D01*
X164912608Y-47873943D02*
X164589084Y-47916536D01*
X164287608Y-48041411D02*
X164028725Y-48240060D01*
X164912608Y-50373943D02*
X165236132Y-50331350D01*
X165236132Y-50331350D02*
X165537608Y-50206475D01*
X165537608Y-50206475D02*
X165796491Y-50007827D01*
X165796491Y-50007827D02*
X165995140Y-49748943D01*
X165995140Y-49748943D02*
X166120015Y-49447467D01*
X166120015Y-49447467D02*
X166162608Y-49123943D01*
X166162608Y-49123943D02*
X166120015Y-48800419D01*
X166120015Y-48800419D02*
X165995140Y-48498943D01*
X165995140Y-48498943D02*
X165796491Y-48240060D01*
X165796491Y-48240060D02*
X165537608Y-48041411D01*
X165537608Y-48041411D02*
X165236132Y-47916536D01*
X164028725Y-50007827D02*
X164287608Y-50206475D01*
X165236132Y-47916536D02*
X164912608Y-47873943D01*
X103205100Y-49748943D02*
X103403749Y-50007827D01*
X103662632Y-50206475D02*
X103964108Y-50331350D01*
X103964108Y-50331350D02*
X104287632Y-50373943D01*
X103964108Y-47916536D02*
X103662632Y-48041411D01*
X103080225Y-49447467D02*
X103205100Y-49748943D01*
X103403749Y-48240060D02*
X103205100Y-48498943D01*
X103205100Y-48498943D02*
X103080225Y-48800419D01*
X103037632Y-49123943D02*
X103080225Y-49447467D01*
X103080225Y-48800419D02*
X103037632Y-49123943D01*
X104287632Y-47873943D02*
X103964108Y-47916536D01*
X103205100Y-139375165D02*
X103403749Y-139634048D01*
X103662632Y-139832697D02*
X103964108Y-139957572D01*
X103964108Y-139957572D02*
X104287632Y-140000165D01*
X103964108Y-137542758D02*
X103662632Y-137667633D01*
X103080225Y-139073689D02*
X103205100Y-139375165D01*
X103403749Y-137866281D02*
X103205100Y-138125165D01*
X103205100Y-138125165D02*
X103080225Y-138426641D01*
X103037632Y-138750165D02*
X103080225Y-139073689D01*
X103080225Y-138426641D02*
X103037632Y-138750165D01*
X104287632Y-137500165D02*
X103964108Y-137542758D01*
X103662632Y-137667633D02*
X103403749Y-137866281D01*
X104287632Y-140000165D02*
X104611156Y-139957572D01*
X104611156Y-139957572D02*
X104912632Y-139832697D01*
X104912632Y-139832697D02*
X105171515Y-139634048D01*
X105171515Y-139634048D02*
X105370164Y-139375165D01*
X105370164Y-139375165D02*
X105495039Y-139073689D01*
X105495039Y-139073689D02*
X105537632Y-138750165D01*
X105537632Y-138750165D02*
X105495039Y-138426641D01*
X105495039Y-138426641D02*
X105370164Y-138125165D01*
X105370164Y-138125165D02*
X105171515Y-137866281D01*
X105171515Y-137866281D02*
X104912632Y-137667633D01*
X104912632Y-137667633D02*
X104611156Y-137542758D01*
X103403749Y-139634048D02*
X103662632Y-139832697D01*
X104611156Y-137542758D02*
X104287632Y-137500165D01*
X163830076Y-139375165D02*
X164028725Y-139634048D01*
X164287608Y-139832697D02*
X164589084Y-139957572D01*
X164589084Y-139957572D02*
X164912608Y-140000165D01*
X164589084Y-137542758D02*
X164287608Y-137667633D01*
X163705201Y-139073689D02*
X163830076Y-139375165D01*
X164028725Y-137866281D02*
X163830076Y-138125165D01*
X163830076Y-138125165D02*
X163705201Y-138426641D01*
X163662608Y-138750165D02*
X163705201Y-139073689D01*
X163705201Y-138426641D02*
X163662608Y-138750165D01*
X164912608Y-137500165D02*
X164589084Y-137542758D01*
X164287608Y-137667633D02*
X164028725Y-137866281D01*
X164912608Y-140000165D02*
X165236132Y-139957572D01*
X165236132Y-139957572D02*
X165537608Y-139832697D01*
X165537608Y-139832697D02*
X165796491Y-139634048D01*
X165796491Y-139634048D02*
X165995140Y-139375165D01*
X165995140Y-139375165D02*
X166120015Y-139073689D01*
X166120015Y-139073689D02*
X166162608Y-138750165D01*
X166162608Y-138750165D02*
X166120015Y-138426641D01*
X166120015Y-138426641D02*
X165995140Y-138125165D01*
X165995140Y-138125165D02*
X165796491Y-137866281D01*
X165796491Y-137866281D02*
X165537608Y-137667633D01*
X165537608Y-137667633D02*
X165236132Y-137542758D01*
X164028725Y-139634048D02*
X164287608Y-139832697D01*
X103662632Y-48041411D02*
X103403749Y-48240060D01*
X104287632Y-50373943D02*
X104611156Y-50331350D01*
X104611156Y-50331350D02*
X104912632Y-50206475D01*
X104912632Y-50206475D02*
X105171515Y-50007827D01*
X105171515Y-50007827D02*
X105370164Y-49748943D01*
X105370164Y-49748943D02*
X105495039Y-49447467D01*
X105495039Y-49447467D02*
X105537632Y-49123943D01*
X105537632Y-49123943D02*
X105495039Y-48800419D01*
X105495039Y-48800419D02*
X105370164Y-48498943D01*
X105370164Y-48498943D02*
X105171515Y-48240060D01*
X105171515Y-48240060D02*
X104912632Y-48041411D01*
X104912632Y-48041411D02*
X104611156Y-47916536D01*
X103403749Y-50007827D02*
X103662632Y-50206475D01*
X104611156Y-47916536D02*
X104287632Y-47873943D01*
M02*
