G04 #@! TF.GenerationSoftware,KiCad,Pcbnew,(5.1.10-1-10_14)*
G04 #@! TF.CreationDate,2021-10-14T13:31:25-04:00*
G04 #@! TF.ProjectId,TR108 Mainboard,54523130-3820-44d6-9169-6e626f617264,1*
G04 #@! TF.SameCoordinates,Original*
G04 #@! TF.FileFunction,Legend,Top*
G04 #@! TF.FilePolarity,Positive*
%FSLAX46Y46*%
G04 Gerber Fmt 4.6, Leading zero omitted, Abs format (unit mm)*
G04 Created by KiCad (PCBNEW (5.1.10-1-10_14)) date 2021-10-14 13:31:25*
%MOMM*%
%LPD*%
G01*
G04 APERTURE LIST*
%ADD10C,0.125000*%
%ADD11C,0.200000*%
%ADD12C,0.300000*%
%ADD13C,0.010000*%
%ADD14C,0.120000*%
%ADD15C,0.150000*%
%ADD16O,1.801600X1.801600*%
%ADD17C,0.100000*%
G04 APERTURE END LIST*
D10*
X130323700Y-47116666D02*
X130323700Y-46416666D01*
X130623700Y-46483333D02*
X130657033Y-46450000D01*
X130723700Y-46416666D01*
X130890366Y-46416666D01*
X130957033Y-46450000D01*
X130990366Y-46483333D01*
X131023700Y-46550000D01*
X131023700Y-46616666D01*
X130990366Y-46716666D01*
X130590366Y-47116666D01*
X131023700Y-47116666D01*
X131723700Y-47050000D02*
X131690366Y-47083333D01*
X131590366Y-47116666D01*
X131523700Y-47116666D01*
X131423700Y-47083333D01*
X131357033Y-47016666D01*
X131323700Y-46950000D01*
X131290366Y-46816666D01*
X131290366Y-46716666D01*
X131323700Y-46583333D01*
X131357033Y-46516666D01*
X131423700Y-46450000D01*
X131523700Y-46416666D01*
X131590366Y-46416666D01*
X131690366Y-46450000D01*
X131723700Y-46483333D01*
X132557033Y-46750000D02*
X132790366Y-46750000D01*
X132890366Y-47116666D02*
X132557033Y-47116666D01*
X132557033Y-46416666D01*
X132890366Y-46416666D01*
X133123700Y-46416666D02*
X133590366Y-47116666D01*
X133590366Y-46416666D02*
X133123700Y-47116666D01*
X133857033Y-47116666D02*
X133857033Y-46416666D01*
X134123700Y-46416666D01*
X134190366Y-46450000D01*
X134223700Y-46483333D01*
X134257033Y-46550000D01*
X134257033Y-46650000D01*
X134223700Y-46716666D01*
X134190366Y-46750000D01*
X134123700Y-46783333D01*
X133857033Y-46783333D01*
X134523700Y-46916666D02*
X134857033Y-46916666D01*
X134457033Y-47116666D02*
X134690366Y-46416666D01*
X134923700Y-47116666D01*
X135157033Y-47116666D02*
X135157033Y-46416666D01*
X135557033Y-47116666D01*
X135557033Y-46416666D01*
X135857033Y-47083333D02*
X135957033Y-47116666D01*
X136123700Y-47116666D01*
X136190366Y-47083333D01*
X136223700Y-47050000D01*
X136257033Y-46983333D01*
X136257033Y-46916666D01*
X136223700Y-46850000D01*
X136190366Y-46816666D01*
X136123700Y-46783333D01*
X135990366Y-46750000D01*
X135923700Y-46716666D01*
X135890366Y-46683333D01*
X135857033Y-46616666D01*
X135857033Y-46550000D01*
X135890366Y-46483333D01*
X135923700Y-46450000D01*
X135990366Y-46416666D01*
X136157033Y-46416666D01*
X136257033Y-46450000D01*
X136557033Y-47116666D02*
X136557033Y-46416666D01*
X137023700Y-46416666D02*
X137157033Y-46416666D01*
X137223700Y-46450000D01*
X137290366Y-46516666D01*
X137323700Y-46650000D01*
X137323700Y-46883333D01*
X137290366Y-47016666D01*
X137223700Y-47083333D01*
X137157033Y-47116666D01*
X137023700Y-47116666D01*
X136957033Y-47083333D01*
X136890366Y-47016666D01*
X136857033Y-46883333D01*
X136857033Y-46650000D01*
X136890366Y-46516666D01*
X136957033Y-46450000D01*
X137023700Y-46416666D01*
X137623700Y-47116666D02*
X137623700Y-46416666D01*
X138023700Y-47116666D01*
X138023700Y-46416666D01*
X130197569Y-50876488D02*
X130173759Y-50947916D01*
X130173759Y-51066964D01*
X130197569Y-51114583D01*
X130221378Y-51138392D01*
X130268997Y-51162202D01*
X130316616Y-51162202D01*
X130364235Y-51138392D01*
X130388045Y-51114583D01*
X130411854Y-51066964D01*
X130435664Y-50971726D01*
X130459473Y-50924107D01*
X130483283Y-50900297D01*
X130530902Y-50876488D01*
X130578521Y-50876488D01*
X130626140Y-50900297D01*
X130649950Y-50924107D01*
X130673759Y-50971726D01*
X130673759Y-51090773D01*
X130649950Y-51162202D01*
X130221378Y-51662202D02*
X130197569Y-51638392D01*
X130173759Y-51566964D01*
X130173759Y-51519345D01*
X130197569Y-51447916D01*
X130245188Y-51400297D01*
X130292807Y-51376488D01*
X130388045Y-51352678D01*
X130459473Y-51352678D01*
X130554711Y-51376488D01*
X130602330Y-51400297D01*
X130649950Y-51447916D01*
X130673759Y-51519345D01*
X130673759Y-51566964D01*
X130649950Y-51638392D01*
X130626140Y-51662202D01*
X130173759Y-52114583D02*
X130173759Y-51876488D01*
X130673759Y-51876488D01*
X133189950Y-51162202D02*
X133213759Y-51114583D01*
X133213759Y-51043154D01*
X133189950Y-50971726D01*
X133142330Y-50924107D01*
X133094711Y-50900297D01*
X132999473Y-50876488D01*
X132928045Y-50876488D01*
X132832807Y-50900297D01*
X132785188Y-50924107D01*
X132737569Y-50971726D01*
X132713759Y-51043154D01*
X132713759Y-51090773D01*
X132737569Y-51162202D01*
X132761378Y-51186011D01*
X132928045Y-51186011D01*
X132928045Y-51090773D01*
X132713759Y-51400297D02*
X133213759Y-51400297D01*
X132713759Y-51686011D01*
X133213759Y-51686011D01*
X132713759Y-51924107D02*
X133213759Y-51924107D01*
X133213759Y-52043154D01*
X133189950Y-52114583D01*
X133142330Y-52162202D01*
X133094711Y-52186011D01*
X132999473Y-52209821D01*
X132928045Y-52209821D01*
X132832807Y-52186011D01*
X132785188Y-52162202D01*
X132737569Y-52114583D01*
X132713759Y-52043154D01*
X132713759Y-51924107D01*
X135753759Y-50852678D02*
X135753759Y-51162202D01*
X135563283Y-50995535D01*
X135563283Y-51066964D01*
X135539473Y-51114583D01*
X135515664Y-51138392D01*
X135468045Y-51162202D01*
X135348997Y-51162202D01*
X135301378Y-51138392D01*
X135277569Y-51114583D01*
X135253759Y-51066964D01*
X135253759Y-50924107D01*
X135277569Y-50876488D01*
X135301378Y-50852678D01*
X135587092Y-51328869D02*
X135253759Y-51447916D01*
X135587092Y-51566964D01*
X135753759Y-51709821D02*
X135753759Y-52019345D01*
X135563283Y-51852678D01*
X135563283Y-51924107D01*
X135539473Y-51971726D01*
X135515664Y-51995535D01*
X135468045Y-52019345D01*
X135348997Y-52019345D01*
X135301378Y-51995535D01*
X135277569Y-51971726D01*
X135253759Y-51924107D01*
X135253759Y-51781250D01*
X135277569Y-51733630D01*
X135301378Y-51709821D01*
X137817569Y-50876488D02*
X137793759Y-50947916D01*
X137793759Y-51066964D01*
X137817569Y-51114583D01*
X137841378Y-51138392D01*
X137888997Y-51162202D01*
X137936616Y-51162202D01*
X137984235Y-51138392D01*
X138008045Y-51114583D01*
X138031854Y-51066964D01*
X138055664Y-50971726D01*
X138079473Y-50924107D01*
X138103283Y-50900297D01*
X138150902Y-50876488D01*
X138198521Y-50876488D01*
X138246140Y-50900297D01*
X138269950Y-50924107D01*
X138293759Y-50971726D01*
X138293759Y-51090773D01*
X138269950Y-51162202D01*
X137793759Y-51376488D02*
X138293759Y-51376488D01*
X138293759Y-51495535D01*
X138269950Y-51566964D01*
X138222330Y-51614583D01*
X138174711Y-51638392D01*
X138079473Y-51662202D01*
X138008045Y-51662202D01*
X137912807Y-51638392D01*
X137865188Y-51614583D01*
X137817569Y-51566964D01*
X137793759Y-51495535D01*
X137793759Y-51376488D01*
X137936616Y-51852678D02*
X137936616Y-52090773D01*
X137793759Y-51805059D02*
X138293759Y-51971726D01*
X137793759Y-52138392D01*
D11*
X123569476Y-141635714D02*
X123531380Y-141673809D01*
X123417095Y-141711904D01*
X123340904Y-141711904D01*
X123226618Y-141673809D01*
X123150428Y-141597619D01*
X123112333Y-141521428D01*
X123074238Y-141369047D01*
X123074238Y-141254761D01*
X123112333Y-141102380D01*
X123150428Y-141026190D01*
X123226618Y-140950000D01*
X123340904Y-140911904D01*
X123417095Y-140911904D01*
X123531380Y-140950000D01*
X123569476Y-140988095D01*
X124178999Y-141292857D02*
X124293285Y-141330952D01*
X124331380Y-141369047D01*
X124369476Y-141445238D01*
X124369476Y-141559523D01*
X124331380Y-141635714D01*
X124293285Y-141673809D01*
X124217095Y-141711904D01*
X123912333Y-141711904D01*
X123912333Y-140911904D01*
X124178999Y-140911904D01*
X124255190Y-140950000D01*
X124293285Y-140988095D01*
X124331380Y-141064285D01*
X124331380Y-141140476D01*
X124293285Y-141216666D01*
X124255190Y-141254761D01*
X124178999Y-141292857D01*
X123912333Y-141292857D01*
X125283761Y-140988095D02*
X125321857Y-140950000D01*
X125398047Y-140911904D01*
X125588523Y-140911904D01*
X125664714Y-140950000D01*
X125702809Y-140988095D01*
X125740904Y-141064285D01*
X125740904Y-141140476D01*
X125702809Y-141254761D01*
X125245666Y-141711904D01*
X125740904Y-141711904D01*
X126236142Y-140911904D02*
X126312333Y-140911904D01*
X126388523Y-140950000D01*
X126426618Y-140988095D01*
X126464714Y-141064285D01*
X126502809Y-141216666D01*
X126502809Y-141407142D01*
X126464714Y-141559523D01*
X126426618Y-141635714D01*
X126388523Y-141673809D01*
X126312333Y-141711904D01*
X126236142Y-141711904D01*
X126159952Y-141673809D01*
X126121857Y-141635714D01*
X126083761Y-141559523D01*
X126045666Y-141407142D01*
X126045666Y-141216666D01*
X126083761Y-141064285D01*
X126121857Y-140988095D01*
X126159952Y-140950000D01*
X126236142Y-140911904D01*
X126807571Y-140988095D02*
X126845666Y-140950000D01*
X126921857Y-140911904D01*
X127112333Y-140911904D01*
X127188523Y-140950000D01*
X127226618Y-140988095D01*
X127264714Y-141064285D01*
X127264714Y-141140476D01*
X127226618Y-141254761D01*
X126769476Y-141711904D01*
X127264714Y-141711904D01*
X128026618Y-141711904D02*
X127569476Y-141711904D01*
X127798047Y-141711904D02*
X127798047Y-140911904D01*
X127721857Y-141026190D01*
X127645666Y-141102380D01*
X127569476Y-141140476D01*
X128978999Y-141407142D02*
X129588523Y-141407142D01*
X130959952Y-141711904D02*
X130578999Y-141711904D01*
X130578999Y-140911904D01*
X131226618Y-141711904D02*
X131226618Y-140911904D01*
X131493285Y-140911904D02*
X131759952Y-141711904D01*
X132026618Y-140911904D01*
X132293285Y-141292857D02*
X132559952Y-141292857D01*
X132674238Y-141711904D02*
X132293285Y-141711904D01*
X132293285Y-140911904D01*
X132674238Y-140911904D01*
X134007571Y-141711904D02*
X133626618Y-141711904D01*
X133626618Y-140911904D01*
X134426618Y-140911904D02*
X134578999Y-140911904D01*
X134655190Y-140950000D01*
X134731380Y-141026190D01*
X134769476Y-141178571D01*
X134769476Y-141445238D01*
X134731380Y-141597619D01*
X134655190Y-141673809D01*
X134578999Y-141711904D01*
X134426618Y-141711904D01*
X134350428Y-141673809D01*
X134274238Y-141597619D01*
X134236142Y-141445238D01*
X134236142Y-141178571D01*
X134274238Y-141026190D01*
X134350428Y-140950000D01*
X134426618Y-140911904D01*
X135112333Y-141711904D02*
X135112333Y-140911904D01*
X135569476Y-141711904D01*
X135569476Y-140911904D01*
X136369476Y-140950000D02*
X136293285Y-140911904D01*
X136178999Y-140911904D01*
X136064714Y-140950000D01*
X135988523Y-141026190D01*
X135950428Y-141102380D01*
X135912333Y-141254761D01*
X135912333Y-141369047D01*
X135950428Y-141521428D01*
X135988523Y-141597619D01*
X136064714Y-141673809D01*
X136178999Y-141711904D01*
X136255190Y-141711904D01*
X136369476Y-141673809D01*
X136407571Y-141635714D01*
X136407571Y-141369047D01*
X136255190Y-141369047D01*
X137321857Y-141483333D02*
X137702809Y-141483333D01*
X137245666Y-141711904D02*
X137512333Y-140911904D01*
X137778999Y-141711904D01*
X138045666Y-141711904D02*
X138045666Y-140911904D01*
X138502809Y-141711904D01*
X138502809Y-140911904D01*
X138883761Y-141711904D02*
X138883761Y-140911904D01*
X139074238Y-140911904D01*
X139188523Y-140950000D01*
X139264714Y-141026190D01*
X139302809Y-141102380D01*
X139340904Y-141254761D01*
X139340904Y-141369047D01*
X139302809Y-141521428D01*
X139264714Y-141597619D01*
X139188523Y-141673809D01*
X139074238Y-141711904D01*
X138883761Y-141711904D01*
X140293285Y-141711904D02*
X140293285Y-140911904D01*
X140598047Y-140911904D01*
X140674238Y-140950000D01*
X140712333Y-140988095D01*
X140750428Y-141064285D01*
X140750428Y-141178571D01*
X140712333Y-141254761D01*
X140674238Y-141292857D01*
X140598047Y-141330952D01*
X140293285Y-141330952D01*
X141550428Y-141711904D02*
X141283761Y-141330952D01*
X141093285Y-141711904D02*
X141093285Y-140911904D01*
X141398047Y-140911904D01*
X141474238Y-140950000D01*
X141512333Y-140988095D01*
X141550428Y-141064285D01*
X141550428Y-141178571D01*
X141512333Y-141254761D01*
X141474238Y-141292857D01*
X141398047Y-141330952D01*
X141093285Y-141330952D01*
X142045666Y-140911904D02*
X142198047Y-140911904D01*
X142274238Y-140950000D01*
X142350428Y-141026190D01*
X142388523Y-141178571D01*
X142388523Y-141445238D01*
X142350428Y-141597619D01*
X142274238Y-141673809D01*
X142198047Y-141711904D01*
X142045666Y-141711904D01*
X141969476Y-141673809D01*
X141893285Y-141597619D01*
X141855190Y-141445238D01*
X141855190Y-141178571D01*
X141893285Y-141026190D01*
X141969476Y-140950000D01*
X142045666Y-140911904D01*
X142693285Y-141673809D02*
X142807571Y-141711904D01*
X142998047Y-141711904D01*
X143074238Y-141673809D01*
X143112333Y-141635714D01*
X143150428Y-141559523D01*
X143150428Y-141483333D01*
X143112333Y-141407142D01*
X143074238Y-141369047D01*
X142998047Y-141330952D01*
X142845666Y-141292857D01*
X142769476Y-141254761D01*
X142731380Y-141216666D01*
X142693285Y-141140476D01*
X142693285Y-141064285D01*
X142731380Y-140988095D01*
X142769476Y-140950000D01*
X142845666Y-140911904D01*
X143036142Y-140911904D01*
X143150428Y-140950000D01*
X143493285Y-141711904D02*
X143493285Y-140911904D01*
X143798047Y-140911904D01*
X143874238Y-140950000D01*
X143912333Y-140988095D01*
X143950428Y-141064285D01*
X143950428Y-141178571D01*
X143912333Y-141254761D01*
X143874238Y-141292857D01*
X143798047Y-141330952D01*
X143493285Y-141330952D01*
X144293285Y-141292857D02*
X144559952Y-141292857D01*
X144674238Y-141711904D02*
X144293285Y-141711904D01*
X144293285Y-140911904D01*
X144674238Y-140911904D01*
X145474238Y-141711904D02*
X145207571Y-141330952D01*
X145017095Y-141711904D02*
X145017095Y-140911904D01*
X145321857Y-140911904D01*
X145398047Y-140950000D01*
X145436142Y-140988095D01*
X145474238Y-141064285D01*
X145474238Y-141178571D01*
X145436142Y-141254761D01*
X145398047Y-141292857D01*
X145321857Y-141330952D01*
X145017095Y-141330952D01*
D12*
X124802809Y-133307142D02*
X124988523Y-133369047D01*
X125050428Y-133430952D01*
X125112333Y-133554761D01*
X125112333Y-133740476D01*
X125050428Y-133864285D01*
X124988523Y-133926190D01*
X124864714Y-133988095D01*
X124369476Y-133988095D01*
X124369476Y-132688095D01*
X124802809Y-132688095D01*
X124926618Y-132750000D01*
X124988523Y-132811904D01*
X125050428Y-132935714D01*
X125050428Y-133059523D01*
X124988523Y-133183333D01*
X124926618Y-133245238D01*
X124802809Y-133307142D01*
X124369476Y-133307142D01*
X125607571Y-133616666D02*
X126226618Y-133616666D01*
X125483761Y-133988095D02*
X125917095Y-132688095D01*
X126350428Y-133988095D01*
X127526618Y-133864285D02*
X127464714Y-133926190D01*
X127278999Y-133988095D01*
X127155190Y-133988095D01*
X126969476Y-133926190D01*
X126845666Y-133802380D01*
X126783761Y-133678571D01*
X126721857Y-133430952D01*
X126721857Y-133245238D01*
X126783761Y-132997619D01*
X126845666Y-132873809D01*
X126969476Y-132750000D01*
X127155190Y-132688095D01*
X127278999Y-132688095D01*
X127464714Y-132750000D01*
X127526618Y-132811904D01*
X128083761Y-133988095D02*
X128083761Y-132688095D01*
X128826618Y-133988095D02*
X128269476Y-133245238D01*
X128826618Y-132688095D02*
X128083761Y-133430952D01*
X129383761Y-133988095D02*
X129383761Y-132688095D01*
X129878999Y-132688095D01*
X130002809Y-132750000D01*
X130064714Y-132811904D01*
X130126618Y-132935714D01*
X130126618Y-133121428D01*
X130064714Y-133245238D01*
X130002809Y-133307142D01*
X129878999Y-133369047D01*
X129383761Y-133369047D01*
X131302809Y-133988095D02*
X130683761Y-133988095D01*
X130683761Y-132688095D01*
X131674238Y-133616666D02*
X132293285Y-133616666D01*
X131550428Y-133988095D02*
X131983761Y-132688095D01*
X132417095Y-133988095D01*
X132850428Y-133988095D02*
X132850428Y-132688095D01*
X133593285Y-133988095D01*
X133593285Y-132688095D01*
X134212333Y-133307142D02*
X134645666Y-133307142D01*
X134831380Y-133988095D02*
X134212333Y-133988095D01*
X134212333Y-132688095D01*
X134831380Y-132688095D01*
X136378999Y-133492857D02*
X137369476Y-133492857D01*
X139721857Y-133988095D02*
X139288523Y-133369047D01*
X138978999Y-133988095D02*
X138978999Y-132688095D01*
X139474238Y-132688095D01*
X139598047Y-132750000D01*
X139659952Y-132811904D01*
X139721857Y-132935714D01*
X139721857Y-133121428D01*
X139659952Y-133245238D01*
X139598047Y-133307142D01*
X139474238Y-133369047D01*
X138978999Y-133369047D01*
X140278999Y-133307142D02*
X140712333Y-133307142D01*
X140898047Y-133988095D02*
X140278999Y-133988095D01*
X140278999Y-132688095D01*
X140898047Y-132688095D01*
X141269476Y-132688095D02*
X141702809Y-133988095D01*
X142136142Y-132688095D01*
X144240904Y-133988095D02*
X143498047Y-133988095D01*
X143869476Y-133988095D02*
X143869476Y-132688095D01*
X143745666Y-132873809D01*
X143621857Y-132997619D01*
X143498047Y-133059523D01*
D10*
X110769773Y-73175001D02*
X110803106Y-73075001D01*
X110803106Y-72908334D01*
X110769773Y-72841667D01*
X110736440Y-72808334D01*
X110669773Y-72775001D01*
X110603106Y-72775001D01*
X110536440Y-72808334D01*
X110503106Y-72841667D01*
X110469773Y-72908334D01*
X110436440Y-73041667D01*
X110403106Y-73108334D01*
X110369773Y-73141667D01*
X110303106Y-73175001D01*
X110236440Y-73175001D01*
X110169773Y-73141667D01*
X110136440Y-73108334D01*
X110103106Y-73041667D01*
X110103106Y-72875001D01*
X110136440Y-72775001D01*
X110103106Y-72575001D02*
X110103106Y-72175001D01*
X110803106Y-72375001D02*
X110103106Y-72375001D01*
X110103106Y-72008334D02*
X110103106Y-71541667D01*
X110803106Y-71841667D01*
X110103106Y-71341667D02*
X110103106Y-70875001D01*
X110803106Y-71175001D01*
X110103106Y-70675001D02*
X110103106Y-70241667D01*
X110369773Y-70475001D01*
X110369773Y-70375001D01*
X110403106Y-70308334D01*
X110436440Y-70275001D01*
X110503106Y-70241667D01*
X110669773Y-70241667D01*
X110736440Y-70275001D01*
X110769773Y-70308334D01*
X110803106Y-70375001D01*
X110803106Y-70575001D01*
X110769773Y-70641667D01*
X110736440Y-70675001D01*
X110103106Y-69608334D02*
X110103106Y-69941667D01*
X110436440Y-69975001D01*
X110403106Y-69941667D01*
X110369773Y-69875001D01*
X110369773Y-69708334D01*
X110403106Y-69641667D01*
X110436440Y-69608334D01*
X110503106Y-69575001D01*
X110669773Y-69575001D01*
X110736440Y-69608334D01*
X110769773Y-69641667D01*
X110803106Y-69708334D01*
X110803106Y-69875001D01*
X110769773Y-69941667D01*
X110736440Y-69975001D01*
X110769773Y-68775001D02*
X110803106Y-68675001D01*
X110803106Y-68508334D01*
X110769773Y-68441667D01*
X110736440Y-68408334D01*
X110669773Y-68375001D01*
X110603106Y-68375001D01*
X110536440Y-68408334D01*
X110503106Y-68441667D01*
X110469773Y-68508334D01*
X110436440Y-68641667D01*
X110403106Y-68708334D01*
X110369773Y-68741667D01*
X110303106Y-68775001D01*
X110236440Y-68775001D01*
X110169773Y-68741667D01*
X110136440Y-68708334D01*
X110103106Y-68641667D01*
X110103106Y-68475001D01*
X110136440Y-68375001D01*
X110736440Y-67675001D02*
X110769773Y-67708334D01*
X110803106Y-67808334D01*
X110803106Y-67875001D01*
X110769773Y-67975001D01*
X110703106Y-68041667D01*
X110636440Y-68075001D01*
X110503106Y-68108334D01*
X110403106Y-68108334D01*
X110269773Y-68075001D01*
X110203106Y-68041667D01*
X110136440Y-67975001D01*
X110103106Y-67875001D01*
X110103106Y-67808334D01*
X110136440Y-67708334D01*
X110169773Y-67675001D01*
X110803106Y-66975001D02*
X110469773Y-67208334D01*
X110803106Y-67375001D02*
X110103106Y-67375001D01*
X110103106Y-67108334D01*
X110136440Y-67041667D01*
X110169773Y-67008334D01*
X110236440Y-66975001D01*
X110336440Y-66975001D01*
X110403106Y-67008334D01*
X110436440Y-67041667D01*
X110469773Y-67108334D01*
X110469773Y-67375001D01*
X110436440Y-66675001D02*
X110436440Y-66441667D01*
X110803106Y-66341667D02*
X110803106Y-66675001D01*
X110103106Y-66675001D01*
X110103106Y-66341667D01*
X110436440Y-66041667D02*
X110436440Y-65808334D01*
X110803106Y-65708334D02*
X110803106Y-66041667D01*
X110103106Y-66041667D01*
X110103106Y-65708334D01*
X110803106Y-65408334D02*
X110103106Y-65408334D01*
X110803106Y-65008334D01*
X110103106Y-65008334D01*
X110769773Y-96775001D02*
X110803106Y-96675001D01*
X110803106Y-96508334D01*
X110769773Y-96441667D01*
X110736440Y-96408334D01*
X110669773Y-96375001D01*
X110603106Y-96375001D01*
X110536440Y-96408334D01*
X110503106Y-96441667D01*
X110469773Y-96508334D01*
X110436440Y-96641667D01*
X110403106Y-96708334D01*
X110369773Y-96741667D01*
X110303106Y-96775001D01*
X110236440Y-96775001D01*
X110169773Y-96741667D01*
X110136440Y-96708334D01*
X110103106Y-96641667D01*
X110103106Y-96475001D01*
X110136440Y-96375001D01*
X110736440Y-95675001D02*
X110769773Y-95708334D01*
X110803106Y-95808334D01*
X110803106Y-95875001D01*
X110769773Y-95975001D01*
X110703106Y-96041667D01*
X110636440Y-96075001D01*
X110503106Y-96108334D01*
X110403106Y-96108334D01*
X110269773Y-96075001D01*
X110203106Y-96041667D01*
X110136440Y-95975001D01*
X110103106Y-95875001D01*
X110103106Y-95808334D01*
X110136440Y-95708334D01*
X110169773Y-95675001D01*
X110803106Y-94975001D02*
X110469773Y-95208334D01*
X110803106Y-95375001D02*
X110103106Y-95375001D01*
X110103106Y-95108334D01*
X110136440Y-95041667D01*
X110169773Y-95008334D01*
X110236440Y-94975001D01*
X110336440Y-94975001D01*
X110403106Y-95008334D01*
X110436440Y-95041667D01*
X110469773Y-95108334D01*
X110469773Y-95375001D01*
X110436440Y-94675001D02*
X110436440Y-94441667D01*
X110803106Y-94341667D02*
X110803106Y-94675001D01*
X110103106Y-94675001D01*
X110103106Y-94341667D01*
X110436440Y-94041667D02*
X110436440Y-93808334D01*
X110803106Y-93708334D02*
X110803106Y-94041667D01*
X110103106Y-94041667D01*
X110103106Y-93708334D01*
X110803106Y-93408334D02*
X110103106Y-93408334D01*
X110803106Y-93008334D01*
X110103106Y-93008334D01*
X110803106Y-92141667D02*
X110103106Y-92141667D01*
X110603106Y-91908334D01*
X110103106Y-91675001D01*
X110803106Y-91675001D01*
X110103106Y-91208334D02*
X110103106Y-91075001D01*
X110136440Y-91008334D01*
X110203106Y-90941667D01*
X110336440Y-90908334D01*
X110569773Y-90908334D01*
X110703106Y-90941667D01*
X110769773Y-91008334D01*
X110803106Y-91075001D01*
X110803106Y-91208334D01*
X110769773Y-91275001D01*
X110703106Y-91341667D01*
X110569773Y-91375001D01*
X110336440Y-91375001D01*
X110203106Y-91341667D01*
X110136440Y-91275001D01*
X110103106Y-91208334D01*
X110803106Y-90608334D02*
X110103106Y-90608334D01*
X110103106Y-90441667D01*
X110136440Y-90341667D01*
X110203106Y-90275001D01*
X110269773Y-90241667D01*
X110403106Y-90208334D01*
X110503106Y-90208334D01*
X110636440Y-90241667D01*
X110703106Y-90275001D01*
X110769773Y-90341667D01*
X110803106Y-90441667D01*
X110803106Y-90608334D01*
X110103106Y-89908334D02*
X110669773Y-89908334D01*
X110736440Y-89875001D01*
X110769773Y-89841667D01*
X110803106Y-89775001D01*
X110803106Y-89641667D01*
X110769773Y-89575001D01*
X110736440Y-89541667D01*
X110669773Y-89508334D01*
X110103106Y-89508334D01*
X110803106Y-88841667D02*
X110803106Y-89175001D01*
X110103106Y-89175001D01*
X110436440Y-88608334D02*
X110436440Y-88375001D01*
X110803106Y-88275001D02*
X110803106Y-88608334D01*
X110103106Y-88608334D01*
X110103106Y-88275001D01*
X110803106Y-116316666D02*
X110103106Y-116316666D01*
X110103106Y-116050000D01*
X110136440Y-115983333D01*
X110169773Y-115950000D01*
X110236440Y-115916666D01*
X110336440Y-115916666D01*
X110403106Y-115950000D01*
X110436440Y-115983333D01*
X110469773Y-116050000D01*
X110469773Y-116316666D01*
X110103106Y-115483333D02*
X110103106Y-115350000D01*
X110136440Y-115283333D01*
X110203106Y-115216666D01*
X110336440Y-115183333D01*
X110569773Y-115183333D01*
X110703106Y-115216666D01*
X110769773Y-115283333D01*
X110803106Y-115350000D01*
X110803106Y-115483333D01*
X110769773Y-115550000D01*
X110703106Y-115616666D01*
X110569773Y-115650000D01*
X110336440Y-115650000D01*
X110203106Y-115616666D01*
X110136440Y-115550000D01*
X110103106Y-115483333D01*
X110103106Y-114950000D02*
X110803106Y-114783333D01*
X110303106Y-114650000D01*
X110803106Y-114516666D01*
X110103106Y-114350000D01*
X110436440Y-114083333D02*
X110436440Y-113850000D01*
X110803106Y-113750000D02*
X110803106Y-114083333D01*
X110103106Y-114083333D01*
X110103106Y-113750000D01*
X110803106Y-113050000D02*
X110469773Y-113283333D01*
X110803106Y-113450000D02*
X110103106Y-113450000D01*
X110103106Y-113183333D01*
X110136440Y-113116666D01*
X110169773Y-113083333D01*
X110236440Y-113050000D01*
X110336440Y-113050000D01*
X110403106Y-113083333D01*
X110436440Y-113116666D01*
X110469773Y-113183333D01*
X110469773Y-113450000D01*
X110803106Y-112216666D02*
X110103106Y-112216666D01*
X110803106Y-111883333D02*
X110103106Y-111883333D01*
X110803106Y-111483333D01*
X110103106Y-111483333D01*
X110103106Y-111250000D02*
X110103106Y-110850000D01*
X110803106Y-111050000D02*
X110103106Y-111050000D01*
X110436440Y-110616666D02*
X110436440Y-110383333D01*
X110803106Y-110283333D02*
X110803106Y-110616666D01*
X110103106Y-110616666D01*
X110103106Y-110283333D01*
X110803106Y-109583333D02*
X110469773Y-109816666D01*
X110803106Y-109983333D02*
X110103106Y-109983333D01*
X110103106Y-109716666D01*
X110136440Y-109650000D01*
X110169773Y-109616666D01*
X110236440Y-109583333D01*
X110336440Y-109583333D01*
X110403106Y-109616666D01*
X110436440Y-109650000D01*
X110469773Y-109716666D01*
X110469773Y-109983333D01*
X110803106Y-108950000D02*
X110803106Y-109283333D01*
X110103106Y-109283333D01*
X110803106Y-108716666D02*
X110103106Y-108716666D01*
X110803106Y-108383333D02*
X110103106Y-108383333D01*
X110803106Y-107983333D01*
X110103106Y-107983333D01*
X110803106Y-107650000D02*
X110103106Y-107650000D01*
X110803106Y-107250000D02*
X110403106Y-107550000D01*
X110103106Y-107250000D02*
X110503106Y-107650000D01*
X110803106Y-129176300D02*
X110103106Y-129176300D01*
X110169773Y-128876300D02*
X110136440Y-128842966D01*
X110103106Y-128776300D01*
X110103106Y-128609633D01*
X110136440Y-128542966D01*
X110169773Y-128509633D01*
X110236440Y-128476300D01*
X110303106Y-128476300D01*
X110403106Y-128509633D01*
X110803106Y-128909633D01*
X110803106Y-128476300D01*
X110736440Y-127776300D02*
X110769773Y-127809633D01*
X110803106Y-127909633D01*
X110803106Y-127976300D01*
X110769773Y-128076300D01*
X110703106Y-128142966D01*
X110636440Y-128176300D01*
X110503106Y-128209633D01*
X110403106Y-128209633D01*
X110269773Y-128176300D01*
X110203106Y-128142966D01*
X110136440Y-128076300D01*
X110103106Y-127976300D01*
X110103106Y-127909633D01*
X110136440Y-127809633D01*
X110169773Y-127776300D01*
X110436440Y-126942966D02*
X110436440Y-126709633D01*
X110803106Y-126609633D02*
X110803106Y-126942966D01*
X110103106Y-126942966D01*
X110103106Y-126609633D01*
X110103106Y-126376300D02*
X110803106Y-125909633D01*
X110103106Y-125909633D02*
X110803106Y-126376300D01*
X110803106Y-125642966D02*
X110103106Y-125642966D01*
X110103106Y-125376300D01*
X110136440Y-125309633D01*
X110169773Y-125276300D01*
X110236440Y-125242966D01*
X110336440Y-125242966D01*
X110403106Y-125276300D01*
X110436440Y-125309633D01*
X110469773Y-125376300D01*
X110469773Y-125642966D01*
X110603106Y-124976300D02*
X110603106Y-124642966D01*
X110803106Y-125042966D02*
X110103106Y-124809633D01*
X110803106Y-124576300D01*
X110803106Y-124342966D02*
X110103106Y-124342966D01*
X110803106Y-123942966D01*
X110103106Y-123942966D01*
X110769773Y-123642966D02*
X110803106Y-123542966D01*
X110803106Y-123376300D01*
X110769773Y-123309633D01*
X110736440Y-123276300D01*
X110669773Y-123242966D01*
X110603106Y-123242966D01*
X110536440Y-123276300D01*
X110503106Y-123309633D01*
X110469773Y-123376300D01*
X110436440Y-123509633D01*
X110403106Y-123576300D01*
X110369773Y-123609633D01*
X110303106Y-123642966D01*
X110236440Y-123642966D01*
X110169773Y-123609633D01*
X110136440Y-123576300D01*
X110103106Y-123509633D01*
X110103106Y-123342966D01*
X110136440Y-123242966D01*
X110803106Y-122942966D02*
X110103106Y-122942966D01*
X110103106Y-122476300D02*
X110103106Y-122342966D01*
X110136440Y-122276300D01*
X110203106Y-122209633D01*
X110336440Y-122176300D01*
X110569773Y-122176300D01*
X110703106Y-122209633D01*
X110769773Y-122276300D01*
X110803106Y-122342966D01*
X110803106Y-122476300D01*
X110769773Y-122542966D01*
X110703106Y-122609633D01*
X110569773Y-122642966D01*
X110336440Y-122642966D01*
X110203106Y-122609633D01*
X110136440Y-122542966D01*
X110103106Y-122476300D01*
X110803106Y-121876300D02*
X110103106Y-121876300D01*
X110803106Y-121476300D01*
X110103106Y-121476300D01*
X106676488Y-129302430D02*
X106747916Y-129326240D01*
X106866964Y-129326240D01*
X106914583Y-129302430D01*
X106938392Y-129278621D01*
X106962202Y-129231002D01*
X106962202Y-129183383D01*
X106938392Y-129135764D01*
X106914583Y-129111954D01*
X106866964Y-129088145D01*
X106771726Y-129064335D01*
X106724107Y-129040526D01*
X106700297Y-129016716D01*
X106676488Y-128969097D01*
X106676488Y-128921478D01*
X106700297Y-128873859D01*
X106724107Y-128850050D01*
X106771726Y-128826240D01*
X106890773Y-128826240D01*
X106962202Y-128850050D01*
X107462202Y-129278621D02*
X107438392Y-129302430D01*
X107366964Y-129326240D01*
X107319345Y-129326240D01*
X107247916Y-129302430D01*
X107200297Y-129254811D01*
X107176488Y-129207192D01*
X107152678Y-129111954D01*
X107152678Y-129040526D01*
X107176488Y-128945288D01*
X107200297Y-128897669D01*
X107247916Y-128850050D01*
X107319345Y-128826240D01*
X107366964Y-128826240D01*
X107438392Y-128850050D01*
X107462202Y-128873859D01*
X107914583Y-129326240D02*
X107676488Y-129326240D01*
X107676488Y-128826240D01*
X106962202Y-126310050D02*
X106914583Y-126286240D01*
X106843154Y-126286240D01*
X106771726Y-126310050D01*
X106724107Y-126357669D01*
X106700297Y-126405288D01*
X106676488Y-126500526D01*
X106676488Y-126571954D01*
X106700297Y-126667192D01*
X106724107Y-126714811D01*
X106771726Y-126762430D01*
X106843154Y-126786240D01*
X106890773Y-126786240D01*
X106962202Y-126762430D01*
X106986011Y-126738621D01*
X106986011Y-126571954D01*
X106890773Y-126571954D01*
X107200297Y-126786240D02*
X107200297Y-126286240D01*
X107486011Y-126786240D01*
X107486011Y-126286240D01*
X107724107Y-126786240D02*
X107724107Y-126286240D01*
X107843154Y-126286240D01*
X107914583Y-126310050D01*
X107962202Y-126357669D01*
X107986011Y-126405288D01*
X108009821Y-126500526D01*
X108009821Y-126571954D01*
X107986011Y-126667192D01*
X107962202Y-126714811D01*
X107914583Y-126762430D01*
X107843154Y-126786240D01*
X107724107Y-126786240D01*
X106652678Y-123746240D02*
X106962202Y-123746240D01*
X106795535Y-123936716D01*
X106866964Y-123936716D01*
X106914583Y-123960526D01*
X106938392Y-123984335D01*
X106962202Y-124031954D01*
X106962202Y-124151002D01*
X106938392Y-124198621D01*
X106914583Y-124222430D01*
X106866964Y-124246240D01*
X106724107Y-124246240D01*
X106676488Y-124222430D01*
X106652678Y-124198621D01*
X107128869Y-123912907D02*
X107247916Y-124246240D01*
X107366964Y-123912907D01*
X107509821Y-123746240D02*
X107819345Y-123746240D01*
X107652678Y-123936716D01*
X107724107Y-123936716D01*
X107771726Y-123960526D01*
X107795535Y-123984335D01*
X107819345Y-124031954D01*
X107819345Y-124151002D01*
X107795535Y-124198621D01*
X107771726Y-124222430D01*
X107724107Y-124246240D01*
X107581250Y-124246240D01*
X107533630Y-124222430D01*
X107509821Y-124198621D01*
X106676488Y-121682430D02*
X106747916Y-121706240D01*
X106866964Y-121706240D01*
X106914583Y-121682430D01*
X106938392Y-121658621D01*
X106962202Y-121611002D01*
X106962202Y-121563383D01*
X106938392Y-121515764D01*
X106914583Y-121491954D01*
X106866964Y-121468145D01*
X106771726Y-121444335D01*
X106724107Y-121420526D01*
X106700297Y-121396716D01*
X106676488Y-121349097D01*
X106676488Y-121301478D01*
X106700297Y-121253859D01*
X106724107Y-121230050D01*
X106771726Y-121206240D01*
X106890773Y-121206240D01*
X106962202Y-121230050D01*
X107176488Y-121706240D02*
X107176488Y-121206240D01*
X107295535Y-121206240D01*
X107366964Y-121230050D01*
X107414583Y-121277669D01*
X107438392Y-121325288D01*
X107462202Y-121420526D01*
X107462202Y-121491954D01*
X107438392Y-121587192D01*
X107414583Y-121634811D01*
X107366964Y-121682430D01*
X107295535Y-121706240D01*
X107176488Y-121706240D01*
X107652678Y-121563383D02*
X107890773Y-121563383D01*
X107605059Y-121706240D02*
X107771726Y-121206240D01*
X107938392Y-121706240D01*
X106914583Y-115299940D02*
X106819345Y-115299940D01*
X106771726Y-115323750D01*
X106747916Y-115347559D01*
X106700297Y-115418988D01*
X106676488Y-115514226D01*
X106676488Y-115704702D01*
X106700297Y-115752321D01*
X106724107Y-115776130D01*
X106771726Y-115799940D01*
X106866964Y-115799940D01*
X106914583Y-115776130D01*
X106938392Y-115752321D01*
X106962202Y-115704702D01*
X106962202Y-115585654D01*
X106938392Y-115538035D01*
X106914583Y-115514226D01*
X106866964Y-115490416D01*
X106771726Y-115490416D01*
X106724107Y-115514226D01*
X106700297Y-115538035D01*
X106676488Y-115585654D01*
X107105059Y-115299940D02*
X107271726Y-115799940D01*
X107438392Y-115299940D01*
X106962202Y-112783750D02*
X106914583Y-112759940D01*
X106843154Y-112759940D01*
X106771726Y-112783750D01*
X106724107Y-112831369D01*
X106700297Y-112878988D01*
X106676488Y-112974226D01*
X106676488Y-113045654D01*
X106700297Y-113140892D01*
X106724107Y-113188511D01*
X106771726Y-113236130D01*
X106843154Y-113259940D01*
X106890773Y-113259940D01*
X106962202Y-113236130D01*
X106986011Y-113212321D01*
X106986011Y-113045654D01*
X106890773Y-113045654D01*
X107200297Y-113259940D02*
X107200297Y-112759940D01*
X107486011Y-113259940D01*
X107486011Y-112759940D01*
X107724107Y-113259940D02*
X107724107Y-112759940D01*
X107843154Y-112759940D01*
X107914583Y-112783750D01*
X107962202Y-112831369D01*
X107986011Y-112878988D01*
X108009821Y-112974226D01*
X108009821Y-113045654D01*
X107986011Y-113140892D01*
X107962202Y-113188511D01*
X107914583Y-113236130D01*
X107843154Y-113259940D01*
X107724107Y-113259940D01*
X108224107Y-113259940D02*
X108224107Y-112759940D01*
X108509821Y-113259940D01*
X108509821Y-112759940D01*
X106938392Y-110219940D02*
X106700297Y-110219940D01*
X106676488Y-110458035D01*
X106700297Y-110434226D01*
X106747916Y-110410416D01*
X106866964Y-110410416D01*
X106914583Y-110434226D01*
X106938392Y-110458035D01*
X106962202Y-110505654D01*
X106962202Y-110624702D01*
X106938392Y-110672321D01*
X106914583Y-110696130D01*
X106866964Y-110719940D01*
X106747916Y-110719940D01*
X106700297Y-110696130D01*
X106676488Y-110672321D01*
X107105059Y-110219940D02*
X107271726Y-110719940D01*
X107438392Y-110219940D01*
X106962202Y-107703750D02*
X106914583Y-107679940D01*
X106843154Y-107679940D01*
X106771726Y-107703750D01*
X106724107Y-107751369D01*
X106700297Y-107798988D01*
X106676488Y-107894226D01*
X106676488Y-107965654D01*
X106700297Y-108060892D01*
X106724107Y-108108511D01*
X106771726Y-108156130D01*
X106843154Y-108179940D01*
X106890773Y-108179940D01*
X106962202Y-108156130D01*
X106986011Y-108132321D01*
X106986011Y-107965654D01*
X106890773Y-107965654D01*
X107200297Y-108179940D02*
X107200297Y-107679940D01*
X107486011Y-108179940D01*
X107486011Y-107679940D01*
X107724107Y-108179940D02*
X107724107Y-107679940D01*
X107843154Y-107679940D01*
X107914583Y-107703750D01*
X107962202Y-107751369D01*
X107986011Y-107798988D01*
X108009821Y-107894226D01*
X108009821Y-107965654D01*
X107986011Y-108060892D01*
X107962202Y-108108511D01*
X107914583Y-108156130D01*
X107843154Y-108179940D01*
X107724107Y-108179940D01*
X106866964Y-102464285D02*
X106938392Y-102488095D01*
X106962202Y-102511904D01*
X106986011Y-102559523D01*
X106986011Y-102630952D01*
X106962202Y-102678571D01*
X106938392Y-102702380D01*
X106890773Y-102726190D01*
X106700297Y-102726190D01*
X106700297Y-102226190D01*
X106866964Y-102226190D01*
X106914583Y-102250000D01*
X106938392Y-102273809D01*
X106962202Y-102321428D01*
X106962202Y-102369047D01*
X106938392Y-102416666D01*
X106914583Y-102440476D01*
X106866964Y-102464285D01*
X106700297Y-102464285D01*
X107200297Y-102226190D02*
X107200297Y-102630952D01*
X107224107Y-102678571D01*
X107247916Y-102702380D01*
X107295535Y-102726190D01*
X107390773Y-102726190D01*
X107438392Y-102702380D01*
X107462202Y-102678571D01*
X107486011Y-102630952D01*
X107486011Y-102226190D01*
X107652678Y-102226190D02*
X107938392Y-102226190D01*
X107795535Y-102726190D02*
X107795535Y-102226190D01*
X108057440Y-102226190D02*
X108366964Y-102226190D01*
X108200297Y-102416666D01*
X108271726Y-102416666D01*
X108319345Y-102440476D01*
X108343154Y-102464285D01*
X108366964Y-102511904D01*
X108366964Y-102630952D01*
X108343154Y-102678571D01*
X108319345Y-102702380D01*
X108271726Y-102726190D01*
X108128869Y-102726190D01*
X108081250Y-102702380D01*
X108057440Y-102678571D01*
X106866964Y-99964285D02*
X106938392Y-99988095D01*
X106962202Y-100011904D01*
X106986011Y-100059523D01*
X106986011Y-100130952D01*
X106962202Y-100178571D01*
X106938392Y-100202380D01*
X106890773Y-100226190D01*
X106700297Y-100226190D01*
X106700297Y-99726190D01*
X106866964Y-99726190D01*
X106914583Y-99750000D01*
X106938392Y-99773809D01*
X106962202Y-99821428D01*
X106962202Y-99869047D01*
X106938392Y-99916666D01*
X106914583Y-99940476D01*
X106866964Y-99964285D01*
X106700297Y-99964285D01*
X107200297Y-99726190D02*
X107200297Y-100130952D01*
X107224107Y-100178571D01*
X107247916Y-100202380D01*
X107295535Y-100226190D01*
X107390773Y-100226190D01*
X107438392Y-100202380D01*
X107462202Y-100178571D01*
X107486011Y-100130952D01*
X107486011Y-99726190D01*
X107652678Y-99726190D02*
X107938392Y-99726190D01*
X107795535Y-100226190D02*
X107795535Y-99726190D01*
X108081250Y-99773809D02*
X108105059Y-99750000D01*
X108152678Y-99726190D01*
X108271726Y-99726190D01*
X108319345Y-99750000D01*
X108343154Y-99773809D01*
X108366964Y-99821428D01*
X108366964Y-99869047D01*
X108343154Y-99940476D01*
X108057440Y-100226190D01*
X108366964Y-100226190D01*
X106866964Y-97464285D02*
X106938392Y-97488095D01*
X106962202Y-97511904D01*
X106986011Y-97559523D01*
X106986011Y-97630952D01*
X106962202Y-97678571D01*
X106938392Y-97702380D01*
X106890773Y-97726190D01*
X106700297Y-97726190D01*
X106700297Y-97226190D01*
X106866964Y-97226190D01*
X106914583Y-97250000D01*
X106938392Y-97273809D01*
X106962202Y-97321428D01*
X106962202Y-97369047D01*
X106938392Y-97416666D01*
X106914583Y-97440476D01*
X106866964Y-97464285D01*
X106700297Y-97464285D01*
X107200297Y-97226190D02*
X107200297Y-97630952D01*
X107224107Y-97678571D01*
X107247916Y-97702380D01*
X107295535Y-97726190D01*
X107390773Y-97726190D01*
X107438392Y-97702380D01*
X107462202Y-97678571D01*
X107486011Y-97630952D01*
X107486011Y-97226190D01*
X107652678Y-97226190D02*
X107938392Y-97226190D01*
X107795535Y-97726190D02*
X107795535Y-97226190D01*
X108366964Y-97726190D02*
X108081250Y-97726190D01*
X108224107Y-97726190D02*
X108224107Y-97226190D01*
X108176488Y-97297619D01*
X108128869Y-97345238D01*
X108081250Y-97369047D01*
X106938392Y-95226190D02*
X106700297Y-95226190D01*
X106700297Y-94726190D01*
X107105059Y-94964285D02*
X107271726Y-94964285D01*
X107343154Y-95226190D02*
X107105059Y-95226190D01*
X107105059Y-94726190D01*
X107343154Y-94726190D01*
X107557440Y-95226190D02*
X107557440Y-94726190D01*
X107676488Y-94726190D01*
X107747916Y-94750000D01*
X107795535Y-94797619D01*
X107819345Y-94845238D01*
X107843154Y-94940476D01*
X107843154Y-95011904D01*
X107819345Y-95107142D01*
X107795535Y-95154761D01*
X107747916Y-95202380D01*
X107676488Y-95226190D01*
X107557440Y-95226190D01*
X108009821Y-94726190D02*
X108319345Y-94726190D01*
X108152678Y-94916666D01*
X108224107Y-94916666D01*
X108271726Y-94940476D01*
X108295535Y-94964285D01*
X108319345Y-95011904D01*
X108319345Y-95130952D01*
X108295535Y-95178571D01*
X108271726Y-95202380D01*
X108224107Y-95226190D01*
X108081250Y-95226190D01*
X108033630Y-95202380D01*
X108009821Y-95178571D01*
X106938392Y-92726190D02*
X106700297Y-92726190D01*
X106700297Y-92226190D01*
X107105059Y-92464285D02*
X107271726Y-92464285D01*
X107343154Y-92726190D02*
X107105059Y-92726190D01*
X107105059Y-92226190D01*
X107343154Y-92226190D01*
X107557440Y-92726190D02*
X107557440Y-92226190D01*
X107676488Y-92226190D01*
X107747916Y-92250000D01*
X107795535Y-92297619D01*
X107819345Y-92345238D01*
X107843154Y-92440476D01*
X107843154Y-92511904D01*
X107819345Y-92607142D01*
X107795535Y-92654761D01*
X107747916Y-92702380D01*
X107676488Y-92726190D01*
X107557440Y-92726190D01*
X108033630Y-92273809D02*
X108057440Y-92250000D01*
X108105059Y-92226190D01*
X108224107Y-92226190D01*
X108271726Y-92250000D01*
X108295535Y-92273809D01*
X108319345Y-92321428D01*
X108319345Y-92369047D01*
X108295535Y-92440476D01*
X108009821Y-92726190D01*
X108319345Y-92726190D01*
X107024702Y-90226190D02*
X106786607Y-90226190D01*
X106786607Y-89726190D01*
X107191369Y-89964285D02*
X107358036Y-89964285D01*
X107429464Y-90226190D02*
X107191369Y-90226190D01*
X107191369Y-89726190D01*
X107429464Y-89726190D01*
X107643750Y-90226190D02*
X107643750Y-89726190D01*
X107762798Y-89726190D01*
X107834226Y-89750000D01*
X107881845Y-89797619D01*
X107905655Y-89845238D01*
X107929464Y-89940476D01*
X107929464Y-90011904D01*
X107905655Y-90107142D01*
X107881845Y-90154761D01*
X107834226Y-90202380D01*
X107762798Y-90226190D01*
X107643750Y-90226190D01*
X108405655Y-90226190D02*
X108119940Y-90226190D01*
X108262798Y-90226190D02*
X108262798Y-89726190D01*
X108215179Y-89797619D01*
X108167560Y-89845238D01*
X108119940Y-89869047D01*
X106715179Y-87226190D02*
X106881845Y-87726190D01*
X107048512Y-87226190D01*
X107215179Y-87726190D02*
X107215179Y-87226190D01*
X107453274Y-87726190D02*
X107453274Y-87226190D01*
X107572321Y-87226190D01*
X107643750Y-87250000D01*
X107691369Y-87297619D01*
X107715179Y-87345238D01*
X107738988Y-87440476D01*
X107738988Y-87511904D01*
X107715179Y-87607142D01*
X107691369Y-87654761D01*
X107643750Y-87702380D01*
X107572321Y-87726190D01*
X107453274Y-87726190D01*
X107953274Y-87464285D02*
X108119940Y-87464285D01*
X108191369Y-87726190D02*
X107953274Y-87726190D01*
X107953274Y-87226190D01*
X108191369Y-87226190D01*
X108500893Y-87226190D02*
X108596131Y-87226190D01*
X108643750Y-87250000D01*
X108691369Y-87297619D01*
X108715179Y-87392857D01*
X108715179Y-87559523D01*
X108691369Y-87654761D01*
X108643750Y-87702380D01*
X108596131Y-87726190D01*
X108500893Y-87726190D01*
X108453274Y-87702380D01*
X108405655Y-87654761D01*
X108381845Y-87559523D01*
X108381845Y-87392857D01*
X108405655Y-87297619D01*
X108453274Y-87250000D01*
X108500893Y-87226190D01*
X107000893Y-84726190D02*
X106905655Y-84726190D01*
X106858036Y-84750000D01*
X106834226Y-84773809D01*
X106786607Y-84845238D01*
X106762798Y-84940476D01*
X106762798Y-85130952D01*
X106786607Y-85178571D01*
X106810417Y-85202380D01*
X106858036Y-85226190D01*
X106953274Y-85226190D01*
X107000893Y-85202380D01*
X107024702Y-85178571D01*
X107048512Y-85130952D01*
X107048512Y-85011904D01*
X107024702Y-84964285D01*
X107000893Y-84940476D01*
X106953274Y-84916666D01*
X106858036Y-84916666D01*
X106810417Y-84940476D01*
X106786607Y-84964285D01*
X106762798Y-85011904D01*
X107191369Y-84726190D02*
X107358036Y-85226190D01*
X107524702Y-84726190D01*
X107048512Y-82250000D02*
X107000893Y-82226190D01*
X106929464Y-82226190D01*
X106858036Y-82250000D01*
X106810417Y-82297619D01*
X106786607Y-82345238D01*
X106762798Y-82440476D01*
X106762798Y-82511904D01*
X106786607Y-82607142D01*
X106810417Y-82654761D01*
X106858036Y-82702380D01*
X106929464Y-82726190D01*
X106977083Y-82726190D01*
X107048512Y-82702380D01*
X107072321Y-82678571D01*
X107072321Y-82511904D01*
X106977083Y-82511904D01*
X107286607Y-82726190D02*
X107286607Y-82226190D01*
X107572321Y-82726190D01*
X107572321Y-82226190D01*
X107810417Y-82726190D02*
X107810417Y-82226190D01*
X107929464Y-82226190D01*
X108000893Y-82250000D01*
X108048512Y-82297619D01*
X108072321Y-82345238D01*
X108096131Y-82440476D01*
X108096131Y-82511904D01*
X108072321Y-82607142D01*
X108048512Y-82654761D01*
X108000893Y-82702380D01*
X107929464Y-82726190D01*
X107810417Y-82726190D01*
X106529761Y-59903750D02*
X106529761Y-59879940D01*
X106553571Y-59832321D01*
X106577380Y-59808511D01*
X106339285Y-59903750D02*
X106339285Y-59879940D01*
X106363095Y-59832321D01*
X106386904Y-59808511D01*
X106720237Y-59879940D02*
X107029761Y-59879940D01*
X106863095Y-60070416D01*
X106934523Y-60070416D01*
X106982142Y-60094226D01*
X107005952Y-60118035D01*
X107029761Y-60165654D01*
X107029761Y-60284702D01*
X107005952Y-60332321D01*
X106982142Y-60356130D01*
X106934523Y-60379940D01*
X106791666Y-60379940D01*
X106744047Y-60356130D01*
X106720237Y-60332321D01*
X107196428Y-60046607D02*
X107315476Y-60379940D01*
X107434523Y-60046607D01*
X107577380Y-59879940D02*
X107886904Y-59879940D01*
X107720237Y-60070416D01*
X107791666Y-60070416D01*
X107839285Y-60094226D01*
X107863095Y-60118035D01*
X107886904Y-60165654D01*
X107886904Y-60284702D01*
X107863095Y-60332321D01*
X107839285Y-60356130D01*
X107791666Y-60379940D01*
X107648809Y-60379940D01*
X107601190Y-60356130D01*
X107577380Y-60332321D01*
X108101190Y-59879940D02*
X108101190Y-59903750D01*
X108077380Y-59951369D01*
X108053571Y-59975178D01*
X108291666Y-59879940D02*
X108291666Y-59903750D01*
X108267856Y-59951369D01*
X108244047Y-59975178D01*
X106529762Y-62443750D02*
X106529762Y-62419940D01*
X106553572Y-62372321D01*
X106577381Y-62348511D01*
X106339286Y-62443750D02*
X106339286Y-62419940D01*
X106363095Y-62372321D01*
X106386905Y-62348511D01*
X107029762Y-62443750D02*
X106982143Y-62419940D01*
X106910715Y-62419940D01*
X106839286Y-62443750D01*
X106791667Y-62491369D01*
X106767857Y-62538988D01*
X106744048Y-62634226D01*
X106744048Y-62705654D01*
X106767857Y-62800892D01*
X106791667Y-62848511D01*
X106839286Y-62896130D01*
X106910715Y-62919940D01*
X106958334Y-62919940D01*
X107029762Y-62896130D01*
X107053572Y-62872321D01*
X107053572Y-62705654D01*
X106958334Y-62705654D01*
X107267857Y-62919940D02*
X107267857Y-62419940D01*
X107553572Y-62919940D01*
X107553572Y-62419940D01*
X107791667Y-62919940D02*
X107791667Y-62419940D01*
X107910715Y-62419940D01*
X107982143Y-62443750D01*
X108029762Y-62491369D01*
X108053572Y-62538988D01*
X108077381Y-62634226D01*
X108077381Y-62705654D01*
X108053572Y-62800892D01*
X108029762Y-62848511D01*
X107982143Y-62896130D01*
X107910715Y-62919940D01*
X107791667Y-62919940D01*
X108291667Y-62419940D02*
X108291667Y-62443750D01*
X108267857Y-62491369D01*
X108244048Y-62515178D01*
X108482143Y-62419940D02*
X108482143Y-62443750D01*
X108458334Y-62491369D01*
X108434524Y-62515178D01*
X106529762Y-64983750D02*
X106529762Y-64959940D01*
X106553571Y-64912321D01*
X106577381Y-64888511D01*
X106339285Y-64983750D02*
X106339285Y-64959940D01*
X106363095Y-64912321D01*
X106386905Y-64888511D01*
X107053571Y-65412321D02*
X107029762Y-65436130D01*
X106958333Y-65459940D01*
X106910714Y-65459940D01*
X106839285Y-65436130D01*
X106791666Y-65388511D01*
X106767857Y-65340892D01*
X106744047Y-65245654D01*
X106744047Y-65174226D01*
X106767857Y-65078988D01*
X106791666Y-65031369D01*
X106839285Y-64983750D01*
X106910714Y-64959940D01*
X106958333Y-64959940D01*
X107029762Y-64983750D01*
X107053571Y-65007559D01*
X107244047Y-65436130D02*
X107315476Y-65459940D01*
X107434524Y-65459940D01*
X107482143Y-65436130D01*
X107505952Y-65412321D01*
X107529762Y-65364702D01*
X107529762Y-65317083D01*
X107505952Y-65269464D01*
X107482143Y-65245654D01*
X107434524Y-65221845D01*
X107339285Y-65198035D01*
X107291666Y-65174226D01*
X107267857Y-65150416D01*
X107244047Y-65102797D01*
X107244047Y-65055178D01*
X107267857Y-65007559D01*
X107291666Y-64983750D01*
X107339285Y-64959940D01*
X107458333Y-64959940D01*
X107529762Y-64983750D01*
X107744047Y-64959940D02*
X107744047Y-64983750D01*
X107720238Y-65031369D01*
X107696428Y-65055178D01*
X107934524Y-64959940D02*
X107934524Y-64983750D01*
X107910714Y-65031369D01*
X107886905Y-65055178D01*
X106529761Y-67523750D02*
X106529761Y-67499940D01*
X106553571Y-67452321D01*
X106577381Y-67428511D01*
X106339285Y-67523750D02*
X106339285Y-67499940D01*
X106363095Y-67452321D01*
X106386904Y-67428511D01*
X107053571Y-67999940D02*
X106886904Y-67761845D01*
X106767857Y-67999940D02*
X106767857Y-67499940D01*
X106958333Y-67499940D01*
X107005952Y-67523750D01*
X107029761Y-67547559D01*
X107053571Y-67595178D01*
X107053571Y-67666607D01*
X107029761Y-67714226D01*
X107005952Y-67738035D01*
X106958333Y-67761845D01*
X106767857Y-67761845D01*
X107244047Y-67976130D02*
X107315476Y-67999940D01*
X107434523Y-67999940D01*
X107482142Y-67976130D01*
X107505952Y-67952321D01*
X107529761Y-67904702D01*
X107529761Y-67857083D01*
X107505952Y-67809464D01*
X107482142Y-67785654D01*
X107434523Y-67761845D01*
X107339285Y-67738035D01*
X107291666Y-67714226D01*
X107267857Y-67690416D01*
X107244047Y-67642797D01*
X107244047Y-67595178D01*
X107267857Y-67547559D01*
X107291666Y-67523750D01*
X107339285Y-67499940D01*
X107458333Y-67499940D01*
X107529761Y-67523750D01*
X107672619Y-67499940D02*
X107958333Y-67499940D01*
X107815476Y-67999940D02*
X107815476Y-67499940D01*
X108125000Y-67499940D02*
X108125000Y-67523750D01*
X108101190Y-67571369D01*
X108077381Y-67595178D01*
X108315476Y-67499940D02*
X108315476Y-67523750D01*
X108291666Y-67571369D01*
X108267857Y-67595178D01*
X106529762Y-70063750D02*
X106529762Y-70039940D01*
X106553571Y-69992321D01*
X106577381Y-69968511D01*
X106339286Y-70063750D02*
X106339286Y-70039940D01*
X106363095Y-69992321D01*
X106386905Y-69968511D01*
X106744048Y-70397083D02*
X106982143Y-70397083D01*
X106696429Y-70539940D02*
X106863095Y-70039940D01*
X107029762Y-70539940D01*
X107291667Y-70039940D02*
X107339286Y-70039940D01*
X107386905Y-70063750D01*
X107410714Y-70087559D01*
X107434524Y-70135178D01*
X107458333Y-70230416D01*
X107458333Y-70349464D01*
X107434524Y-70444702D01*
X107410714Y-70492321D01*
X107386905Y-70516130D01*
X107339286Y-70539940D01*
X107291667Y-70539940D01*
X107244048Y-70516130D01*
X107220238Y-70492321D01*
X107196429Y-70444702D01*
X107172619Y-70349464D01*
X107172619Y-70230416D01*
X107196429Y-70135178D01*
X107220238Y-70087559D01*
X107244048Y-70063750D01*
X107291667Y-70039940D01*
X107672619Y-70039940D02*
X107672619Y-70063750D01*
X107648810Y-70111369D01*
X107625000Y-70135178D01*
X107863095Y-70039940D02*
X107863095Y-70063750D01*
X107839286Y-70111369D01*
X107815476Y-70135178D01*
X106529762Y-72603750D02*
X106529762Y-72579940D01*
X106553571Y-72532321D01*
X106577381Y-72508511D01*
X106339286Y-72603750D02*
X106339286Y-72579940D01*
X106363095Y-72532321D01*
X106386905Y-72508511D01*
X106744048Y-73056130D02*
X106815476Y-73079940D01*
X106934524Y-73079940D01*
X106982143Y-73056130D01*
X107005952Y-73032321D01*
X107029762Y-72984702D01*
X107029762Y-72937083D01*
X107005952Y-72889464D01*
X106982143Y-72865654D01*
X106934524Y-72841845D01*
X106839286Y-72818035D01*
X106791667Y-72794226D01*
X106767857Y-72770416D01*
X106744048Y-72722797D01*
X106744048Y-72675178D01*
X106767857Y-72627559D01*
X106791667Y-72603750D01*
X106839286Y-72579940D01*
X106958333Y-72579940D01*
X107029762Y-72603750D01*
X107244048Y-73079940D02*
X107244048Y-72579940D01*
X107363095Y-72579940D01*
X107434524Y-72603750D01*
X107482143Y-72651369D01*
X107505952Y-72698988D01*
X107529762Y-72794226D01*
X107529762Y-72865654D01*
X107505952Y-72960892D01*
X107482143Y-73008511D01*
X107434524Y-73056130D01*
X107363095Y-73079940D01*
X107244048Y-73079940D01*
X107720238Y-72937083D02*
X107958333Y-72937083D01*
X107672619Y-73079940D02*
X107839286Y-72579940D01*
X108005952Y-73079940D01*
X108172619Y-72579940D02*
X108172619Y-72603750D01*
X108148810Y-72651369D01*
X108125000Y-72675178D01*
X108363095Y-72579940D02*
X108363095Y-72603750D01*
X108339286Y-72651369D01*
X108315476Y-72675178D01*
X106529762Y-75143750D02*
X106529762Y-75119940D01*
X106553571Y-75072321D01*
X106577381Y-75048511D01*
X106339285Y-75143750D02*
X106339285Y-75119940D01*
X106363095Y-75072321D01*
X106386905Y-75048511D01*
X106744047Y-75596130D02*
X106815476Y-75619940D01*
X106934524Y-75619940D01*
X106982143Y-75596130D01*
X107005952Y-75572321D01*
X107029762Y-75524702D01*
X107029762Y-75477083D01*
X107005952Y-75429464D01*
X106982143Y-75405654D01*
X106934524Y-75381845D01*
X106839285Y-75358035D01*
X106791666Y-75334226D01*
X106767857Y-75310416D01*
X106744047Y-75262797D01*
X106744047Y-75215178D01*
X106767857Y-75167559D01*
X106791666Y-75143750D01*
X106839285Y-75119940D01*
X106958333Y-75119940D01*
X107029762Y-75143750D01*
X107529762Y-75572321D02*
X107505952Y-75596130D01*
X107434524Y-75619940D01*
X107386905Y-75619940D01*
X107315476Y-75596130D01*
X107267857Y-75548511D01*
X107244047Y-75500892D01*
X107220238Y-75405654D01*
X107220238Y-75334226D01*
X107244047Y-75238988D01*
X107267857Y-75191369D01*
X107315476Y-75143750D01*
X107386905Y-75119940D01*
X107434524Y-75119940D01*
X107505952Y-75143750D01*
X107529762Y-75167559D01*
X107744047Y-75619940D02*
X107744047Y-75119940D01*
X108029762Y-75619940D02*
X107815476Y-75334226D01*
X108029762Y-75119940D02*
X107744047Y-75405654D01*
X108244047Y-75119940D02*
X108244047Y-75143750D01*
X108220238Y-75191369D01*
X108196428Y-75215178D01*
X108434524Y-75119940D02*
X108434524Y-75143750D01*
X108410714Y-75191369D01*
X108386905Y-75215178D01*
X106529761Y-77683750D02*
X106529761Y-77659940D01*
X106553571Y-77612321D01*
X106577381Y-77588511D01*
X106339285Y-77683750D02*
X106339285Y-77659940D01*
X106363095Y-77612321D01*
X106386904Y-77588511D01*
X107005952Y-78159940D02*
X106767857Y-78159940D01*
X106767857Y-77659940D01*
X107172619Y-77898035D02*
X107339285Y-77898035D01*
X107410714Y-78159940D02*
X107172619Y-78159940D01*
X107172619Y-77659940D01*
X107410714Y-77659940D01*
X107625000Y-78159940D02*
X107625000Y-77659940D01*
X107744047Y-77659940D01*
X107815476Y-77683750D01*
X107863095Y-77731369D01*
X107886904Y-77778988D01*
X107910714Y-77874226D01*
X107910714Y-77945654D01*
X107886904Y-78040892D01*
X107863095Y-78088511D01*
X107815476Y-78136130D01*
X107744047Y-78159940D01*
X107625000Y-78159940D01*
X108125000Y-77659940D02*
X108125000Y-77683750D01*
X108101190Y-77731369D01*
X108077381Y-77755178D01*
X108315476Y-77659940D02*
X108315476Y-77683750D01*
X108291666Y-77731369D01*
X108267857Y-77755178D01*
D12*
X165121428Y-86207142D02*
X165835714Y-85707142D01*
X165121428Y-85350000D02*
X166621428Y-85350000D01*
X166621428Y-85921428D01*
X166550000Y-86064285D01*
X166478571Y-86135714D01*
X166335714Y-86207142D01*
X166121428Y-86207142D01*
X165978571Y-86135714D01*
X165907142Y-86064285D01*
X165835714Y-85921428D01*
X165835714Y-85350000D01*
X165550000Y-86778571D02*
X165550000Y-87492857D01*
X165121428Y-86635714D02*
X166621428Y-87135714D01*
X165121428Y-87635714D01*
X165192857Y-88064285D02*
X165121428Y-88278571D01*
X165121428Y-88635714D01*
X165192857Y-88778571D01*
X165264285Y-88850000D01*
X165407142Y-88921428D01*
X165550000Y-88921428D01*
X165692857Y-88850000D01*
X165764285Y-88778571D01*
X165835714Y-88635714D01*
X165907142Y-88350000D01*
X165978571Y-88207142D01*
X166050000Y-88135714D01*
X166192857Y-88064285D01*
X166335714Y-88064285D01*
X166478571Y-88135714D01*
X166550000Y-88207142D01*
X166621428Y-88350000D01*
X166621428Y-88707142D01*
X166550000Y-88921428D01*
X165121428Y-89564285D02*
X166621428Y-89564285D01*
X166621428Y-90135714D01*
X166550000Y-90278571D01*
X166478571Y-90350000D01*
X166335714Y-90421428D01*
X166121428Y-90421428D01*
X165978571Y-90350000D01*
X165907142Y-90278571D01*
X165835714Y-90135714D01*
X165835714Y-89564285D01*
X165907142Y-91564285D02*
X165835714Y-91778571D01*
X165764285Y-91850000D01*
X165621428Y-91921428D01*
X165407142Y-91921428D01*
X165264285Y-91850000D01*
X165192857Y-91778571D01*
X165121428Y-91635714D01*
X165121428Y-91064285D01*
X166621428Y-91064285D01*
X166621428Y-91564285D01*
X166550000Y-91707142D01*
X166478571Y-91778571D01*
X166335714Y-91850000D01*
X166192857Y-91850000D01*
X166050000Y-91778571D01*
X165978571Y-91707142D01*
X165907142Y-91564285D01*
X165907142Y-91064285D01*
X165907142Y-92564285D02*
X165907142Y-93064285D01*
X165121428Y-93278571D02*
X165121428Y-92564285D01*
X166621428Y-92564285D01*
X166621428Y-93278571D01*
X165121428Y-94778571D02*
X165835714Y-94278571D01*
X165121428Y-93921428D02*
X166621428Y-93921428D01*
X166621428Y-94492857D01*
X166550000Y-94635714D01*
X166478571Y-94707142D01*
X166335714Y-94778571D01*
X166121428Y-94778571D01*
X165978571Y-94707142D01*
X165907142Y-94635714D01*
X165835714Y-94492857D01*
X165835714Y-93921428D01*
X165121428Y-96278571D02*
X165835714Y-95778571D01*
X165121428Y-95421428D02*
X166621428Y-95421428D01*
X166621428Y-95992857D01*
X166550000Y-96135714D01*
X166478571Y-96207142D01*
X166335714Y-96278571D01*
X166121428Y-96278571D01*
X165978571Y-96207142D01*
X165907142Y-96135714D01*
X165835714Y-95992857D01*
X165835714Y-95421428D01*
X165835714Y-97207142D02*
X165121428Y-97207142D01*
X166621428Y-96707142D02*
X165835714Y-97207142D01*
X166621428Y-97707142D01*
X165121428Y-99350000D02*
X166621428Y-99350000D01*
X166621428Y-99921428D01*
X166550000Y-100064285D01*
X166478571Y-100135714D01*
X166335714Y-100207142D01*
X166121428Y-100207142D01*
X165978571Y-100135714D01*
X165907142Y-100064285D01*
X165835714Y-99921428D01*
X165835714Y-99350000D01*
X165121428Y-100850000D02*
X166621428Y-100850000D01*
X166621428Y-102564285D02*
X166621428Y-103564285D01*
X165121428Y-102564285D01*
X165121428Y-103564285D01*
X165907142Y-104135714D02*
X165907142Y-104635714D01*
X165121428Y-104850000D02*
X165121428Y-104135714D01*
X166621428Y-104135714D01*
X166621428Y-104850000D01*
X165121428Y-106350000D02*
X165835714Y-105850000D01*
X165121428Y-105492857D02*
X166621428Y-105492857D01*
X166621428Y-106064285D01*
X166550000Y-106207142D01*
X166478571Y-106278571D01*
X166335714Y-106350000D01*
X166121428Y-106350000D01*
X165978571Y-106278571D01*
X165907142Y-106207142D01*
X165835714Y-106064285D01*
X165835714Y-105492857D01*
X166621428Y-107278571D02*
X166621428Y-107564285D01*
X166550000Y-107707142D01*
X166407142Y-107850000D01*
X166121428Y-107921428D01*
X165621428Y-107921428D01*
X165335714Y-107850000D01*
X165192857Y-107707142D01*
X165121428Y-107564285D01*
X165121428Y-107278571D01*
X165192857Y-107135714D01*
X165335714Y-106992857D01*
X165621428Y-106921428D01*
X166121428Y-106921428D01*
X166407142Y-106992857D01*
X166550000Y-107135714D01*
X166621428Y-107278571D01*
X113342857Y-58407142D02*
X113557142Y-58478571D01*
X113914285Y-58478571D01*
X114057142Y-58407142D01*
X114128571Y-58335714D01*
X114200000Y-58192857D01*
X114200000Y-58050000D01*
X114128571Y-57907142D01*
X114057142Y-57835714D01*
X113914285Y-57764285D01*
X113628571Y-57692857D01*
X113485714Y-57621428D01*
X113414285Y-57550000D01*
X113342857Y-57407142D01*
X113342857Y-57264285D01*
X113414285Y-57121428D01*
X113485714Y-57050000D01*
X113628571Y-56978571D01*
X113985714Y-56978571D01*
X114200000Y-57050000D01*
X114842857Y-57692857D02*
X115342857Y-57692857D01*
X115557142Y-58478571D02*
X114842857Y-58478571D01*
X114842857Y-56978571D01*
X115557142Y-56978571D01*
X116200000Y-58478571D02*
X116200000Y-56978571D01*
X117057142Y-58478571D01*
X117057142Y-56978571D01*
X117700000Y-58407142D02*
X117914285Y-58478571D01*
X118271428Y-58478571D01*
X118414285Y-58407142D01*
X118485714Y-58335714D01*
X118557142Y-58192857D01*
X118557142Y-58050000D01*
X118485714Y-57907142D01*
X118414285Y-57835714D01*
X118271428Y-57764285D01*
X117985714Y-57692857D01*
X117842857Y-57621428D01*
X117771428Y-57550000D01*
X117700000Y-57407142D01*
X117700000Y-57264285D01*
X117771428Y-57121428D01*
X117842857Y-57050000D01*
X117985714Y-56978571D01*
X118342857Y-56978571D01*
X118557142Y-57050000D01*
X119200000Y-57692857D02*
X119700000Y-57692857D01*
X119914285Y-58478571D02*
X119200000Y-58478571D01*
X119200000Y-56978571D01*
X119914285Y-56978571D01*
X120557142Y-58478571D02*
X120557142Y-56978571D01*
X120557142Y-57692857D02*
X121414285Y-57692857D01*
X121414285Y-58478571D02*
X121414285Y-56978571D01*
X122057142Y-58050000D02*
X122771428Y-58050000D01*
X121914285Y-58478571D02*
X122414285Y-56978571D01*
X122914285Y-58478571D01*
X123200000Y-56978571D02*
X124057142Y-56978571D01*
X123628571Y-58478571D02*
X123628571Y-56978571D01*
X123881380Y-129544071D02*
X124738523Y-129544071D01*
X124309952Y-131044071D02*
X124309952Y-129544071D01*
X126095666Y-131044071D02*
X125595666Y-130329785D01*
X125238523Y-131044071D02*
X125238523Y-129544071D01*
X125809952Y-129544071D01*
X125952809Y-129615500D01*
X126024238Y-129686928D01*
X126095666Y-129829785D01*
X126095666Y-130044071D01*
X126024238Y-130186928D01*
X125952809Y-130258357D01*
X125809952Y-130329785D01*
X125238523Y-130329785D01*
X126738523Y-130472642D02*
X127881380Y-130472642D01*
X129381380Y-131044071D02*
X128524238Y-131044071D01*
X128952809Y-131044071D02*
X128952809Y-129544071D01*
X128809952Y-129758357D01*
X128667095Y-129901214D01*
X128524238Y-129972642D01*
X130309952Y-129544071D02*
X130452809Y-129544071D01*
X130595666Y-129615500D01*
X130667095Y-129686928D01*
X130738523Y-129829785D01*
X130809952Y-130115500D01*
X130809952Y-130472642D01*
X130738523Y-130758357D01*
X130667095Y-130901214D01*
X130595666Y-130972642D01*
X130452809Y-131044071D01*
X130309952Y-131044071D01*
X130167095Y-130972642D01*
X130095666Y-130901214D01*
X130024238Y-130758357D01*
X129952809Y-130472642D01*
X129952809Y-130115500D01*
X130024238Y-129829785D01*
X130095666Y-129686928D01*
X130167095Y-129615500D01*
X130309952Y-129544071D01*
X131667095Y-130186928D02*
X131524238Y-130115500D01*
X131452809Y-130044071D01*
X131381380Y-129901214D01*
X131381380Y-129829785D01*
X131452809Y-129686928D01*
X131524238Y-129615500D01*
X131667095Y-129544071D01*
X131952809Y-129544071D01*
X132095666Y-129615500D01*
X132167095Y-129686928D01*
X132238523Y-129829785D01*
X132238523Y-129901214D01*
X132167095Y-130044071D01*
X132095666Y-130115500D01*
X131952809Y-130186928D01*
X131667095Y-130186928D01*
X131524238Y-130258357D01*
X131452809Y-130329785D01*
X131381380Y-130472642D01*
X131381380Y-130758357D01*
X131452809Y-130901214D01*
X131524238Y-130972642D01*
X131667095Y-131044071D01*
X131952809Y-131044071D01*
X132095666Y-130972642D01*
X132167095Y-130901214D01*
X132238523Y-130758357D01*
X132238523Y-130472642D01*
X132167095Y-130329785D01*
X132095666Y-130258357D01*
X131952809Y-130186928D01*
X134024238Y-131044071D02*
X134024238Y-129544071D01*
X134595666Y-129544071D01*
X134738523Y-129615500D01*
X134809952Y-129686928D01*
X134881380Y-129829785D01*
X134881380Y-130044071D01*
X134809952Y-130186928D01*
X134738523Y-130258357D01*
X134595666Y-130329785D01*
X134024238Y-130329785D01*
X135524238Y-131044071D02*
X135524238Y-129544071D01*
X137095666Y-130901214D02*
X137024238Y-130972642D01*
X136809952Y-131044071D01*
X136667095Y-131044071D01*
X136452809Y-130972642D01*
X136309952Y-130829785D01*
X136238523Y-130686928D01*
X136167095Y-130401214D01*
X136167095Y-130186928D01*
X136238523Y-129901214D01*
X136309952Y-129758357D01*
X136452809Y-129615500D01*
X136667095Y-129544071D01*
X136809952Y-129544071D01*
X137024238Y-129615500D01*
X137095666Y-129686928D01*
X138024238Y-129544071D02*
X138309952Y-129544071D01*
X138452809Y-129615500D01*
X138595666Y-129758357D01*
X138667095Y-130044071D01*
X138667095Y-130544071D01*
X138595666Y-130829785D01*
X138452809Y-130972642D01*
X138309952Y-131044071D01*
X138024238Y-131044071D01*
X137881380Y-130972642D01*
X137738523Y-130829785D01*
X137667095Y-130544071D01*
X137667095Y-130044071D01*
X137738523Y-129758357D01*
X137881380Y-129615500D01*
X138024238Y-129544071D01*
X140167095Y-131044071D02*
X139667095Y-130329785D01*
X139309952Y-131044071D02*
X139309952Y-129544071D01*
X139881380Y-129544071D01*
X140024238Y-129615500D01*
X140095666Y-129686928D01*
X140167095Y-129829785D01*
X140167095Y-130044071D01*
X140095666Y-130186928D01*
X140024238Y-130258357D01*
X139881380Y-130329785D01*
X139309952Y-130329785D01*
X140809952Y-131044071D02*
X140809952Y-129544071D01*
X141167095Y-129544071D01*
X141381380Y-129615500D01*
X141524238Y-129758357D01*
X141595666Y-129901214D01*
X141667095Y-130186928D01*
X141667095Y-130401214D01*
X141595666Y-130686928D01*
X141524238Y-130829785D01*
X141381380Y-130972642D01*
X141167095Y-131044071D01*
X140809952Y-131044071D01*
X142309952Y-130258357D02*
X142809952Y-130258357D01*
X143024238Y-131044071D02*
X142309952Y-131044071D01*
X142309952Y-129544071D01*
X143024238Y-129544071D01*
X144524238Y-131044071D02*
X144024238Y-130329785D01*
X143667095Y-131044071D02*
X143667095Y-129544071D01*
X144238523Y-129544071D01*
X144381380Y-129615500D01*
X144452809Y-129686928D01*
X144524238Y-129829785D01*
X144524238Y-130044071D01*
X144452809Y-130186928D01*
X144381380Y-130258357D01*
X144238523Y-130329785D01*
X143667095Y-130329785D01*
D13*
G36*
X136595677Y-116232796D02*
G01*
X137345064Y-116340199D01*
X137843417Y-116520659D01*
X138111535Y-116798931D01*
X138170212Y-117199772D01*
X138040246Y-117747936D01*
X137988423Y-117890710D01*
X137670138Y-118535358D01*
X137232531Y-119019867D01*
X136847280Y-119298642D01*
X136462437Y-119544901D01*
X137158878Y-120245003D01*
X137828212Y-121095549D01*
X138250480Y-122027973D01*
X138425592Y-123004461D01*
X138353453Y-123987196D01*
X138033971Y-124938364D01*
X137467053Y-125820150D01*
X137173331Y-126142621D01*
X136320622Y-126820631D01*
X135390316Y-127240420D01*
X134407266Y-127397502D01*
X133396326Y-127287392D01*
X132533072Y-126980090D01*
X131613166Y-126404859D01*
X131131938Y-125902455D01*
X131963327Y-125902455D01*
X132016389Y-126010811D01*
X132255572Y-126182534D01*
X132611082Y-126377397D01*
X133013126Y-126555174D01*
X133225969Y-126630208D01*
X133899653Y-126783234D01*
X134543029Y-126784101D01*
X135278021Y-126631241D01*
X135377991Y-126602545D01*
X136033816Y-126301730D01*
X136672583Y-125822424D01*
X137219582Y-125236295D01*
X137600101Y-124615009D01*
X137683662Y-124390832D01*
X137770959Y-123988788D01*
X137827638Y-123515433D01*
X137851139Y-123047597D01*
X137838901Y-122662112D01*
X137788365Y-122435806D01*
X137749786Y-122406280D01*
X137625066Y-122516029D01*
X137431022Y-122791705D01*
X137340260Y-122943292D01*
X136917471Y-123487291D01*
X136287866Y-124048664D01*
X135514916Y-124588491D01*
X134662092Y-125067851D01*
X133792864Y-125447826D01*
X132970703Y-125689496D01*
X132814815Y-125718247D01*
X132377898Y-125796554D01*
X132066331Y-125865901D01*
X131963327Y-125902455D01*
X131131938Y-125902455D01*
X130898731Y-125658987D01*
X130406731Y-124768844D01*
X130379341Y-124659539D01*
X131254820Y-124659539D01*
X131292569Y-124854429D01*
X131493619Y-125047947D01*
X131822184Y-125232947D01*
X132230203Y-125289682D01*
X132773631Y-125217728D01*
X133455897Y-125032995D01*
X134251429Y-124725138D01*
X135015755Y-124316749D01*
X135716005Y-123838717D01*
X136319311Y-123321930D01*
X136792802Y-122797276D01*
X137103610Y-122295641D01*
X137218865Y-121847915D01*
X137153251Y-121558551D01*
X137037053Y-121401356D01*
X136855137Y-121322904D01*
X136532864Y-121306268D01*
X136127263Y-121325873D01*
X135331616Y-121468762D01*
X134473670Y-121777778D01*
X133612130Y-122215744D01*
X132805701Y-122745485D01*
X132113088Y-123329824D01*
X131592995Y-123931586D01*
X131363214Y-124342801D01*
X131254820Y-124659539D01*
X130379341Y-124659539D01*
X130154128Y-123760798D01*
X130123065Y-123236527D01*
X130685003Y-123236527D01*
X130692523Y-123704160D01*
X130731666Y-123872103D01*
X130813430Y-124001952D01*
X130923871Y-123932282D01*
X131075405Y-123703458D01*
X131316925Y-123387384D01*
X131682270Y-122996307D01*
X131989395Y-122707569D01*
X132803237Y-122085889D01*
X133714572Y-121547856D01*
X134653897Y-121124776D01*
X135551704Y-120847954D01*
X136338488Y-120748695D01*
X136338632Y-120748695D01*
X136690124Y-120722758D01*
X136803154Y-120637453D01*
X136672148Y-120481542D01*
X136291530Y-120243784D01*
X136014473Y-120095174D01*
X135304304Y-119835882D01*
X134488542Y-119710081D01*
X133667706Y-119721588D01*
X132942316Y-119874221D01*
X132713068Y-119969787D01*
X131994107Y-120459637D01*
X131372921Y-121135322D01*
X131065213Y-121629082D01*
X130886546Y-122096787D01*
X130754744Y-122666669D01*
X130685003Y-123236527D01*
X130123065Y-123236527D01*
X130122884Y-123233478D01*
X130214269Y-122274199D01*
X130507697Y-121443295D01*
X131032076Y-120672716D01*
X131361975Y-120316592D01*
X132138373Y-119539380D01*
X131688953Y-119297351D01*
X131185460Y-118892753D01*
X130767040Y-118309606D01*
X130494318Y-117644364D01*
X130429832Y-117294144D01*
X130418643Y-117088191D01*
X130865557Y-117088191D01*
X130888944Y-117336327D01*
X131082427Y-117933327D01*
X131408778Y-118438062D01*
X131821444Y-118820339D01*
X132273872Y-119049963D01*
X132719507Y-119096740D01*
X133111797Y-118930477D01*
X133207260Y-118839956D01*
X133348932Y-118645779D01*
X133307885Y-118488330D01*
X133125123Y-118305460D01*
X132819137Y-118058125D01*
X132407982Y-117762293D01*
X132228047Y-117642051D01*
X131894092Y-117417291D01*
X131681598Y-117259266D01*
X131641362Y-117217286D01*
X131749354Y-117223698D01*
X132024373Y-117330981D01*
X132392980Y-117504359D01*
X132781739Y-117709051D01*
X133117212Y-117910279D01*
X133147492Y-117930563D01*
X133471209Y-118129176D01*
X133667915Y-118170683D01*
X133824783Y-118072192D01*
X133832120Y-118064925D01*
X133953013Y-117873883D01*
X133927164Y-117670636D01*
X134542389Y-117670636D01*
X134590473Y-118014631D01*
X134748452Y-118150343D01*
X135048430Y-118084791D01*
X135450476Y-117869157D01*
X135937059Y-117592337D01*
X136285636Y-117426610D01*
X136472961Y-117373703D01*
X136475789Y-117435342D01*
X136270876Y-117613254D01*
X135955220Y-117831666D01*
X135537621Y-118130342D01*
X135231228Y-118398198D01*
X135094676Y-118583074D01*
X135092449Y-118599152D01*
X135210281Y-118846170D01*
X135513218Y-118997781D01*
X135925422Y-119048754D01*
X136371054Y-118993864D01*
X136774277Y-118827880D01*
X136911861Y-118724578D01*
X137284526Y-118268937D01*
X137555529Y-117716858D01*
X137654708Y-117269677D01*
X137621343Y-116993151D01*
X137428455Y-116847682D01*
X137246654Y-116795640D01*
X136586495Y-116717521D01*
X135766806Y-116742454D01*
X135528529Y-116767328D01*
X135169590Y-116901335D01*
X134827232Y-117166642D01*
X134593106Y-117479294D01*
X134542389Y-117670636D01*
X133927164Y-117670636D01*
X133920731Y-117620057D01*
X133857925Y-117454645D01*
X133655507Y-117114843D01*
X133347508Y-116892677D01*
X132876070Y-116760634D01*
X132262557Y-116696005D01*
X131771065Y-116707595D01*
X131305703Y-116782850D01*
X131263745Y-116794636D01*
X130962941Y-116915271D01*
X130865557Y-117088191D01*
X130418643Y-117088191D01*
X130408318Y-116898156D01*
X130468051Y-116679080D01*
X130646606Y-116541219D01*
X130743749Y-116494615D01*
X131093913Y-116383810D01*
X131585410Y-116284779D01*
X131907758Y-116241513D01*
X132521516Y-116243402D01*
X133117572Y-116357576D01*
X133625610Y-116558928D01*
X133975312Y-116822345D01*
X134085542Y-117019208D01*
X134209457Y-117263630D01*
X134357799Y-117240238D01*
X134475638Y-117007704D01*
X134702457Y-116706232D01*
X135132885Y-116457397D01*
X135695728Y-116287221D01*
X136319796Y-116221725D01*
X136595677Y-116232796D01*
G37*
X136595677Y-116232796D02*
X137345064Y-116340199D01*
X137843417Y-116520659D01*
X138111535Y-116798931D01*
X138170212Y-117199772D01*
X138040246Y-117747936D01*
X137988423Y-117890710D01*
X137670138Y-118535358D01*
X137232531Y-119019867D01*
X136847280Y-119298642D01*
X136462437Y-119544901D01*
X137158878Y-120245003D01*
X137828212Y-121095549D01*
X138250480Y-122027973D01*
X138425592Y-123004461D01*
X138353453Y-123987196D01*
X138033971Y-124938364D01*
X137467053Y-125820150D01*
X137173331Y-126142621D01*
X136320622Y-126820631D01*
X135390316Y-127240420D01*
X134407266Y-127397502D01*
X133396326Y-127287392D01*
X132533072Y-126980090D01*
X131613166Y-126404859D01*
X131131938Y-125902455D01*
X131963327Y-125902455D01*
X132016389Y-126010811D01*
X132255572Y-126182534D01*
X132611082Y-126377397D01*
X133013126Y-126555174D01*
X133225969Y-126630208D01*
X133899653Y-126783234D01*
X134543029Y-126784101D01*
X135278021Y-126631241D01*
X135377991Y-126602545D01*
X136033816Y-126301730D01*
X136672583Y-125822424D01*
X137219582Y-125236295D01*
X137600101Y-124615009D01*
X137683662Y-124390832D01*
X137770959Y-123988788D01*
X137827638Y-123515433D01*
X137851139Y-123047597D01*
X137838901Y-122662112D01*
X137788365Y-122435806D01*
X137749786Y-122406280D01*
X137625066Y-122516029D01*
X137431022Y-122791705D01*
X137340260Y-122943292D01*
X136917471Y-123487291D01*
X136287866Y-124048664D01*
X135514916Y-124588491D01*
X134662092Y-125067851D01*
X133792864Y-125447826D01*
X132970703Y-125689496D01*
X132814815Y-125718247D01*
X132377898Y-125796554D01*
X132066331Y-125865901D01*
X131963327Y-125902455D01*
X131131938Y-125902455D01*
X130898731Y-125658987D01*
X130406731Y-124768844D01*
X130379341Y-124659539D01*
X131254820Y-124659539D01*
X131292569Y-124854429D01*
X131493619Y-125047947D01*
X131822184Y-125232947D01*
X132230203Y-125289682D01*
X132773631Y-125217728D01*
X133455897Y-125032995D01*
X134251429Y-124725138D01*
X135015755Y-124316749D01*
X135716005Y-123838717D01*
X136319311Y-123321930D01*
X136792802Y-122797276D01*
X137103610Y-122295641D01*
X137218865Y-121847915D01*
X137153251Y-121558551D01*
X137037053Y-121401356D01*
X136855137Y-121322904D01*
X136532864Y-121306268D01*
X136127263Y-121325873D01*
X135331616Y-121468762D01*
X134473670Y-121777778D01*
X133612130Y-122215744D01*
X132805701Y-122745485D01*
X132113088Y-123329824D01*
X131592995Y-123931586D01*
X131363214Y-124342801D01*
X131254820Y-124659539D01*
X130379341Y-124659539D01*
X130154128Y-123760798D01*
X130123065Y-123236527D01*
X130685003Y-123236527D01*
X130692523Y-123704160D01*
X130731666Y-123872103D01*
X130813430Y-124001952D01*
X130923871Y-123932282D01*
X131075405Y-123703458D01*
X131316925Y-123387384D01*
X131682270Y-122996307D01*
X131989395Y-122707569D01*
X132803237Y-122085889D01*
X133714572Y-121547856D01*
X134653897Y-121124776D01*
X135551704Y-120847954D01*
X136338488Y-120748695D01*
X136338632Y-120748695D01*
X136690124Y-120722758D01*
X136803154Y-120637453D01*
X136672148Y-120481542D01*
X136291530Y-120243784D01*
X136014473Y-120095174D01*
X135304304Y-119835882D01*
X134488542Y-119710081D01*
X133667706Y-119721588D01*
X132942316Y-119874221D01*
X132713068Y-119969787D01*
X131994107Y-120459637D01*
X131372921Y-121135322D01*
X131065213Y-121629082D01*
X130886546Y-122096787D01*
X130754744Y-122666669D01*
X130685003Y-123236527D01*
X130123065Y-123236527D01*
X130122884Y-123233478D01*
X130214269Y-122274199D01*
X130507697Y-121443295D01*
X131032076Y-120672716D01*
X131361975Y-120316592D01*
X132138373Y-119539380D01*
X131688953Y-119297351D01*
X131185460Y-118892753D01*
X130767040Y-118309606D01*
X130494318Y-117644364D01*
X130429832Y-117294144D01*
X130418643Y-117088191D01*
X130865557Y-117088191D01*
X130888944Y-117336327D01*
X131082427Y-117933327D01*
X131408778Y-118438062D01*
X131821444Y-118820339D01*
X132273872Y-119049963D01*
X132719507Y-119096740D01*
X133111797Y-118930477D01*
X133207260Y-118839956D01*
X133348932Y-118645779D01*
X133307885Y-118488330D01*
X133125123Y-118305460D01*
X132819137Y-118058125D01*
X132407982Y-117762293D01*
X132228047Y-117642051D01*
X131894092Y-117417291D01*
X131681598Y-117259266D01*
X131641362Y-117217286D01*
X131749354Y-117223698D01*
X132024373Y-117330981D01*
X132392980Y-117504359D01*
X132781739Y-117709051D01*
X133117212Y-117910279D01*
X133147492Y-117930563D01*
X133471209Y-118129176D01*
X133667915Y-118170683D01*
X133824783Y-118072192D01*
X133832120Y-118064925D01*
X133953013Y-117873883D01*
X133927164Y-117670636D01*
X134542389Y-117670636D01*
X134590473Y-118014631D01*
X134748452Y-118150343D01*
X135048430Y-118084791D01*
X135450476Y-117869157D01*
X135937059Y-117592337D01*
X136285636Y-117426610D01*
X136472961Y-117373703D01*
X136475789Y-117435342D01*
X136270876Y-117613254D01*
X135955220Y-117831666D01*
X135537621Y-118130342D01*
X135231228Y-118398198D01*
X135094676Y-118583074D01*
X135092449Y-118599152D01*
X135210281Y-118846170D01*
X135513218Y-118997781D01*
X135925422Y-119048754D01*
X136371054Y-118993864D01*
X136774277Y-118827880D01*
X136911861Y-118724578D01*
X137284526Y-118268937D01*
X137555529Y-117716858D01*
X137654708Y-117269677D01*
X137621343Y-116993151D01*
X137428455Y-116847682D01*
X137246654Y-116795640D01*
X136586495Y-116717521D01*
X135766806Y-116742454D01*
X135528529Y-116767328D01*
X135169590Y-116901335D01*
X134827232Y-117166642D01*
X134593106Y-117479294D01*
X134542389Y-117670636D01*
X133927164Y-117670636D01*
X133920731Y-117620057D01*
X133857925Y-117454645D01*
X133655507Y-117114843D01*
X133347508Y-116892677D01*
X132876070Y-116760634D01*
X132262557Y-116696005D01*
X131771065Y-116707595D01*
X131305703Y-116782850D01*
X131263745Y-116794636D01*
X130962941Y-116915271D01*
X130865557Y-117088191D01*
X130418643Y-117088191D01*
X130408318Y-116898156D01*
X130468051Y-116679080D01*
X130646606Y-116541219D01*
X130743749Y-116494615D01*
X131093913Y-116383810D01*
X131585410Y-116284779D01*
X131907758Y-116241513D01*
X132521516Y-116243402D01*
X133117572Y-116357576D01*
X133625610Y-116558928D01*
X133975312Y-116822345D01*
X134085542Y-117019208D01*
X134209457Y-117263630D01*
X134357799Y-117240238D01*
X134475638Y-117007704D01*
X134702457Y-116706232D01*
X135132885Y-116457397D01*
X135695728Y-116287221D01*
X136319796Y-116221725D01*
X136595677Y-116232796D01*
D14*
X139404238Y-47870000D02*
X139404238Y-49200000D01*
X138074238Y-47870000D02*
X139404238Y-47870000D01*
X136804238Y-47870000D02*
X136804238Y-50530000D01*
X136804238Y-50530000D02*
X129124238Y-50530000D01*
X136804238Y-47870000D02*
X129124238Y-47870000D01*
X129124238Y-47870000D02*
X129124238Y-50530000D01*
X102860800Y-120196300D02*
X104190800Y-120196300D01*
X102860800Y-121526300D02*
X102860800Y-120196300D01*
X102860800Y-122796300D02*
X105520800Y-122796300D01*
X105520800Y-122796300D02*
X105520800Y-130476300D01*
X102860800Y-122796300D02*
X102860800Y-130476300D01*
X102860800Y-130476300D02*
X105520800Y-130476300D01*
X137900000Y-67275000D02*
X139300000Y-67275000D01*
X140000000Y-67975000D02*
X140000000Y-68575000D01*
X139300000Y-69275000D02*
X137900000Y-69275000D01*
X137200000Y-68575000D02*
X137200000Y-67975000D01*
X137200000Y-67975000D02*
G75*
G02*
X137900000Y-67275000I700000J0D01*
G01*
X137900000Y-69275000D02*
G75*
G02*
X137200000Y-68575000I0J700000D01*
G01*
X140000000Y-68575000D02*
G75*
G02*
X139300000Y-69275000I-700000J0D01*
G01*
X139300000Y-67275000D02*
G75*
G02*
X140000000Y-67975000I0J-700000D01*
G01*
X142825000Y-67875000D02*
X141425000Y-67875000D01*
X140725000Y-67175000D02*
X140725000Y-66575000D01*
X141425000Y-65875000D02*
X142825000Y-65875000D01*
X143525000Y-66575000D02*
X143525000Y-67175000D01*
X143525000Y-67175000D02*
G75*
G02*
X142825000Y-67875000I-700000J0D01*
G01*
X142825000Y-65875000D02*
G75*
G02*
X143525000Y-66575000I0J-700000D01*
G01*
X140725000Y-66575000D02*
G75*
G02*
X141425000Y-65875000I700000J0D01*
G01*
X141425000Y-67875000D02*
G75*
G02*
X140725000Y-67175000I0J700000D01*
G01*
X165370000Y-68825000D02*
X165370000Y-67425000D01*
X166070000Y-66725000D02*
X166670000Y-66725000D01*
X167370000Y-67425000D02*
X167370000Y-68825000D01*
X166670000Y-69525000D02*
X166070000Y-69525000D01*
X166070000Y-69525000D02*
G75*
G02*
X165370000Y-68825000I0J700000D01*
G01*
X167370000Y-68825000D02*
G75*
G02*
X166670000Y-69525000I-700000J0D01*
G01*
X166670000Y-66725000D02*
G75*
G02*
X167370000Y-67425000I0J-700000D01*
G01*
X165370000Y-67425000D02*
G75*
G02*
X166070000Y-66725000I700000J0D01*
G01*
X150200000Y-67025000D02*
X148800000Y-67025000D01*
X148100000Y-66325000D02*
X148100000Y-65725000D01*
X148800000Y-65025000D02*
X150200000Y-65025000D01*
X150900000Y-65725000D02*
X150900000Y-66325000D01*
X150900000Y-66325000D02*
G75*
G02*
X150200000Y-67025000I-700000J0D01*
G01*
X150200000Y-65025000D02*
G75*
G02*
X150900000Y-65725000I0J-700000D01*
G01*
X148100000Y-65725000D02*
G75*
G02*
X148800000Y-65025000I700000J0D01*
G01*
X148800000Y-67025000D02*
G75*
G02*
X148100000Y-66325000I0J700000D01*
G01*
X120958160Y-69799440D02*
X119558160Y-69799440D01*
X118858160Y-69099440D02*
X118858160Y-68499440D01*
X119558160Y-67799440D02*
X120958160Y-67799440D01*
X121658160Y-68499440D02*
X121658160Y-69099440D01*
X121658160Y-69099440D02*
G75*
G02*
X120958160Y-69799440I-700000J0D01*
G01*
X120958160Y-67799440D02*
G75*
G02*
X121658160Y-68499440I0J-700000D01*
G01*
X118858160Y-68499440D02*
G75*
G02*
X119558160Y-67799440I700000J0D01*
G01*
X119558160Y-69799440D02*
G75*
G02*
X118858160Y-69099440I0J700000D01*
G01*
X120953760Y-72247000D02*
X119553760Y-72247000D01*
X118853760Y-71547000D02*
X118853760Y-70947000D01*
X119553760Y-70247000D02*
X120953760Y-70247000D01*
X121653760Y-70947000D02*
X121653760Y-71547000D01*
X121653760Y-71547000D02*
G75*
G02*
X120953760Y-72247000I-700000J0D01*
G01*
X120953760Y-70247000D02*
G75*
G02*
X121653760Y-70947000I0J-700000D01*
G01*
X118853760Y-70947000D02*
G75*
G02*
X119553760Y-70247000I700000J0D01*
G01*
X119553760Y-72247000D02*
G75*
G02*
X118853760Y-71547000I0J700000D01*
G01*
X120958160Y-67351880D02*
X119558160Y-67351880D01*
X118858160Y-66651880D02*
X118858160Y-66051880D01*
X119558160Y-65351880D02*
X120958160Y-65351880D01*
X121658160Y-66051880D02*
X121658160Y-66651880D01*
X121658160Y-66651880D02*
G75*
G02*
X120958160Y-67351880I-700000J0D01*
G01*
X120958160Y-65351880D02*
G75*
G02*
X121658160Y-66051880I0J-700000D01*
G01*
X118858160Y-66051880D02*
G75*
G02*
X119558160Y-65351880I700000J0D01*
G01*
X119558160Y-67351880D02*
G75*
G02*
X118858160Y-66651880I0J700000D01*
G01*
X102870000Y-58870000D02*
X104200000Y-58870000D01*
X102870000Y-60200000D02*
X102870000Y-58870000D01*
X102870000Y-61470000D02*
X105530000Y-61470000D01*
X105530000Y-61470000D02*
X105530000Y-79310000D01*
X102870000Y-61470000D02*
X102870000Y-79310000D01*
X102870000Y-79310000D02*
X105530000Y-79310000D01*
X129869476Y-94502500D02*
X130378924Y-94502500D01*
X129869476Y-93457500D02*
X130378924Y-93457500D01*
X130440524Y-101064800D02*
X129931076Y-101064800D01*
X130440524Y-102109800D02*
X129931076Y-102109800D01*
X130417024Y-98562900D02*
X129907576Y-98562900D01*
X130417024Y-99607900D02*
X129907576Y-99607900D01*
X156270000Y-135950000D02*
X154940000Y-135950000D01*
X156270000Y-134620000D02*
X156270000Y-135950000D01*
X156270000Y-133350000D02*
X153610000Y-133350000D01*
X153610000Y-133350000D02*
X153610000Y-130750000D01*
X156270000Y-133350000D02*
X156270000Y-130750000D01*
X156270000Y-130750000D02*
X153610000Y-130750000D01*
X102870000Y-81045000D02*
X104200000Y-81045000D01*
X102870000Y-82375000D02*
X102870000Y-81045000D01*
X102870000Y-83645000D02*
X105530000Y-83645000D01*
X105530000Y-83645000D02*
X105530000Y-104025000D01*
X102870000Y-83645000D02*
X102870000Y-104025000D01*
X102870000Y-104025000D02*
X105530000Y-104025000D01*
X102870000Y-106670000D02*
X104200000Y-106670000D01*
X102870000Y-108000000D02*
X102870000Y-106670000D01*
X102870000Y-109270000D02*
X105530000Y-109270000D01*
X105530000Y-109270000D02*
X105530000Y-116950000D01*
X102870000Y-109270000D02*
X102870000Y-116950000D01*
X102870000Y-116950000D02*
X105530000Y-116950000D01*
X112970000Y-59630000D02*
X112970000Y-64830000D01*
X161290000Y-59630000D02*
X112970000Y-59630000D01*
X163890000Y-64830000D02*
X112970000Y-64830000D01*
X161290000Y-59630000D02*
X161290000Y-62230000D01*
X161290000Y-62230000D02*
X163890000Y-62230000D01*
X163890000Y-62230000D02*
X163890000Y-64830000D01*
X162560000Y-59630000D02*
X163890000Y-59630000D01*
X163890000Y-59630000D02*
X163890000Y-60960000D01*
X158690000Y-135950000D02*
X163890000Y-135950000D01*
X158690000Y-87630000D02*
X158690000Y-135950000D01*
X163890000Y-85030000D02*
X163890000Y-135950000D01*
X158690000Y-87630000D02*
X161290000Y-87630000D01*
X161290000Y-87630000D02*
X161290000Y-85030000D01*
X161290000Y-85030000D02*
X163890000Y-85030000D01*
X158690000Y-86360000D02*
X158690000Y-85030000D01*
X158690000Y-85030000D02*
X160020000Y-85030000D01*
D15*
X139856618Y-49533333D02*
X140570904Y-49533333D01*
X140713761Y-49580952D01*
X140808999Y-49676190D01*
X140856618Y-49819047D01*
X140856618Y-49914285D01*
X139856618Y-49152380D02*
X139856618Y-48533333D01*
X140237571Y-48866666D01*
X140237571Y-48723809D01*
X140285190Y-48628571D01*
X140332809Y-48580952D01*
X140428047Y-48533333D01*
X140666142Y-48533333D01*
X140761380Y-48580952D01*
X140808999Y-48628571D01*
X140856618Y-48723809D01*
X140856618Y-49009523D01*
X140808999Y-49104761D01*
X140761380Y-49152380D01*
X103857466Y-131512060D02*
X103857466Y-132226346D01*
X103809847Y-132369203D01*
X103714609Y-132464441D01*
X103571752Y-132512060D01*
X103476514Y-132512060D01*
X104238419Y-131512060D02*
X104905085Y-131512060D01*
X104476514Y-132512060D01*
X137766666Y-65927380D02*
X137766666Y-66641666D01*
X137719047Y-66784523D01*
X137623809Y-66879761D01*
X137480952Y-66927380D01*
X137385714Y-66927380D01*
X138242857Y-66927380D02*
X138242857Y-65927380D01*
X138623809Y-65927380D01*
X138719047Y-65975000D01*
X138766666Y-66022619D01*
X138814285Y-66117857D01*
X138814285Y-66260714D01*
X138766666Y-66355952D01*
X138719047Y-66403571D01*
X138623809Y-66451190D01*
X138242857Y-66451190D01*
X139671428Y-66260714D02*
X139671428Y-66927380D01*
X139433333Y-65879761D02*
X139195238Y-66594047D01*
X139814285Y-66594047D01*
X141291666Y-68127380D02*
X141291666Y-68841666D01*
X141244047Y-68984523D01*
X141148809Y-69079761D01*
X141005952Y-69127380D01*
X140910714Y-69127380D01*
X141767857Y-69127380D02*
X141767857Y-68127380D01*
X142148809Y-68127380D01*
X142244047Y-68175000D01*
X142291666Y-68222619D01*
X142339285Y-68317857D01*
X142339285Y-68460714D01*
X142291666Y-68555952D01*
X142244047Y-68603571D01*
X142148809Y-68651190D01*
X141767857Y-68651190D01*
X143244047Y-68127380D02*
X142767857Y-68127380D01*
X142720238Y-68603571D01*
X142767857Y-68555952D01*
X142863095Y-68508333D01*
X143101190Y-68508333D01*
X143196428Y-68555952D01*
X143244047Y-68603571D01*
X143291666Y-68698809D01*
X143291666Y-68936904D01*
X143244047Y-69032142D01*
X143196428Y-69079761D01*
X143101190Y-69127380D01*
X142863095Y-69127380D01*
X142767857Y-69079761D01*
X142720238Y-69032142D01*
X162716666Y-67652380D02*
X162716666Y-68366666D01*
X162669047Y-68509523D01*
X162573809Y-68604761D01*
X162430952Y-68652380D01*
X162335714Y-68652380D01*
X163192857Y-68652380D02*
X163192857Y-67652380D01*
X163573809Y-67652380D01*
X163669047Y-67700000D01*
X163716666Y-67747619D01*
X163764285Y-67842857D01*
X163764285Y-67985714D01*
X163716666Y-68080952D01*
X163669047Y-68128571D01*
X163573809Y-68176190D01*
X163192857Y-68176190D01*
X164097619Y-67652380D02*
X164764285Y-67652380D01*
X164335714Y-68652380D01*
X148666666Y-67277380D02*
X148666666Y-67991666D01*
X148619047Y-68134523D01*
X148523809Y-68229761D01*
X148380952Y-68277380D01*
X148285714Y-68277380D01*
X149142857Y-68277380D02*
X149142857Y-67277380D01*
X149523809Y-67277380D01*
X149619047Y-67325000D01*
X149666666Y-67372619D01*
X149714285Y-67467857D01*
X149714285Y-67610714D01*
X149666666Y-67705952D01*
X149619047Y-67753571D01*
X149523809Y-67801190D01*
X149142857Y-67801190D01*
X150571428Y-67277380D02*
X150380952Y-67277380D01*
X150285714Y-67325000D01*
X150238095Y-67372619D01*
X150142857Y-67515476D01*
X150095238Y-67705952D01*
X150095238Y-68086904D01*
X150142857Y-68182142D01*
X150190476Y-68229761D01*
X150285714Y-68277380D01*
X150476190Y-68277380D01*
X150571428Y-68229761D01*
X150619047Y-68182142D01*
X150666666Y-68086904D01*
X150666666Y-67848809D01*
X150619047Y-67753571D01*
X150571428Y-67705952D01*
X150476190Y-67658333D01*
X150285714Y-67658333D01*
X150190476Y-67705952D01*
X150142857Y-67753571D01*
X150095238Y-67848809D01*
X122499826Y-68326820D02*
X122499826Y-69041106D01*
X122452207Y-69183963D01*
X122356969Y-69279201D01*
X122214112Y-69326820D01*
X122118874Y-69326820D01*
X122976017Y-69326820D02*
X122976017Y-68326820D01*
X123356969Y-68326820D01*
X123452207Y-68374440D01*
X123499826Y-68422059D01*
X123547445Y-68517297D01*
X123547445Y-68660154D01*
X123499826Y-68755392D01*
X123452207Y-68803011D01*
X123356969Y-68850630D01*
X122976017Y-68850630D01*
X123928398Y-68422059D02*
X123976017Y-68374440D01*
X124071255Y-68326820D01*
X124309350Y-68326820D01*
X124404588Y-68374440D01*
X124452207Y-68422059D01*
X124499826Y-68517297D01*
X124499826Y-68612535D01*
X124452207Y-68755392D01*
X123880779Y-69326820D01*
X124499826Y-69326820D01*
X122545426Y-70739380D02*
X122545426Y-71453666D01*
X122497807Y-71596523D01*
X122402569Y-71691761D01*
X122259712Y-71739380D01*
X122164474Y-71739380D01*
X123021617Y-71739380D02*
X123021617Y-70739380D01*
X123402569Y-70739380D01*
X123497807Y-70787000D01*
X123545426Y-70834619D01*
X123593045Y-70929857D01*
X123593045Y-71072714D01*
X123545426Y-71167952D01*
X123497807Y-71215571D01*
X123402569Y-71263190D01*
X123021617Y-71263190D01*
X123926379Y-70739380D02*
X124545426Y-70739380D01*
X124212093Y-71120333D01*
X124354950Y-71120333D01*
X124450188Y-71167952D01*
X124497807Y-71215571D01*
X124545426Y-71310809D01*
X124545426Y-71548904D01*
X124497807Y-71644142D01*
X124450188Y-71691761D01*
X124354950Y-71739380D01*
X124069236Y-71739380D01*
X123973998Y-71691761D01*
X123926379Y-71644142D01*
X122574826Y-66374260D02*
X122574826Y-67088546D01*
X122527207Y-67231403D01*
X122431969Y-67326641D01*
X122289112Y-67374260D01*
X122193874Y-67374260D01*
X123051017Y-67374260D02*
X123051017Y-66374260D01*
X123431969Y-66374260D01*
X123527207Y-66421880D01*
X123574826Y-66469499D01*
X123622445Y-66564737D01*
X123622445Y-66707594D01*
X123574826Y-66802832D01*
X123527207Y-66850451D01*
X123431969Y-66898070D01*
X123051017Y-66898070D01*
X124574826Y-67374260D02*
X124003398Y-67374260D01*
X124289112Y-67374260D02*
X124289112Y-66374260D01*
X124193874Y-66517118D01*
X124098636Y-66612356D01*
X124003398Y-66659975D01*
X103866666Y-79652380D02*
X103866666Y-80366666D01*
X103819047Y-80509523D01*
X103723809Y-80604761D01*
X103580952Y-80652380D01*
X103485714Y-80652380D01*
X104771428Y-79985714D02*
X104771428Y-80652380D01*
X104533333Y-79604761D02*
X104295238Y-80319047D01*
X104914285Y-80319047D01*
X129957533Y-93002380D02*
X129624200Y-92526190D01*
X129386104Y-93002380D02*
X129386104Y-92002380D01*
X129767057Y-92002380D01*
X129862295Y-92050000D01*
X129909914Y-92097619D01*
X129957533Y-92192857D01*
X129957533Y-92335714D01*
X129909914Y-92430952D01*
X129862295Y-92478571D01*
X129767057Y-92526190D01*
X129386104Y-92526190D01*
X130909914Y-93002380D02*
X130338485Y-93002380D01*
X130624200Y-93002380D02*
X130624200Y-92002380D01*
X130528961Y-92145238D01*
X130433723Y-92240476D01*
X130338485Y-92288095D01*
X130008333Y-103563680D02*
X129675000Y-103087490D01*
X129436904Y-103563680D02*
X129436904Y-102563680D01*
X129817857Y-102563680D01*
X129913095Y-102611300D01*
X129960714Y-102658919D01*
X130008333Y-102754157D01*
X130008333Y-102897014D01*
X129960714Y-102992252D01*
X129913095Y-103039871D01*
X129817857Y-103087490D01*
X129436904Y-103087490D01*
X130341666Y-102563680D02*
X130960714Y-102563680D01*
X130627380Y-102944633D01*
X130770238Y-102944633D01*
X130865476Y-102992252D01*
X130913095Y-103039871D01*
X130960714Y-103135109D01*
X130960714Y-103373204D01*
X130913095Y-103468442D01*
X130865476Y-103516061D01*
X130770238Y-103563680D01*
X130484523Y-103563680D01*
X130389285Y-103516061D01*
X130341666Y-103468442D01*
X129995633Y-98064580D02*
X129662300Y-97588390D01*
X129424204Y-98064580D02*
X129424204Y-97064580D01*
X129805157Y-97064580D01*
X129900395Y-97112200D01*
X129948014Y-97159819D01*
X129995633Y-97255057D01*
X129995633Y-97397914D01*
X129948014Y-97493152D01*
X129900395Y-97540771D01*
X129805157Y-97588390D01*
X129424204Y-97588390D01*
X130376585Y-97159819D02*
X130424204Y-97112200D01*
X130519442Y-97064580D01*
X130757538Y-97064580D01*
X130852776Y-97112200D01*
X130900395Y-97159819D01*
X130948014Y-97255057D01*
X130948014Y-97350295D01*
X130900395Y-97493152D01*
X130328966Y-98064580D01*
X130948014Y-98064580D01*
X154606666Y-136402380D02*
X154606666Y-137116666D01*
X154559047Y-137259523D01*
X154463809Y-137354761D01*
X154320952Y-137402380D01*
X154225714Y-137402380D01*
X155225714Y-136830952D02*
X155130476Y-136783333D01*
X155082857Y-136735714D01*
X155035238Y-136640476D01*
X155035238Y-136592857D01*
X155082857Y-136497619D01*
X155130476Y-136450000D01*
X155225714Y-136402380D01*
X155416190Y-136402380D01*
X155511428Y-136450000D01*
X155559047Y-136497619D01*
X155606666Y-136592857D01*
X155606666Y-136640476D01*
X155559047Y-136735714D01*
X155511428Y-136783333D01*
X155416190Y-136830952D01*
X155225714Y-136830952D01*
X155130476Y-136878571D01*
X155082857Y-136926190D01*
X155035238Y-137021428D01*
X155035238Y-137211904D01*
X155082857Y-137307142D01*
X155130476Y-137354761D01*
X155225714Y-137402380D01*
X155416190Y-137402380D01*
X155511428Y-137354761D01*
X155559047Y-137307142D01*
X155606666Y-137211904D01*
X155606666Y-137021428D01*
X155559047Y-136926190D01*
X155511428Y-136878571D01*
X155416190Y-136830952D01*
X103891666Y-104552380D02*
X103891666Y-105266666D01*
X103844047Y-105409523D01*
X103748809Y-105504761D01*
X103605952Y-105552380D01*
X103510714Y-105552380D01*
X104844047Y-104552380D02*
X104367857Y-104552380D01*
X104320238Y-105028571D01*
X104367857Y-104980952D01*
X104463095Y-104933333D01*
X104701190Y-104933333D01*
X104796428Y-104980952D01*
X104844047Y-105028571D01*
X104891666Y-105123809D01*
X104891666Y-105361904D01*
X104844047Y-105457142D01*
X104796428Y-105504761D01*
X104701190Y-105552380D01*
X104463095Y-105552380D01*
X104367857Y-105504761D01*
X104320238Y-105457142D01*
X103866666Y-117727380D02*
X103866666Y-118441666D01*
X103819047Y-118584523D01*
X103723809Y-118679761D01*
X103580952Y-118727380D01*
X103485714Y-118727380D01*
X104771428Y-117727380D02*
X104580952Y-117727380D01*
X104485714Y-117775000D01*
X104438095Y-117822619D01*
X104342857Y-117965476D01*
X104295238Y-118155952D01*
X104295238Y-118536904D01*
X104342857Y-118632142D01*
X104390476Y-118679761D01*
X104485714Y-118727380D01*
X104676190Y-118727380D01*
X104771428Y-118679761D01*
X104819047Y-118632142D01*
X104866666Y-118536904D01*
X104866666Y-118298809D01*
X104819047Y-118203571D01*
X104771428Y-118155952D01*
X104676190Y-118108333D01*
X104485714Y-118108333D01*
X104390476Y-118155952D01*
X104342857Y-118203571D01*
X104295238Y-118298809D01*
X162226666Y-65492380D02*
X162226666Y-66206666D01*
X162179047Y-66349523D01*
X162083809Y-66444761D01*
X161940952Y-66492380D01*
X161845714Y-66492380D01*
X162655238Y-65587619D02*
X162702857Y-65540000D01*
X162798095Y-65492380D01*
X163036190Y-65492380D01*
X163131428Y-65540000D01*
X163179047Y-65587619D01*
X163226666Y-65682857D01*
X163226666Y-65778095D01*
X163179047Y-65920952D01*
X162607619Y-66492380D01*
X163226666Y-66492380D01*
X156689466Y-84732880D02*
X156689466Y-85447166D01*
X156641847Y-85590023D01*
X156546609Y-85685261D01*
X156403752Y-85732880D01*
X156308514Y-85732880D01*
X157689466Y-85732880D02*
X157118038Y-85732880D01*
X157403752Y-85732880D02*
X157403752Y-84732880D01*
X157308514Y-84875738D01*
X157213276Y-84970976D01*
X157118038Y-85018595D01*
%LPC*%
D16*
X130454238Y-49200000D03*
X132994238Y-49200000D03*
X135534238Y-49200000D03*
G36*
G01*
X137224238Y-48299200D02*
X138924238Y-48299200D01*
G75*
G02*
X138975038Y-48350000I0J-50800D01*
G01*
X138975038Y-50050000D01*
G75*
G02*
X138924238Y-50100800I-50800J0D01*
G01*
X137224238Y-50100800D01*
G75*
G02*
X137173438Y-50050000I0J50800D01*
G01*
X137173438Y-48350000D01*
G75*
G02*
X137224238Y-48299200I50800J0D01*
G01*
G37*
X104190800Y-129146300D03*
X104190800Y-126606300D03*
X104190800Y-124066300D03*
G36*
G01*
X103290000Y-122376300D02*
X103290000Y-120676300D01*
G75*
G02*
X103340800Y-120625500I50800J0D01*
G01*
X105040800Y-120625500D01*
G75*
G02*
X105091600Y-120676300I0J-50800D01*
G01*
X105091600Y-122376300D01*
G75*
G02*
X105040800Y-122427100I-50800J0D01*
G01*
X103340800Y-122427100D01*
G75*
G02*
X103290000Y-122376300I0J50800D01*
G01*
G37*
D17*
G36*
X139256113Y-67474802D02*
G01*
X139274534Y-67474802D01*
X139279514Y-67475047D01*
X139328345Y-67479857D01*
X139333275Y-67480588D01*
X139381400Y-67490160D01*
X139386237Y-67491372D01*
X139433192Y-67505616D01*
X139437885Y-67507295D01*
X139483218Y-67526072D01*
X139487726Y-67528204D01*
X139530999Y-67551335D01*
X139535273Y-67553897D01*
X139576072Y-67581157D01*
X139580077Y-67584127D01*
X139618006Y-67615255D01*
X139621700Y-67618603D01*
X139656397Y-67653300D01*
X139659745Y-67656994D01*
X139690873Y-67694923D01*
X139693843Y-67698928D01*
X139721103Y-67739727D01*
X139723665Y-67744001D01*
X139746796Y-67787274D01*
X139748928Y-67791782D01*
X139767705Y-67837115D01*
X139769384Y-67841808D01*
X139783628Y-67888763D01*
X139784840Y-67893600D01*
X139794412Y-67941725D01*
X139795143Y-67946655D01*
X139799953Y-67995486D01*
X139800198Y-68000466D01*
X139800198Y-68018887D01*
X139800800Y-68025000D01*
X139800800Y-68525000D01*
X139800198Y-68531113D01*
X139800198Y-68549534D01*
X139799953Y-68554514D01*
X139795143Y-68603345D01*
X139794412Y-68608275D01*
X139784840Y-68656400D01*
X139783628Y-68661237D01*
X139769384Y-68708192D01*
X139767705Y-68712885D01*
X139748928Y-68758218D01*
X139746796Y-68762726D01*
X139723665Y-68805999D01*
X139721103Y-68810273D01*
X139693843Y-68851072D01*
X139690873Y-68855077D01*
X139659745Y-68893006D01*
X139656397Y-68896700D01*
X139621700Y-68931397D01*
X139618006Y-68934745D01*
X139580077Y-68965873D01*
X139576072Y-68968843D01*
X139535273Y-68996103D01*
X139530999Y-68998665D01*
X139487726Y-69021796D01*
X139483218Y-69023928D01*
X139437885Y-69042705D01*
X139433192Y-69044384D01*
X139386237Y-69058628D01*
X139381400Y-69059840D01*
X139333275Y-69069412D01*
X139328345Y-69070143D01*
X139279514Y-69074953D01*
X139274534Y-69075198D01*
X139256113Y-69075198D01*
X139250000Y-69075800D01*
X138750000Y-69075800D01*
X138740089Y-69074824D01*
X138730560Y-69071933D01*
X138721777Y-69067239D01*
X138714079Y-69060921D01*
X138707761Y-69053223D01*
X138703067Y-69044440D01*
X138700176Y-69034911D01*
X138699200Y-69025000D01*
X138699200Y-67525000D01*
X138700176Y-67515089D01*
X138703067Y-67505560D01*
X138707761Y-67496777D01*
X138714079Y-67489079D01*
X138721777Y-67482761D01*
X138730560Y-67478067D01*
X138740089Y-67475176D01*
X138750000Y-67474200D01*
X139250000Y-67474200D01*
X139256113Y-67474802D01*
G37*
G36*
X138459911Y-67475176D02*
G01*
X138469440Y-67478067D01*
X138478223Y-67482761D01*
X138485921Y-67489079D01*
X138492239Y-67496777D01*
X138496933Y-67505560D01*
X138499824Y-67515089D01*
X138500800Y-67525000D01*
X138500800Y-69025000D01*
X138499824Y-69034911D01*
X138496933Y-69044440D01*
X138492239Y-69053223D01*
X138485921Y-69060921D01*
X138478223Y-69067239D01*
X138469440Y-69071933D01*
X138459911Y-69074824D01*
X138450000Y-69075800D01*
X137950000Y-69075800D01*
X137943887Y-69075198D01*
X137925466Y-69075198D01*
X137920486Y-69074953D01*
X137871655Y-69070143D01*
X137866725Y-69069412D01*
X137818600Y-69059840D01*
X137813763Y-69058628D01*
X137766808Y-69044384D01*
X137762115Y-69042705D01*
X137716782Y-69023928D01*
X137712274Y-69021796D01*
X137669001Y-68998665D01*
X137664727Y-68996103D01*
X137623928Y-68968843D01*
X137619923Y-68965873D01*
X137581994Y-68934745D01*
X137578300Y-68931397D01*
X137543603Y-68896700D01*
X137540255Y-68893006D01*
X137509127Y-68855077D01*
X137506157Y-68851072D01*
X137478897Y-68810273D01*
X137476335Y-68805999D01*
X137453204Y-68762726D01*
X137451072Y-68758218D01*
X137432295Y-68712885D01*
X137430616Y-68708192D01*
X137416372Y-68661237D01*
X137415160Y-68656400D01*
X137405588Y-68608275D01*
X137404857Y-68603345D01*
X137400047Y-68554514D01*
X137399802Y-68549534D01*
X137399802Y-68531113D01*
X137399200Y-68525000D01*
X137399200Y-68025000D01*
X137399802Y-68018887D01*
X137399802Y-68000466D01*
X137400047Y-67995486D01*
X137404857Y-67946655D01*
X137405588Y-67941725D01*
X137415160Y-67893600D01*
X137416372Y-67888763D01*
X137430616Y-67841808D01*
X137432295Y-67837115D01*
X137451072Y-67791782D01*
X137453204Y-67787274D01*
X137476335Y-67744001D01*
X137478897Y-67739727D01*
X137506157Y-67698928D01*
X137509127Y-67694923D01*
X137540255Y-67656994D01*
X137543603Y-67653300D01*
X137578300Y-67618603D01*
X137581994Y-67615255D01*
X137619923Y-67584127D01*
X137623928Y-67581157D01*
X137664727Y-67553897D01*
X137669001Y-67551335D01*
X137712274Y-67528204D01*
X137716782Y-67526072D01*
X137762115Y-67507295D01*
X137766808Y-67505616D01*
X137813763Y-67491372D01*
X137818600Y-67490160D01*
X137866725Y-67480588D01*
X137871655Y-67479857D01*
X137920486Y-67475047D01*
X137925466Y-67474802D01*
X137943887Y-67474802D01*
X137950000Y-67474200D01*
X138450000Y-67474200D01*
X138459911Y-67475176D01*
G37*
G36*
X141468887Y-67675198D02*
G01*
X141450466Y-67675198D01*
X141445486Y-67674953D01*
X141396655Y-67670143D01*
X141391725Y-67669412D01*
X141343600Y-67659840D01*
X141338763Y-67658628D01*
X141291808Y-67644384D01*
X141287115Y-67642705D01*
X141241782Y-67623928D01*
X141237274Y-67621796D01*
X141194001Y-67598665D01*
X141189727Y-67596103D01*
X141148928Y-67568843D01*
X141144923Y-67565873D01*
X141106994Y-67534745D01*
X141103300Y-67531397D01*
X141068603Y-67496700D01*
X141065255Y-67493006D01*
X141034127Y-67455077D01*
X141031157Y-67451072D01*
X141003897Y-67410273D01*
X141001335Y-67405999D01*
X140978204Y-67362726D01*
X140976072Y-67358218D01*
X140957295Y-67312885D01*
X140955616Y-67308192D01*
X140941372Y-67261237D01*
X140940160Y-67256400D01*
X140930588Y-67208275D01*
X140929857Y-67203345D01*
X140925047Y-67154514D01*
X140924802Y-67149534D01*
X140924802Y-67131113D01*
X140924200Y-67125000D01*
X140924200Y-66625000D01*
X140924802Y-66618887D01*
X140924802Y-66600466D01*
X140925047Y-66595486D01*
X140929857Y-66546655D01*
X140930588Y-66541725D01*
X140940160Y-66493600D01*
X140941372Y-66488763D01*
X140955616Y-66441808D01*
X140957295Y-66437115D01*
X140976072Y-66391782D01*
X140978204Y-66387274D01*
X141001335Y-66344001D01*
X141003897Y-66339727D01*
X141031157Y-66298928D01*
X141034127Y-66294923D01*
X141065255Y-66256994D01*
X141068603Y-66253300D01*
X141103300Y-66218603D01*
X141106994Y-66215255D01*
X141144923Y-66184127D01*
X141148928Y-66181157D01*
X141189727Y-66153897D01*
X141194001Y-66151335D01*
X141237274Y-66128204D01*
X141241782Y-66126072D01*
X141287115Y-66107295D01*
X141291808Y-66105616D01*
X141338763Y-66091372D01*
X141343600Y-66090160D01*
X141391725Y-66080588D01*
X141396655Y-66079857D01*
X141445486Y-66075047D01*
X141450466Y-66074802D01*
X141468887Y-66074802D01*
X141475000Y-66074200D01*
X141975000Y-66074200D01*
X141984911Y-66075176D01*
X141994440Y-66078067D01*
X142003223Y-66082761D01*
X142010921Y-66089079D01*
X142017239Y-66096777D01*
X142021933Y-66105560D01*
X142024824Y-66115089D01*
X142025800Y-66125000D01*
X142025800Y-67625000D01*
X142024824Y-67634911D01*
X142021933Y-67644440D01*
X142017239Y-67653223D01*
X142010921Y-67660921D01*
X142003223Y-67667239D01*
X141994440Y-67671933D01*
X141984911Y-67674824D01*
X141975000Y-67675800D01*
X141475000Y-67675800D01*
X141468887Y-67675198D01*
G37*
G36*
X142265089Y-67674824D02*
G01*
X142255560Y-67671933D01*
X142246777Y-67667239D01*
X142239079Y-67660921D01*
X142232761Y-67653223D01*
X142228067Y-67644440D01*
X142225176Y-67634911D01*
X142224200Y-67625000D01*
X142224200Y-66125000D01*
X142225176Y-66115089D01*
X142228067Y-66105560D01*
X142232761Y-66096777D01*
X142239079Y-66089079D01*
X142246777Y-66082761D01*
X142255560Y-66078067D01*
X142265089Y-66075176D01*
X142275000Y-66074200D01*
X142775000Y-66074200D01*
X142781113Y-66074802D01*
X142799534Y-66074802D01*
X142804514Y-66075047D01*
X142853345Y-66079857D01*
X142858275Y-66080588D01*
X142906400Y-66090160D01*
X142911237Y-66091372D01*
X142958192Y-66105616D01*
X142962885Y-66107295D01*
X143008218Y-66126072D01*
X143012726Y-66128204D01*
X143055999Y-66151335D01*
X143060273Y-66153897D01*
X143101072Y-66181157D01*
X143105077Y-66184127D01*
X143143006Y-66215255D01*
X143146700Y-66218603D01*
X143181397Y-66253300D01*
X143184745Y-66256994D01*
X143215873Y-66294923D01*
X143218843Y-66298928D01*
X143246103Y-66339727D01*
X143248665Y-66344001D01*
X143271796Y-66387274D01*
X143273928Y-66391782D01*
X143292705Y-66437115D01*
X143294384Y-66441808D01*
X143308628Y-66488763D01*
X143309840Y-66493600D01*
X143319412Y-66541725D01*
X143320143Y-66546655D01*
X143324953Y-66595486D01*
X143325198Y-66600466D01*
X143325198Y-66618887D01*
X143325800Y-66625000D01*
X143325800Y-67125000D01*
X143325198Y-67131113D01*
X143325198Y-67149534D01*
X143324953Y-67154514D01*
X143320143Y-67203345D01*
X143319412Y-67208275D01*
X143309840Y-67256400D01*
X143308628Y-67261237D01*
X143294384Y-67308192D01*
X143292705Y-67312885D01*
X143273928Y-67358218D01*
X143271796Y-67362726D01*
X143248665Y-67405999D01*
X143246103Y-67410273D01*
X143218843Y-67451072D01*
X143215873Y-67455077D01*
X143184745Y-67493006D01*
X143181397Y-67496700D01*
X143146700Y-67531397D01*
X143143006Y-67534745D01*
X143105077Y-67565873D01*
X143101072Y-67568843D01*
X143060273Y-67596103D01*
X143055999Y-67598665D01*
X143012726Y-67621796D01*
X143008218Y-67623928D01*
X142962885Y-67642705D01*
X142958192Y-67644384D01*
X142911237Y-67658628D01*
X142906400Y-67659840D01*
X142858275Y-67669412D01*
X142853345Y-67670143D01*
X142804514Y-67674953D01*
X142799534Y-67675198D01*
X142781113Y-67675198D01*
X142775000Y-67675800D01*
X142275000Y-67675800D01*
X142265089Y-67674824D01*
G37*
G36*
X165569802Y-67468887D02*
G01*
X165569802Y-67450466D01*
X165570047Y-67445486D01*
X165574857Y-67396655D01*
X165575588Y-67391725D01*
X165585160Y-67343600D01*
X165586372Y-67338763D01*
X165600616Y-67291808D01*
X165602295Y-67287115D01*
X165621072Y-67241782D01*
X165623204Y-67237274D01*
X165646335Y-67194001D01*
X165648897Y-67189727D01*
X165676157Y-67148928D01*
X165679127Y-67144923D01*
X165710255Y-67106994D01*
X165713603Y-67103300D01*
X165748300Y-67068603D01*
X165751994Y-67065255D01*
X165789923Y-67034127D01*
X165793928Y-67031157D01*
X165834727Y-67003897D01*
X165839001Y-67001335D01*
X165882274Y-66978204D01*
X165886782Y-66976072D01*
X165932115Y-66957295D01*
X165936808Y-66955616D01*
X165983763Y-66941372D01*
X165988600Y-66940160D01*
X166036725Y-66930588D01*
X166041655Y-66929857D01*
X166090486Y-66925047D01*
X166095466Y-66924802D01*
X166113887Y-66924802D01*
X166120000Y-66924200D01*
X166620000Y-66924200D01*
X166626113Y-66924802D01*
X166644534Y-66924802D01*
X166649514Y-66925047D01*
X166698345Y-66929857D01*
X166703275Y-66930588D01*
X166751400Y-66940160D01*
X166756237Y-66941372D01*
X166803192Y-66955616D01*
X166807885Y-66957295D01*
X166853218Y-66976072D01*
X166857726Y-66978204D01*
X166900999Y-67001335D01*
X166905273Y-67003897D01*
X166946072Y-67031157D01*
X166950077Y-67034127D01*
X166988006Y-67065255D01*
X166991700Y-67068603D01*
X167026397Y-67103300D01*
X167029745Y-67106994D01*
X167060873Y-67144923D01*
X167063843Y-67148928D01*
X167091103Y-67189727D01*
X167093665Y-67194001D01*
X167116796Y-67237274D01*
X167118928Y-67241782D01*
X167137705Y-67287115D01*
X167139384Y-67291808D01*
X167153628Y-67338763D01*
X167154840Y-67343600D01*
X167164412Y-67391725D01*
X167165143Y-67396655D01*
X167169953Y-67445486D01*
X167170198Y-67450466D01*
X167170198Y-67468887D01*
X167170800Y-67475000D01*
X167170800Y-67975000D01*
X167169824Y-67984911D01*
X167166933Y-67994440D01*
X167162239Y-68003223D01*
X167155921Y-68010921D01*
X167148223Y-68017239D01*
X167139440Y-68021933D01*
X167129911Y-68024824D01*
X167120000Y-68025800D01*
X165620000Y-68025800D01*
X165610089Y-68024824D01*
X165600560Y-68021933D01*
X165591777Y-68017239D01*
X165584079Y-68010921D01*
X165577761Y-68003223D01*
X165573067Y-67994440D01*
X165570176Y-67984911D01*
X165569200Y-67975000D01*
X165569200Y-67475000D01*
X165569802Y-67468887D01*
G37*
G36*
X165570176Y-68265089D02*
G01*
X165573067Y-68255560D01*
X165577761Y-68246777D01*
X165584079Y-68239079D01*
X165591777Y-68232761D01*
X165600560Y-68228067D01*
X165610089Y-68225176D01*
X165620000Y-68224200D01*
X167120000Y-68224200D01*
X167129911Y-68225176D01*
X167139440Y-68228067D01*
X167148223Y-68232761D01*
X167155921Y-68239079D01*
X167162239Y-68246777D01*
X167166933Y-68255560D01*
X167169824Y-68265089D01*
X167170800Y-68275000D01*
X167170800Y-68775000D01*
X167170198Y-68781113D01*
X167170198Y-68799534D01*
X167169953Y-68804514D01*
X167165143Y-68853345D01*
X167164412Y-68858275D01*
X167154840Y-68906400D01*
X167153628Y-68911237D01*
X167139384Y-68958192D01*
X167137705Y-68962885D01*
X167118928Y-69008218D01*
X167116796Y-69012726D01*
X167093665Y-69055999D01*
X167091103Y-69060273D01*
X167063843Y-69101072D01*
X167060873Y-69105077D01*
X167029745Y-69143006D01*
X167026397Y-69146700D01*
X166991700Y-69181397D01*
X166988006Y-69184745D01*
X166950077Y-69215873D01*
X166946072Y-69218843D01*
X166905273Y-69246103D01*
X166900999Y-69248665D01*
X166857726Y-69271796D01*
X166853218Y-69273928D01*
X166807885Y-69292705D01*
X166803192Y-69294384D01*
X166756237Y-69308628D01*
X166751400Y-69309840D01*
X166703275Y-69319412D01*
X166698345Y-69320143D01*
X166649514Y-69324953D01*
X166644534Y-69325198D01*
X166626113Y-69325198D01*
X166620000Y-69325800D01*
X166120000Y-69325800D01*
X166113887Y-69325198D01*
X166095466Y-69325198D01*
X166090486Y-69324953D01*
X166041655Y-69320143D01*
X166036725Y-69319412D01*
X165988600Y-69309840D01*
X165983763Y-69308628D01*
X165936808Y-69294384D01*
X165932115Y-69292705D01*
X165886782Y-69273928D01*
X165882274Y-69271796D01*
X165839001Y-69248665D01*
X165834727Y-69246103D01*
X165793928Y-69218843D01*
X165789923Y-69215873D01*
X165751994Y-69184745D01*
X165748300Y-69181397D01*
X165713603Y-69146700D01*
X165710255Y-69143006D01*
X165679127Y-69105077D01*
X165676157Y-69101072D01*
X165648897Y-69060273D01*
X165646335Y-69055999D01*
X165623204Y-69012726D01*
X165621072Y-69008218D01*
X165602295Y-68962885D01*
X165600616Y-68958192D01*
X165586372Y-68911237D01*
X165585160Y-68906400D01*
X165575588Y-68858275D01*
X165574857Y-68853345D01*
X165570047Y-68804514D01*
X165569802Y-68799534D01*
X165569802Y-68781113D01*
X165569200Y-68775000D01*
X165569200Y-68275000D01*
X165570176Y-68265089D01*
G37*
G36*
X148843887Y-66825198D02*
G01*
X148825466Y-66825198D01*
X148820486Y-66824953D01*
X148771655Y-66820143D01*
X148766725Y-66819412D01*
X148718600Y-66809840D01*
X148713763Y-66808628D01*
X148666808Y-66794384D01*
X148662115Y-66792705D01*
X148616782Y-66773928D01*
X148612274Y-66771796D01*
X148569001Y-66748665D01*
X148564727Y-66746103D01*
X148523928Y-66718843D01*
X148519923Y-66715873D01*
X148481994Y-66684745D01*
X148478300Y-66681397D01*
X148443603Y-66646700D01*
X148440255Y-66643006D01*
X148409127Y-66605077D01*
X148406157Y-66601072D01*
X148378897Y-66560273D01*
X148376335Y-66555999D01*
X148353204Y-66512726D01*
X148351072Y-66508218D01*
X148332295Y-66462885D01*
X148330616Y-66458192D01*
X148316372Y-66411237D01*
X148315160Y-66406400D01*
X148305588Y-66358275D01*
X148304857Y-66353345D01*
X148300047Y-66304514D01*
X148299802Y-66299534D01*
X148299802Y-66281113D01*
X148299200Y-66275000D01*
X148299200Y-65775000D01*
X148299802Y-65768887D01*
X148299802Y-65750466D01*
X148300047Y-65745486D01*
X148304857Y-65696655D01*
X148305588Y-65691725D01*
X148315160Y-65643600D01*
X148316372Y-65638763D01*
X148330616Y-65591808D01*
X148332295Y-65587115D01*
X148351072Y-65541782D01*
X148353204Y-65537274D01*
X148376335Y-65494001D01*
X148378897Y-65489727D01*
X148406157Y-65448928D01*
X148409127Y-65444923D01*
X148440255Y-65406994D01*
X148443603Y-65403300D01*
X148478300Y-65368603D01*
X148481994Y-65365255D01*
X148519923Y-65334127D01*
X148523928Y-65331157D01*
X148564727Y-65303897D01*
X148569001Y-65301335D01*
X148612274Y-65278204D01*
X148616782Y-65276072D01*
X148662115Y-65257295D01*
X148666808Y-65255616D01*
X148713763Y-65241372D01*
X148718600Y-65240160D01*
X148766725Y-65230588D01*
X148771655Y-65229857D01*
X148820486Y-65225047D01*
X148825466Y-65224802D01*
X148843887Y-65224802D01*
X148850000Y-65224200D01*
X149350000Y-65224200D01*
X149359911Y-65225176D01*
X149369440Y-65228067D01*
X149378223Y-65232761D01*
X149385921Y-65239079D01*
X149392239Y-65246777D01*
X149396933Y-65255560D01*
X149399824Y-65265089D01*
X149400800Y-65275000D01*
X149400800Y-66775000D01*
X149399824Y-66784911D01*
X149396933Y-66794440D01*
X149392239Y-66803223D01*
X149385921Y-66810921D01*
X149378223Y-66817239D01*
X149369440Y-66821933D01*
X149359911Y-66824824D01*
X149350000Y-66825800D01*
X148850000Y-66825800D01*
X148843887Y-66825198D01*
G37*
G36*
X149640089Y-66824824D02*
G01*
X149630560Y-66821933D01*
X149621777Y-66817239D01*
X149614079Y-66810921D01*
X149607761Y-66803223D01*
X149603067Y-66794440D01*
X149600176Y-66784911D01*
X149599200Y-66775000D01*
X149599200Y-65275000D01*
X149600176Y-65265089D01*
X149603067Y-65255560D01*
X149607761Y-65246777D01*
X149614079Y-65239079D01*
X149621777Y-65232761D01*
X149630560Y-65228067D01*
X149640089Y-65225176D01*
X149650000Y-65224200D01*
X150150000Y-65224200D01*
X150156113Y-65224802D01*
X150174534Y-65224802D01*
X150179514Y-65225047D01*
X150228345Y-65229857D01*
X150233275Y-65230588D01*
X150281400Y-65240160D01*
X150286237Y-65241372D01*
X150333192Y-65255616D01*
X150337885Y-65257295D01*
X150383218Y-65276072D01*
X150387726Y-65278204D01*
X150430999Y-65301335D01*
X150435273Y-65303897D01*
X150476072Y-65331157D01*
X150480077Y-65334127D01*
X150518006Y-65365255D01*
X150521700Y-65368603D01*
X150556397Y-65403300D01*
X150559745Y-65406994D01*
X150590873Y-65444923D01*
X150593843Y-65448928D01*
X150621103Y-65489727D01*
X150623665Y-65494001D01*
X150646796Y-65537274D01*
X150648928Y-65541782D01*
X150667705Y-65587115D01*
X150669384Y-65591808D01*
X150683628Y-65638763D01*
X150684840Y-65643600D01*
X150694412Y-65691725D01*
X150695143Y-65696655D01*
X150699953Y-65745486D01*
X150700198Y-65750466D01*
X150700198Y-65768887D01*
X150700800Y-65775000D01*
X150700800Y-66275000D01*
X150700198Y-66281113D01*
X150700198Y-66299534D01*
X150699953Y-66304514D01*
X150695143Y-66353345D01*
X150694412Y-66358275D01*
X150684840Y-66406400D01*
X150683628Y-66411237D01*
X150669384Y-66458192D01*
X150667705Y-66462885D01*
X150648928Y-66508218D01*
X150646796Y-66512726D01*
X150623665Y-66555999D01*
X150621103Y-66560273D01*
X150593843Y-66601072D01*
X150590873Y-66605077D01*
X150559745Y-66643006D01*
X150556397Y-66646700D01*
X150521700Y-66681397D01*
X150518006Y-66684745D01*
X150480077Y-66715873D01*
X150476072Y-66718843D01*
X150435273Y-66746103D01*
X150430999Y-66748665D01*
X150387726Y-66771796D01*
X150383218Y-66773928D01*
X150337885Y-66792705D01*
X150333192Y-66794384D01*
X150286237Y-66808628D01*
X150281400Y-66809840D01*
X150233275Y-66819412D01*
X150228345Y-66820143D01*
X150179514Y-66824953D01*
X150174534Y-66825198D01*
X150156113Y-66825198D01*
X150150000Y-66825800D01*
X149650000Y-66825800D01*
X149640089Y-66824824D01*
G37*
G36*
X119602047Y-69599638D02*
G01*
X119583626Y-69599638D01*
X119578646Y-69599393D01*
X119529815Y-69594583D01*
X119524885Y-69593852D01*
X119476760Y-69584280D01*
X119471923Y-69583068D01*
X119424968Y-69568824D01*
X119420275Y-69567145D01*
X119374942Y-69548368D01*
X119370434Y-69546236D01*
X119327161Y-69523105D01*
X119322887Y-69520543D01*
X119282088Y-69493283D01*
X119278083Y-69490313D01*
X119240154Y-69459185D01*
X119236460Y-69455837D01*
X119201763Y-69421140D01*
X119198415Y-69417446D01*
X119167287Y-69379517D01*
X119164317Y-69375512D01*
X119137057Y-69334713D01*
X119134495Y-69330439D01*
X119111364Y-69287166D01*
X119109232Y-69282658D01*
X119090455Y-69237325D01*
X119088776Y-69232632D01*
X119074532Y-69185677D01*
X119073320Y-69180840D01*
X119063748Y-69132715D01*
X119063017Y-69127785D01*
X119058207Y-69078954D01*
X119057962Y-69073974D01*
X119057962Y-69055553D01*
X119057360Y-69049440D01*
X119057360Y-68549440D01*
X119057962Y-68543327D01*
X119057962Y-68524906D01*
X119058207Y-68519926D01*
X119063017Y-68471095D01*
X119063748Y-68466165D01*
X119073320Y-68418040D01*
X119074532Y-68413203D01*
X119088776Y-68366248D01*
X119090455Y-68361555D01*
X119109232Y-68316222D01*
X119111364Y-68311714D01*
X119134495Y-68268441D01*
X119137057Y-68264167D01*
X119164317Y-68223368D01*
X119167287Y-68219363D01*
X119198415Y-68181434D01*
X119201763Y-68177740D01*
X119236460Y-68143043D01*
X119240154Y-68139695D01*
X119278083Y-68108567D01*
X119282088Y-68105597D01*
X119322887Y-68078337D01*
X119327161Y-68075775D01*
X119370434Y-68052644D01*
X119374942Y-68050512D01*
X119420275Y-68031735D01*
X119424968Y-68030056D01*
X119471923Y-68015812D01*
X119476760Y-68014600D01*
X119524885Y-68005028D01*
X119529815Y-68004297D01*
X119578646Y-67999487D01*
X119583626Y-67999242D01*
X119602047Y-67999242D01*
X119608160Y-67998640D01*
X120108160Y-67998640D01*
X120118071Y-67999616D01*
X120127600Y-68002507D01*
X120136383Y-68007201D01*
X120144081Y-68013519D01*
X120150399Y-68021217D01*
X120155093Y-68030000D01*
X120157984Y-68039529D01*
X120158960Y-68049440D01*
X120158960Y-69549440D01*
X120157984Y-69559351D01*
X120155093Y-69568880D01*
X120150399Y-69577663D01*
X120144081Y-69585361D01*
X120136383Y-69591679D01*
X120127600Y-69596373D01*
X120118071Y-69599264D01*
X120108160Y-69600240D01*
X119608160Y-69600240D01*
X119602047Y-69599638D01*
G37*
G36*
X120398249Y-69599264D02*
G01*
X120388720Y-69596373D01*
X120379937Y-69591679D01*
X120372239Y-69585361D01*
X120365921Y-69577663D01*
X120361227Y-69568880D01*
X120358336Y-69559351D01*
X120357360Y-69549440D01*
X120357360Y-68049440D01*
X120358336Y-68039529D01*
X120361227Y-68030000D01*
X120365921Y-68021217D01*
X120372239Y-68013519D01*
X120379937Y-68007201D01*
X120388720Y-68002507D01*
X120398249Y-67999616D01*
X120408160Y-67998640D01*
X120908160Y-67998640D01*
X120914273Y-67999242D01*
X120932694Y-67999242D01*
X120937674Y-67999487D01*
X120986505Y-68004297D01*
X120991435Y-68005028D01*
X121039560Y-68014600D01*
X121044397Y-68015812D01*
X121091352Y-68030056D01*
X121096045Y-68031735D01*
X121141378Y-68050512D01*
X121145886Y-68052644D01*
X121189159Y-68075775D01*
X121193433Y-68078337D01*
X121234232Y-68105597D01*
X121238237Y-68108567D01*
X121276166Y-68139695D01*
X121279860Y-68143043D01*
X121314557Y-68177740D01*
X121317905Y-68181434D01*
X121349033Y-68219363D01*
X121352003Y-68223368D01*
X121379263Y-68264167D01*
X121381825Y-68268441D01*
X121404956Y-68311714D01*
X121407088Y-68316222D01*
X121425865Y-68361555D01*
X121427544Y-68366248D01*
X121441788Y-68413203D01*
X121443000Y-68418040D01*
X121452572Y-68466165D01*
X121453303Y-68471095D01*
X121458113Y-68519926D01*
X121458358Y-68524906D01*
X121458358Y-68543327D01*
X121458960Y-68549440D01*
X121458960Y-69049440D01*
X121458358Y-69055553D01*
X121458358Y-69073974D01*
X121458113Y-69078954D01*
X121453303Y-69127785D01*
X121452572Y-69132715D01*
X121443000Y-69180840D01*
X121441788Y-69185677D01*
X121427544Y-69232632D01*
X121425865Y-69237325D01*
X121407088Y-69282658D01*
X121404956Y-69287166D01*
X121381825Y-69330439D01*
X121379263Y-69334713D01*
X121352003Y-69375512D01*
X121349033Y-69379517D01*
X121317905Y-69417446D01*
X121314557Y-69421140D01*
X121279860Y-69455837D01*
X121276166Y-69459185D01*
X121238237Y-69490313D01*
X121234232Y-69493283D01*
X121193433Y-69520543D01*
X121189159Y-69523105D01*
X121145886Y-69546236D01*
X121141378Y-69548368D01*
X121096045Y-69567145D01*
X121091352Y-69568824D01*
X121044397Y-69583068D01*
X121039560Y-69584280D01*
X120991435Y-69593852D01*
X120986505Y-69594583D01*
X120937674Y-69599393D01*
X120932694Y-69599638D01*
X120914273Y-69599638D01*
X120908160Y-69600240D01*
X120408160Y-69600240D01*
X120398249Y-69599264D01*
G37*
G36*
X119597647Y-72047198D02*
G01*
X119579226Y-72047198D01*
X119574246Y-72046953D01*
X119525415Y-72042143D01*
X119520485Y-72041412D01*
X119472360Y-72031840D01*
X119467523Y-72030628D01*
X119420568Y-72016384D01*
X119415875Y-72014705D01*
X119370542Y-71995928D01*
X119366034Y-71993796D01*
X119322761Y-71970665D01*
X119318487Y-71968103D01*
X119277688Y-71940843D01*
X119273683Y-71937873D01*
X119235754Y-71906745D01*
X119232060Y-71903397D01*
X119197363Y-71868700D01*
X119194015Y-71865006D01*
X119162887Y-71827077D01*
X119159917Y-71823072D01*
X119132657Y-71782273D01*
X119130095Y-71777999D01*
X119106964Y-71734726D01*
X119104832Y-71730218D01*
X119086055Y-71684885D01*
X119084376Y-71680192D01*
X119070132Y-71633237D01*
X119068920Y-71628400D01*
X119059348Y-71580275D01*
X119058617Y-71575345D01*
X119053807Y-71526514D01*
X119053562Y-71521534D01*
X119053562Y-71503113D01*
X119052960Y-71497000D01*
X119052960Y-70997000D01*
X119053562Y-70990887D01*
X119053562Y-70972466D01*
X119053807Y-70967486D01*
X119058617Y-70918655D01*
X119059348Y-70913725D01*
X119068920Y-70865600D01*
X119070132Y-70860763D01*
X119084376Y-70813808D01*
X119086055Y-70809115D01*
X119104832Y-70763782D01*
X119106964Y-70759274D01*
X119130095Y-70716001D01*
X119132657Y-70711727D01*
X119159917Y-70670928D01*
X119162887Y-70666923D01*
X119194015Y-70628994D01*
X119197363Y-70625300D01*
X119232060Y-70590603D01*
X119235754Y-70587255D01*
X119273683Y-70556127D01*
X119277688Y-70553157D01*
X119318487Y-70525897D01*
X119322761Y-70523335D01*
X119366034Y-70500204D01*
X119370542Y-70498072D01*
X119415875Y-70479295D01*
X119420568Y-70477616D01*
X119467523Y-70463372D01*
X119472360Y-70462160D01*
X119520485Y-70452588D01*
X119525415Y-70451857D01*
X119574246Y-70447047D01*
X119579226Y-70446802D01*
X119597647Y-70446802D01*
X119603760Y-70446200D01*
X120103760Y-70446200D01*
X120113671Y-70447176D01*
X120123200Y-70450067D01*
X120131983Y-70454761D01*
X120139681Y-70461079D01*
X120145999Y-70468777D01*
X120150693Y-70477560D01*
X120153584Y-70487089D01*
X120154560Y-70497000D01*
X120154560Y-71997000D01*
X120153584Y-72006911D01*
X120150693Y-72016440D01*
X120145999Y-72025223D01*
X120139681Y-72032921D01*
X120131983Y-72039239D01*
X120123200Y-72043933D01*
X120113671Y-72046824D01*
X120103760Y-72047800D01*
X119603760Y-72047800D01*
X119597647Y-72047198D01*
G37*
G36*
X120393849Y-72046824D02*
G01*
X120384320Y-72043933D01*
X120375537Y-72039239D01*
X120367839Y-72032921D01*
X120361521Y-72025223D01*
X120356827Y-72016440D01*
X120353936Y-72006911D01*
X120352960Y-71997000D01*
X120352960Y-70497000D01*
X120353936Y-70487089D01*
X120356827Y-70477560D01*
X120361521Y-70468777D01*
X120367839Y-70461079D01*
X120375537Y-70454761D01*
X120384320Y-70450067D01*
X120393849Y-70447176D01*
X120403760Y-70446200D01*
X120903760Y-70446200D01*
X120909873Y-70446802D01*
X120928294Y-70446802D01*
X120933274Y-70447047D01*
X120982105Y-70451857D01*
X120987035Y-70452588D01*
X121035160Y-70462160D01*
X121039997Y-70463372D01*
X121086952Y-70477616D01*
X121091645Y-70479295D01*
X121136978Y-70498072D01*
X121141486Y-70500204D01*
X121184759Y-70523335D01*
X121189033Y-70525897D01*
X121229832Y-70553157D01*
X121233837Y-70556127D01*
X121271766Y-70587255D01*
X121275460Y-70590603D01*
X121310157Y-70625300D01*
X121313505Y-70628994D01*
X121344633Y-70666923D01*
X121347603Y-70670928D01*
X121374863Y-70711727D01*
X121377425Y-70716001D01*
X121400556Y-70759274D01*
X121402688Y-70763782D01*
X121421465Y-70809115D01*
X121423144Y-70813808D01*
X121437388Y-70860763D01*
X121438600Y-70865600D01*
X121448172Y-70913725D01*
X121448903Y-70918655D01*
X121453713Y-70967486D01*
X121453958Y-70972466D01*
X121453958Y-70990887D01*
X121454560Y-70997000D01*
X121454560Y-71497000D01*
X121453958Y-71503113D01*
X121453958Y-71521534D01*
X121453713Y-71526514D01*
X121448903Y-71575345D01*
X121448172Y-71580275D01*
X121438600Y-71628400D01*
X121437388Y-71633237D01*
X121423144Y-71680192D01*
X121421465Y-71684885D01*
X121402688Y-71730218D01*
X121400556Y-71734726D01*
X121377425Y-71777999D01*
X121374863Y-71782273D01*
X121347603Y-71823072D01*
X121344633Y-71827077D01*
X121313505Y-71865006D01*
X121310157Y-71868700D01*
X121275460Y-71903397D01*
X121271766Y-71906745D01*
X121233837Y-71937873D01*
X121229832Y-71940843D01*
X121189033Y-71968103D01*
X121184759Y-71970665D01*
X121141486Y-71993796D01*
X121136978Y-71995928D01*
X121091645Y-72014705D01*
X121086952Y-72016384D01*
X121039997Y-72030628D01*
X121035160Y-72031840D01*
X120987035Y-72041412D01*
X120982105Y-72042143D01*
X120933274Y-72046953D01*
X120928294Y-72047198D01*
X120909873Y-72047198D01*
X120903760Y-72047800D01*
X120403760Y-72047800D01*
X120393849Y-72046824D01*
G37*
G36*
X119602047Y-67152078D02*
G01*
X119583626Y-67152078D01*
X119578646Y-67151833D01*
X119529815Y-67147023D01*
X119524885Y-67146292D01*
X119476760Y-67136720D01*
X119471923Y-67135508D01*
X119424968Y-67121264D01*
X119420275Y-67119585D01*
X119374942Y-67100808D01*
X119370434Y-67098676D01*
X119327161Y-67075545D01*
X119322887Y-67072983D01*
X119282088Y-67045723D01*
X119278083Y-67042753D01*
X119240154Y-67011625D01*
X119236460Y-67008277D01*
X119201763Y-66973580D01*
X119198415Y-66969886D01*
X119167287Y-66931957D01*
X119164317Y-66927952D01*
X119137057Y-66887153D01*
X119134495Y-66882879D01*
X119111364Y-66839606D01*
X119109232Y-66835098D01*
X119090455Y-66789765D01*
X119088776Y-66785072D01*
X119074532Y-66738117D01*
X119073320Y-66733280D01*
X119063748Y-66685155D01*
X119063017Y-66680225D01*
X119058207Y-66631394D01*
X119057962Y-66626414D01*
X119057962Y-66607993D01*
X119057360Y-66601880D01*
X119057360Y-66101880D01*
X119057962Y-66095767D01*
X119057962Y-66077346D01*
X119058207Y-66072366D01*
X119063017Y-66023535D01*
X119063748Y-66018605D01*
X119073320Y-65970480D01*
X119074532Y-65965643D01*
X119088776Y-65918688D01*
X119090455Y-65913995D01*
X119109232Y-65868662D01*
X119111364Y-65864154D01*
X119134495Y-65820881D01*
X119137057Y-65816607D01*
X119164317Y-65775808D01*
X119167287Y-65771803D01*
X119198415Y-65733874D01*
X119201763Y-65730180D01*
X119236460Y-65695483D01*
X119240154Y-65692135D01*
X119278083Y-65661007D01*
X119282088Y-65658037D01*
X119322887Y-65630777D01*
X119327161Y-65628215D01*
X119370434Y-65605084D01*
X119374942Y-65602952D01*
X119420275Y-65584175D01*
X119424968Y-65582496D01*
X119471923Y-65568252D01*
X119476760Y-65567040D01*
X119524885Y-65557468D01*
X119529815Y-65556737D01*
X119578646Y-65551927D01*
X119583626Y-65551682D01*
X119602047Y-65551682D01*
X119608160Y-65551080D01*
X120108160Y-65551080D01*
X120118071Y-65552056D01*
X120127600Y-65554947D01*
X120136383Y-65559641D01*
X120144081Y-65565959D01*
X120150399Y-65573657D01*
X120155093Y-65582440D01*
X120157984Y-65591969D01*
X120158960Y-65601880D01*
X120158960Y-67101880D01*
X120157984Y-67111791D01*
X120155093Y-67121320D01*
X120150399Y-67130103D01*
X120144081Y-67137801D01*
X120136383Y-67144119D01*
X120127600Y-67148813D01*
X120118071Y-67151704D01*
X120108160Y-67152680D01*
X119608160Y-67152680D01*
X119602047Y-67152078D01*
G37*
G36*
X120398249Y-67151704D02*
G01*
X120388720Y-67148813D01*
X120379937Y-67144119D01*
X120372239Y-67137801D01*
X120365921Y-67130103D01*
X120361227Y-67121320D01*
X120358336Y-67111791D01*
X120357360Y-67101880D01*
X120357360Y-65601880D01*
X120358336Y-65591969D01*
X120361227Y-65582440D01*
X120365921Y-65573657D01*
X120372239Y-65565959D01*
X120379937Y-65559641D01*
X120388720Y-65554947D01*
X120398249Y-65552056D01*
X120408160Y-65551080D01*
X120908160Y-65551080D01*
X120914273Y-65551682D01*
X120932694Y-65551682D01*
X120937674Y-65551927D01*
X120986505Y-65556737D01*
X120991435Y-65557468D01*
X121039560Y-65567040D01*
X121044397Y-65568252D01*
X121091352Y-65582496D01*
X121096045Y-65584175D01*
X121141378Y-65602952D01*
X121145886Y-65605084D01*
X121189159Y-65628215D01*
X121193433Y-65630777D01*
X121234232Y-65658037D01*
X121238237Y-65661007D01*
X121276166Y-65692135D01*
X121279860Y-65695483D01*
X121314557Y-65730180D01*
X121317905Y-65733874D01*
X121349033Y-65771803D01*
X121352003Y-65775808D01*
X121379263Y-65816607D01*
X121381825Y-65820881D01*
X121404956Y-65864154D01*
X121407088Y-65868662D01*
X121425865Y-65913995D01*
X121427544Y-65918688D01*
X121441788Y-65965643D01*
X121443000Y-65970480D01*
X121452572Y-66018605D01*
X121453303Y-66023535D01*
X121458113Y-66072366D01*
X121458358Y-66077346D01*
X121458358Y-66095767D01*
X121458960Y-66101880D01*
X121458960Y-66601880D01*
X121458358Y-66607993D01*
X121458358Y-66626414D01*
X121458113Y-66631394D01*
X121453303Y-66680225D01*
X121452572Y-66685155D01*
X121443000Y-66733280D01*
X121441788Y-66738117D01*
X121427544Y-66785072D01*
X121425865Y-66789765D01*
X121407088Y-66835098D01*
X121404956Y-66839606D01*
X121381825Y-66882879D01*
X121379263Y-66887153D01*
X121352003Y-66927952D01*
X121349033Y-66931957D01*
X121317905Y-66969886D01*
X121314557Y-66973580D01*
X121279860Y-67008277D01*
X121276166Y-67011625D01*
X121238237Y-67042753D01*
X121234232Y-67045723D01*
X121193433Y-67072983D01*
X121189159Y-67075545D01*
X121145886Y-67098676D01*
X121141378Y-67100808D01*
X121096045Y-67119585D01*
X121091352Y-67121264D01*
X121044397Y-67135508D01*
X121039560Y-67136720D01*
X120991435Y-67146292D01*
X120986505Y-67147023D01*
X120937674Y-67151833D01*
X120932694Y-67152078D01*
X120914273Y-67152078D01*
X120908160Y-67152680D01*
X120408160Y-67152680D01*
X120398249Y-67151704D01*
G37*
D16*
X104200000Y-77980000D03*
X104200000Y-75440000D03*
X104200000Y-72900000D03*
X104200000Y-70360000D03*
X104200000Y-67820000D03*
X104200000Y-65280000D03*
X104200000Y-62740000D03*
G36*
G01*
X103299200Y-61050000D02*
X103299200Y-59350000D01*
G75*
G02*
X103350000Y-59299200I50800J0D01*
G01*
X105050000Y-59299200D01*
G75*
G02*
X105100800Y-59350000I0J-50800D01*
G01*
X105100800Y-61050000D01*
G75*
G02*
X105050000Y-61100800I-50800J0D01*
G01*
X103350000Y-61100800D01*
G75*
G02*
X103299200Y-61050000I0J50800D01*
G01*
G37*
G36*
G01*
X130498400Y-94242900D02*
X130498400Y-93717100D01*
G75*
G02*
X130761300Y-93454200I262900J0D01*
G01*
X131312100Y-93454200D01*
G75*
G02*
X131575000Y-93717100I0J-262900D01*
G01*
X131575000Y-94242900D01*
G75*
G02*
X131312100Y-94505800I-262900J0D01*
G01*
X130761300Y-94505800D01*
G75*
G02*
X130498400Y-94242900I0J262900D01*
G01*
G37*
G36*
G01*
X128673400Y-94242900D02*
X128673400Y-93717100D01*
G75*
G02*
X128936300Y-93454200I262900J0D01*
G01*
X129487100Y-93454200D01*
G75*
G02*
X129750000Y-93717100I0J-262900D01*
G01*
X129750000Y-94242900D01*
G75*
G02*
X129487100Y-94505800I-262900J0D01*
G01*
X128936300Y-94505800D01*
G75*
G02*
X128673400Y-94242900I0J262900D01*
G01*
G37*
G36*
G01*
X129811600Y-101324400D02*
X129811600Y-101850200D01*
G75*
G02*
X129548700Y-102113100I-262900J0D01*
G01*
X128997900Y-102113100D01*
G75*
G02*
X128735000Y-101850200I0J262900D01*
G01*
X128735000Y-101324400D01*
G75*
G02*
X128997900Y-101061500I262900J0D01*
G01*
X129548700Y-101061500D01*
G75*
G02*
X129811600Y-101324400I0J-262900D01*
G01*
G37*
G36*
G01*
X131636600Y-101324400D02*
X131636600Y-101850200D01*
G75*
G02*
X131373700Y-102113100I-262900J0D01*
G01*
X130822900Y-102113100D01*
G75*
G02*
X130560000Y-101850200I0J262900D01*
G01*
X130560000Y-101324400D01*
G75*
G02*
X130822900Y-101061500I262900J0D01*
G01*
X131373700Y-101061500D01*
G75*
G02*
X131636600Y-101324400I0J-262900D01*
G01*
G37*
G36*
G01*
X129788100Y-98822500D02*
X129788100Y-99348300D01*
G75*
G02*
X129525200Y-99611200I-262900J0D01*
G01*
X128974400Y-99611200D01*
G75*
G02*
X128711500Y-99348300I0J262900D01*
G01*
X128711500Y-98822500D01*
G75*
G02*
X128974400Y-98559600I262900J0D01*
G01*
X129525200Y-98559600D01*
G75*
G02*
X129788100Y-98822500I0J-262900D01*
G01*
G37*
G36*
G01*
X131613100Y-98822500D02*
X131613100Y-99348300D01*
G75*
G02*
X131350200Y-99611200I-262900J0D01*
G01*
X130799400Y-99611200D01*
G75*
G02*
X130536500Y-99348300I0J262900D01*
G01*
X130536500Y-98822500D01*
G75*
G02*
X130799400Y-98559600I262900J0D01*
G01*
X131350200Y-98559600D01*
G75*
G02*
X131613100Y-98822500I0J-262900D01*
G01*
G37*
X154940000Y-132080000D03*
G36*
G01*
X155840800Y-133770000D02*
X155840800Y-135470000D01*
G75*
G02*
X155790000Y-135520800I-50800J0D01*
G01*
X154090000Y-135520800D01*
G75*
G02*
X154039200Y-135470000I0J50800D01*
G01*
X154039200Y-133770000D01*
G75*
G02*
X154090000Y-133719200I50800J0D01*
G01*
X155790000Y-133719200D01*
G75*
G02*
X155840800Y-133770000I0J-50800D01*
G01*
G37*
X104200000Y-102695000D03*
X104200000Y-100155000D03*
X104200000Y-97615000D03*
X104200000Y-95075000D03*
X104200000Y-92535000D03*
X104200000Y-89995000D03*
X104200000Y-87455000D03*
X104200000Y-84915000D03*
G36*
G01*
X103299200Y-83225000D02*
X103299200Y-81525000D01*
G75*
G02*
X103350000Y-81474200I50800J0D01*
G01*
X105050000Y-81474200D01*
G75*
G02*
X105100800Y-81525000I0J-50800D01*
G01*
X105100800Y-83225000D01*
G75*
G02*
X105050000Y-83275800I-50800J0D01*
G01*
X103350000Y-83275800D01*
G75*
G02*
X103299200Y-83225000I0J50800D01*
G01*
G37*
X104200000Y-115620000D03*
X104200000Y-113080000D03*
X104200000Y-110540000D03*
G36*
G01*
X103299200Y-108850000D02*
X103299200Y-107150000D01*
G75*
G02*
X103350000Y-107099200I50800J0D01*
G01*
X105050000Y-107099200D01*
G75*
G02*
X105100800Y-107150000I0J-50800D01*
G01*
X105100800Y-108850000D01*
G75*
G02*
X105050000Y-108900800I-50800J0D01*
G01*
X103350000Y-108900800D01*
G75*
G02*
X103299200Y-108850000I0J50800D01*
G01*
G37*
X114300000Y-63500000D03*
X114300000Y-60960000D03*
X116840000Y-63500000D03*
X116840000Y-60960000D03*
X119380000Y-63500000D03*
X119380000Y-60960000D03*
X121920000Y-63500000D03*
X121920000Y-60960000D03*
X124460000Y-63500000D03*
X124460000Y-60960000D03*
X127000000Y-63500000D03*
X127000000Y-60960000D03*
X129540000Y-63500000D03*
X129540000Y-60960000D03*
X132080000Y-63500000D03*
X132080000Y-60960000D03*
X134620000Y-63500000D03*
X134620000Y-60960000D03*
X137160000Y-63500000D03*
X137160000Y-60960000D03*
X139700000Y-63500000D03*
X139700000Y-60960000D03*
X142240000Y-63500000D03*
X142240000Y-60960000D03*
X144780000Y-63500000D03*
X144780000Y-60960000D03*
X147320000Y-63500000D03*
X147320000Y-60960000D03*
X149860000Y-63500000D03*
X149860000Y-60960000D03*
X152400000Y-63500000D03*
X152400000Y-60960000D03*
X154940000Y-63500000D03*
X154940000Y-60960000D03*
X157480000Y-63500000D03*
X157480000Y-60960000D03*
X160020000Y-63500000D03*
X160020000Y-60960000D03*
X162560000Y-63500000D03*
G36*
G01*
X161710000Y-60059200D02*
X163410000Y-60059200D01*
G75*
G02*
X163460800Y-60110000I0J-50800D01*
G01*
X163460800Y-61810000D01*
G75*
G02*
X163410000Y-61860800I-50800J0D01*
G01*
X161710000Y-61860800D01*
G75*
G02*
X161659200Y-61810000I0J50800D01*
G01*
X161659200Y-60110000D01*
G75*
G02*
X161710000Y-60059200I50800J0D01*
G01*
G37*
X162560000Y-134620000D03*
X160020000Y-134620000D03*
X162560000Y-132080000D03*
X160020000Y-132080000D03*
X162560000Y-129540000D03*
X160020000Y-129540000D03*
X162560000Y-127000000D03*
X160020000Y-127000000D03*
X162560000Y-124460000D03*
X160020000Y-124460000D03*
X162560000Y-121920000D03*
X160020000Y-121920000D03*
X162560000Y-119380000D03*
X160020000Y-119380000D03*
X162560000Y-116840000D03*
X160020000Y-116840000D03*
X162560000Y-114300000D03*
X160020000Y-114300000D03*
X162560000Y-111760000D03*
X160020000Y-111760000D03*
X162560000Y-109220000D03*
X160020000Y-109220000D03*
X162560000Y-106680000D03*
X160020000Y-106680000D03*
X162560000Y-104140000D03*
X160020000Y-104140000D03*
X162560000Y-101600000D03*
X160020000Y-101600000D03*
X162560000Y-99060000D03*
X160020000Y-99060000D03*
X162560000Y-96520000D03*
X160020000Y-96520000D03*
X162560000Y-93980000D03*
X160020000Y-93980000D03*
X162560000Y-91440000D03*
X160020000Y-91440000D03*
X162560000Y-88900000D03*
X160020000Y-88900000D03*
X162560000Y-86360000D03*
G36*
G01*
X159119200Y-87210000D02*
X159119200Y-85510000D01*
G75*
G02*
X159170000Y-85459200I50800J0D01*
G01*
X160870000Y-85459200D01*
G75*
G02*
X160920800Y-85510000I0J-50800D01*
G01*
X160920800Y-87210000D01*
G75*
G02*
X160870000Y-87260800I-50800J0D01*
G01*
X159170000Y-87260800D01*
G75*
G02*
X159119200Y-87210000I0J50800D01*
G01*
G37*
M02*
