M48
; DRILL file {KiCad (5.1.10-1-10_14)} date Thursday, October 14, 2021 at 01:51:09 PM
; FORMAT={-:-/ absolute / inch / decimal}
; #@! TF.CreationDate,2021-10-14T13:51:09-04:00
; #@! TF.GenerationSoftware,Kicad,Pcbnew,(5.1.10-1-10_14)
; #@! TF.FileFunction,Plated,1,2,PTH
FMAT,2
INCH
T1C0.0157
T2C0.0394
%
G90
G05
T1
X4.2913Y-4.1339
X4.2913Y-4.252
X4.5787Y-4.7579
X4.5866Y-4.3307
X4.5984Y-5.0394
X4.6043Y-4.6004
X4.6152Y-4.6624
X4.626Y-3.3071
X4.6417Y-4.9469
X4.6457Y-4.0354
X4.6978Y-3.937
X4.7Y-4.8819
X4.748Y-4.7815
X4.75Y-3.8386
X4.8Y-3.7402
X4.8Y-3.947
X4.8228Y-3.6417
X4.8514Y-3.8514
X4.9521Y-2.6123
X4.9521Y-2.7086
X4.9521Y-2.805
X5.189Y-2.0433
X5.4502Y-3.7
X5.577Y-3.7
X5.7825Y-2.688
X5.8465Y-3.1299
X5.8535Y-3.3
X5.8661Y-3.4449
X5.9055Y-2.9232
X5.9449Y-5.1378
X5.9587Y-2.8937
X5.9783Y-3.6535
X5.9941Y-4.4144
X6.0305Y-3.6427
X6.0531Y-4.2992
X6.1Y-2.8232
X6.1Y-3.2
X6.1Y-3.65
X6.1Y-4.35
X6.15Y-3.65
X6.15Y-4.15
X6.176Y-4.671
X6.185Y-2.0433
X6.221Y-4.7175
X6.2441Y-3.1299
X6.248Y-1.937
X6.35Y-3.25
X6.4478Y-2.1368
X6.45Y-3.25
X6.5Y-3.2
X6.55Y-2.762
X6.55Y-3.1606
X6.5984Y-3.0866
X6.5984Y-3.7707
T2
X4.102Y-4.7845
X4.102Y-4.8845
X4.102Y-4.9845
X4.102Y-5.0845
X4.1024Y-2.3701
X4.1024Y-2.4701
X4.1024Y-2.5701
X4.1024Y-2.6701
X4.1024Y-2.7701
X4.1024Y-2.8701
X4.1024Y-2.9701
X4.1024Y-3.0701
X4.1024Y-3.2431
X4.1024Y-3.3431
X4.1024Y-3.4431
X4.1024Y-3.5431
X4.1024Y-3.6431
X4.1024Y-3.7431
X4.1024Y-3.8431
X4.1024Y-3.9431
X4.1024Y-4.0431
X4.1024Y-4.252
X4.1024Y-4.352
X4.1024Y-4.452
X4.1024Y-4.552
X4.5Y-2.4
X4.5Y-2.5
X4.6Y-2.4
X4.6Y-2.5
X4.7Y-2.4
X4.7Y-2.5
X4.8Y-2.4
X4.8Y-2.5
X4.9Y-2.4
X4.9Y-2.5
X5.0Y-2.4
X5.0Y-2.5
X5.1Y-2.4
X5.1Y-2.5
X5.136Y-1.937
X5.2Y-2.4
X5.2Y-2.5
X5.236Y-1.937
X5.3Y-2.4
X5.3Y-2.5
X5.336Y-1.937
X5.4Y-2.4
X5.4Y-2.5
X5.436Y-1.937
X5.5Y-2.4
X5.5Y-2.5
X5.6Y-2.4
X5.6Y-2.5
X5.7Y-2.4
X5.7Y-2.5
X5.8Y-2.4
X5.8Y-2.5
X5.9Y-2.4
X5.9Y-2.5
X6.0Y-2.4
X6.0Y-2.5
X6.1Y-2.4
X6.1Y-2.5
X6.1Y-5.2
X6.1Y-5.3
X6.2Y-2.4
X6.2Y-2.5
X6.3Y-2.4
X6.3Y-2.5
X6.3Y-3.4
X6.3Y-3.5
X6.3Y-3.6
X6.3Y-3.7
X6.3Y-3.8
X6.3Y-3.9
X6.3Y-4.0
X6.3Y-4.1
X6.3Y-4.2
X6.3Y-4.3
X6.3Y-4.4
X6.3Y-4.5
X6.3Y-4.6
X6.3Y-4.7
X6.3Y-4.8
X6.3Y-4.9
X6.3Y-5.0
X6.3Y-5.1
X6.3Y-5.2
X6.3Y-5.3
X6.4Y-2.4
X6.4Y-2.5
X6.4Y-3.4
X6.4Y-3.5
X6.4Y-3.6
X6.4Y-3.7
X6.4Y-3.8
X6.4Y-3.9
X6.4Y-4.0
X6.4Y-4.1
X6.4Y-4.2
X6.4Y-4.3
X6.4Y-4.4
X6.4Y-4.5
X6.4Y-4.6
X6.4Y-4.7
X6.4Y-4.8
X6.4Y-4.9
X6.4Y-5.0
X6.4Y-5.1
X6.4Y-5.2
X6.4Y-5.3
T0
M30
